<?xml version="1.0" encoding="utf-8"?>
<!-- Generator: Adobe Illustrator 18.0.0, SVG Export Plug-In . SVG Version: 6.00 Build 0)  -->
<!DOCTYPE svg PUBLIC "-//W3C//DTD SVG 1.1//EN" "http://www.w3.org/Graphics/SVG/1.1/DTD/svg11.dtd">
<svg version="1.1" id="Layer_1" xmlns="http://www.w3.org/2000/svg" xmlns:xlink="http://www.w3.org/1999/xlink" x="0px" y="0px"
	 width="841.9px" height="595.3px" viewBox="0 0 841.9 595.3" enable-background="new 0 0 841.9 595.3" xml:space="preserve">
<g>
	<rect x="0" y="0" fill="#F3E8D0" width="841.9" height="595.3"/>
	<g>
		<g>
			<defs>
				<circle id="SVGID_6_" cx="117.6" cy="147.2" r="99.5"/>
			</defs>
			<clipPath id="SVGID_1_">
				<use xlink:href="#SVGID_6_"  overflow="visible"/>
			</clipPath>
			<g clip-path="url(#SVGID_1_)">
				<g>
					<path fill="#8B5E3C" d="M163.4,210.5l-3.3-79.9l-42.5-0.8l-42.5,0.8l-3.3,79.9l-6.8,36.2c0,0,16.3,0,52.6,0s52.6,0,52.6,0
						L163.4,210.5z"/>
					<path fill="#754C29" d="M160.2,130.6l3.3,79.9l6.8,36.2c0,0-16.3,0-52.6,0V129.8L160.2,130.6z"/>
					<g>
						<path fill="#A97C50" d="M150.3,95.1c0,0-3.8-1.9-13.3-1.9c-9.5,0-19.4,2.9-19.4,2.9s-9.8-2.9-19.4-2.9
							c-9.5,0-13.3,1.9-13.3,1.9c0,19.7-9.8,35.5-9.8,35.5c0,20,17.1,41.9,17.1,41.9s8.3,29.2,10.2,40.9
							c1.9,11.7,15.2,10.1,15.2,10.1s13.3,1.6,15.2-10.1c1.9-11.7,10.2-40.9,10.2-40.9s17.1-21.9,17.1-41.9
							C160.2,130.6,150.3,114.8,150.3,95.1z"/>
						<path fill="#8B5E3C" d="M137,93.2c9.5,0,13.3,1.9,13.3,1.9c0,19.7,9.8,35.5,9.8,35.5c0,20-17.1,41.9-17.1,41.9
							s-8.3,29.2-10.2,40.9c-1.9,11.7-15.2,10.1-15.2,10.1v-90.4V96.1C117.6,96.1,127.5,93.2,137,93.2z"/>
						<path fill="#8B5E3C" d="M150.3,95.1c0,0,18.7-8.6,27.6-6.3c8.9,2.2,28.9,45.2,27.9,50.2c-1,5-24.7-15.9-27.8-15.9
							c-3,0-17.9,7.6-17.9,7.6S150.3,119.9,150.3,95.1z"/>
						<path fill="#603913" d="M175.7,100.2c3.8,0.3,19.3,22.2,28.5,39.5c-5.6-1.1-23.5-16.6-26.1-16.6c-3,0-17.9,7.6-17.9,7.6
							s-1.3-0.4-2.9-6c-1.8-6.2,0.5-12.9,5.6-16.8C167.8,104,173.7,100,175.7,100.2z"/>
						<path fill="#FFFFFF" d="M117.6,112.2c-6.5,0-20.7,42.6-20.7,77.5c0,38.8,20.7,33.9,20.7,33.9s20.7,5.8,20.7-33.9
							C138.4,154.9,124.1,112.2,117.6,112.2z"/>
						<path fill="#F1F2F2" d="M117.6,112.2v111.3c0,0,20.7,5.8,20.7-33.9C138.4,154.9,124.1,112.2,117.6,112.2z"/>
						<g>
							<path fill="#594A42" d="M117.6,205.5c-6.3,0-13-0.6-13,7.3c0,3.8,0.8,6.5,1.6,8.4c2.5,2.1,5.6,2.8,8,3h3.4h3.4
								c2.4-0.2,5.5-0.9,8-3c0.8-1.9,1.6-4.6,1.6-8.4C130.6,204.9,124,205.5,117.6,205.5z"/>
							<path fill="#3C312A" d="M114.9,221.3c0,0-0.2-4.4-7.6-7.3c0,0-0.2,2.8,1.1,6l1-2.4C109.4,217.6,112.2,218.3,114.9,221.3z"/>
							<path fill="#3C312A" d="M120.3,221.3c0,0,0.2-4.4,7.6-7.3c0,0,0.2,2.8-1.1,6l-1-2.4C125.9,217.6,123,218.3,120.3,221.3z"/>
						</g>
						<g>
							<circle fill="#F7941E" cx="96.7" cy="136.2" r="6.3"/>
							<circle fill="#594A42" cx="96.7" cy="136.2" r="4.2"/>
							<circle fill="#FFFFFF" cx="93.8" cy="133.3" r="1.6"/>
							<circle fill="#FFFFFF" cx="99.5" cy="138.9" r="1"/>
						</g>
						<path fill="#A97C50" d="M84.9,95.1c0,0-18.7-8.6-27.6-6.3c-8.9,2.2-28.9,45.2-27.9,50.2c1,5,24.7-15.9,27.8-15.9
							c3,0,17.9,7.6,17.9,7.6S84.9,119.9,84.9,95.1z"/>
						<path fill="#603913" d="M59.6,100.2c-3.8,0.3-19.3,22.2-28.5,39.5c5.6-1.1,23.5-16.6,26.1-16.6c3,0,17.9,7.6,17.9,7.6
							s1.2-0.2,2.7-3.1c3.6-6.9,1.4-15.5-5-20C67.6,103.9,61.6,100,59.6,100.2z"/>
						<g>
							<circle fill="#F7941E" cx="138.6" cy="136.2" r="6.3"/>
							<circle fill="#594A42" cx="138.6" cy="136.2" r="4.2"/>
							<circle fill="#FFFFFF" cx="141.5" cy="133.3" r="1.6"/>
							<circle fill="#FFFFFF" cx="135.8" cy="138.9" r="1"/>
						</g>
					</g>
				</g>
				<g>
					<g>
						<g>
							<g>
								<path fill="#2A3231" d="M97.9,146.5c-7.6,0-14.6-1.6-18.4-4.2c-2.7-1.8-4.8-6-4.8-9.3c0-3.2,2.4-6,5.6-6.3
									c4.9-0.6,10-0.9,14.9-0.9c4.9,0,9.9,0.3,14.8,0.9c3.3,0.4,5.7,3.2,5.7,6.5v3.6c0,3.9-2.7,7.4-6.5,8.4
									C105.9,146,102,146.5,97.9,146.5z"/>
							</g>
							<g>
								<path fill="#2A3231" d="M140,146.5c-4.1,0-8-0.5-11.3-1.4c-3.8-1-6.5-4.4-6.5-8.4v-3.6c0-3.3,2.5-6.1,5.7-6.5
									c4.9-0.6,9.8-0.9,14.8-0.9c5,0,10,0.3,14.9,0.9c3.2,0.4,5.6,3.1,5.6,6.3c0,3.3-2.2,7.5-4.8,9.3
									C154.6,144.9,147.6,146.5,140,146.5C140,146.5,140,146.5,140,146.5z"/>
							</g>
						</g>
						<path fill="#2A3231" d="M110.5,126.7c0,2.5,0,5,0,7.5c5.5-2.1,11.4-2.1,16.9,0c0-2.5,0-5,0-7.5
							C121.9,128.8,116,128.8,110.5,126.7z"/>
					</g>
					<g>
						<linearGradient id="SVGID_2_" gradientUnits="userSpaceOnUse" x1="95.2213" y1="144.8552" x2="95.2213" y2="126.3124">
							<stop  offset="0" style="stop-color:#662D91"/>
							<stop  offset="1" style="stop-color:#EE2A7B"/>
						</linearGradient>
						<path fill="url(#SVGID_2_)" d="M81,128.6c9.4-1.2,18.9-1.2,28.3,0c2.3,0.3,4.1,2.3,4.1,4.6v2.2c0,0.4,0,0.9,0,1.3
							c0,3.1-2.1,5.7-5.1,6.5c-8.8,2.4-21.8,1.3-27.4-2.5c-2.2-1.5-3.9-5-3.9-7.6l0,0c0,0,0,0,0,0C77,130.8,78.7,128.9,81,128.6z"/>
						<linearGradient id="SVGID_3_" gradientUnits="userSpaceOnUse" x1="142.7501" y1="144.8552" x2="142.7501" y2="126.3124">
							<stop  offset="0" style="stop-color:#662D91"/>
							<stop  offset="1" style="stop-color:#EE2A7B"/>
						</linearGradient>
						<path fill="url(#SVGID_3_)" d="M157,128.6c-9.4-1.2-18.9-1.2-28.3,0c-2.3,0.3-4.1,2.3-4.1,4.6v2.2c0,0.4,0,0.9,0,1.3
							c0,3.1,2.1,5.7,5.1,6.5c8.8,2.4,21.8,1.3,27.4-2.5c2.2-1.5,3.9-5,3.9-7.6l0,0c0,0,0,0,0,0C160.9,130.8,159.3,128.9,157,128.6z
							"/>
						<g>
							<path fill="#FFFFFF" d="M139.3,127.8c-0.6,0-1.3,0.1-1.9,0.1l-5.8,15.8c0.6,0.1,1.2,0.2,1.8,0.3L139.3,127.8z"/>
							<path fill="#FFFFFF" d="M143.9,127.8c-1.1,0-2.2,0-3.3,0l-6,16.4c1.1,0.1,2.1,0.2,3.2,0.3L143.9,127.8z"/>
						</g>
						<g>
							<path fill="#FFFFFF" d="M85.5,142.8c0.6,0.2,1.1,0.3,1.7,0.5l5.6-15.5c-0.6,0-1.3,0-1.9,0L85.5,142.8z"/>
							<path fill="#FFFFFF" d="M97.5,127.8c-1.1,0-2.2,0-3.3,0l-5.8,15.8c1,0.2,2.1,0.4,3.1,0.5L97.5,127.8z"/>
						</g>
					</g>
				</g>
			</g>
		</g>
		<g>
			<defs>
				<circle id="SVGID_10_" cx="319.8" cy="147.2" r="99.5"/>
			</defs>
			<clipPath id="SVGID_4_">
				<use xlink:href="#SVGID_10_"  overflow="visible"/>
			</clipPath>
			<g clip-path="url(#SVGID_4_)">
				<path fill="#917C71" d="M365.7,210.5l-3.3-79.9l-42.5-0.8l-42.5,0.8l-3.3,79.9l-6.8,36.2c0,0,16.3,0,52.6,0s52.6,0,52.6,0
					L365.7,210.5z"/>
				<path fill="#847167" d="M362.4,130.6l3.3,79.9l6.8,36.2c0,0-16.3,0-52.6,0V129.8L362.4,130.6z"/>
				<g>
					<path fill="#9B8579" d="M352.5,95.1c0,0-3.8-1.9-13.3-1.9c-9.5,0-19.4,2.9-19.4,2.9s-9.8-2.9-19.4-2.9
						c-9.5,0-13.3,1.9-13.3,1.9c0,19.7-9.8,35.5-9.8,35.5c0,20,17.1,41.9,17.1,41.9s8.3,29.2,10.2,40.9
						c1.9,11.7,15.2,10.1,15.2,10.1s13.3,1.6,15.2-10.1c1.9-11.7,10.2-40.9,10.2-40.9s17.1-21.9,17.1-41.9
						C362.4,130.6,352.5,114.8,352.5,95.1z"/>
					<path fill="#917C71" d="M339.2,93.2c9.5,0,13.3,1.9,13.3,1.9c0,19.7,9.8,35.5,9.8,35.5c0,20-17.1,41.9-17.1,41.9
						s-8.3,29.2-10.2,40.9c-1.9,11.7-15.2,10.1-15.2,10.1v-90.4V96.1C319.8,96.1,329.7,93.2,339.2,93.2z"/>
					<path fill="#917C71" d="M352.5,95.1c0,0,18.7-8.6,27.6-6.3c8.9,2.2,28.9,45.2,27.9,50.2c-1,5-24.7-15.9-27.8-15.9
						c-3,0-17.9,7.6-17.9,7.6S352.5,119.9,352.5,95.1z"/>
					<path fill="#68584F" d="M377.9,100.2c3.8,0.3,19.3,22.2,28.5,39.5c-5.6-1.1-23.5-16.6-26.1-16.6c-3,0-17.9,7.6-17.9,7.6
						s-1.3-0.4-2.9-6c-1.8-6.2,0.5-12.9,5.6-16.8C370.1,104,375.9,100,377.9,100.2z"/>
					<path fill="#9B8579" d="M319.8,112.2c-6.5,0-20.7,42.6-20.7,77.5c0,38.8,20.7,33.9,20.7,33.9s20.7,5.8,20.7-33.9
						C340.6,154.9,326.4,112.2,319.8,112.2z"/>
					<path fill="#917C71" d="M319.8,112.2v111.3c0,0,20.7,5.8,20.7-33.9C340.6,154.9,326.4,112.2,319.8,112.2z"/>
					<g>
						<path fill="#594A42" d="M319.8,205.5c-6.3,0-13-0.6-13,7.3c0,3.8,0.8,6.5,1.6,8.4c2.5,2.1,5.6,2.8,8,3h3.4h3.4
							c2.4-0.2,5.5-0.9,8-3c0.8-1.9,1.6-4.6,1.6-8.4C332.9,204.9,326.2,205.5,319.8,205.5z"/>
						<path fill="#3C312A" d="M317.1,221.3c0,0-0.2-4.4-7.6-7.3c0,0-0.2,2.8,1.1,6l1-2.4C311.6,217.6,314.4,218.3,317.1,221.3z"/>
						<path fill="#3C312A" d="M322.5,221.3c0,0,0.2-4.4,7.6-7.3c0,0,0.2,2.8-1.1,6l-1-2.4C328.1,217.6,325.2,218.3,322.5,221.3z"/>
					</g>
					<g>
						<circle fill="#F7941E" cx="298.9" cy="136.2" r="6.3"/>
						<circle fill="#594A42" cx="298.9" cy="136.2" r="4.2"/>
						<circle fill="#FFFFFF" cx="296" cy="133.3" r="1.6"/>
						<circle fill="#FFFFFF" cx="301.7" cy="138.9" r="1"/>
					</g>
					<path fill="#9B8579" d="M287.2,95.1c0,0-18.7-8.6-27.6-6.3c-8.9,2.2-28.9,45.2-27.9,50.2c1,5,24.7-15.9,27.8-15.9
						c3,0,17.9,7.6,17.9,7.6S287.2,119.9,287.2,95.1z"/>
					<path fill="#68584F" d="M261.8,100.2c-3.8,0.3-19.3,22.2-28.5,39.5c5.6-1.1,23.5-16.6,26.1-16.6c3,0,17.9,7.6,17.9,7.6
						s1.2-0.2,2.7-3.1c3.6-6.9,1.4-15.5-5-20C269.8,103.9,263.8,100,261.8,100.2z"/>
					<g>
						<circle fill="#F7941E" cx="340.8" cy="136.2" r="6.3"/>
						<circle fill="#594A42" cx="340.8" cy="136.2" r="4.2"/>
						<circle fill="#FFFFFF" cx="343.7" cy="133.3" r="1.6"/>
						<circle fill="#FFFFFF" cx="338" cy="138.9" r="1"/>
					</g>
				</g>
			</g>
		</g>
		<g>
			<defs>
				<circle id="SVGID_12_" cx="522" cy="147.2" r="99.5"/>
			</defs>
			<clipPath id="SVGID_5_">
				<use xlink:href="#SVGID_12_"  overflow="visible"/>
			</clipPath>
			<g clip-path="url(#SVGID_5_)">
				<g>
					<path fill="#FFF685" d="M567.9,210.5l-3.3-79.9l-42.5-0.8l-42.5,0.8l-3.3,79.9l-6.8,36.2c0,0,16.3,0,52.6,0s52.6,0,52.6,0
						L567.9,210.5z"/>
					<path fill="#ECDF7A" d="M564.6,130.6l3.3,79.9l6.8,36.2c0,0-16.3,0-52.6,0V129.8L564.6,130.6z"/>
					<g>
						<path fill="#FFF9AE" d="M554.7,95.1c0,0-3.8-1.9-13.3-1.9c-9.5,0-19.4,2.9-19.4,2.9s-9.8-2.9-19.4-2.9
							c-9.5,0-13.3,1.9-13.3,1.9c0,19.7-9.8,35.5-9.8,35.5c0,20,17.1,41.9,17.1,41.9s8.3,29.2,10.2,40.9
							c1.9,11.7,15.2,10.1,15.2,10.1s13.3,1.6,15.2-10.1c1.9-11.7,10.2-40.9,10.2-40.9s17.1-21.9,17.1-41.9
							C564.6,130.6,554.7,114.8,554.7,95.1z"/>
						<path fill="#FFF685" d="M541.4,93.2c9.5,0,13.3,1.9,13.3,1.9c0,19.7,9.8,35.5,9.8,35.5c0,20-17.1,41.9-17.1,41.9
							s-8.3,29.2-10.2,40.9c-1.9,11.7-15.2,10.1-15.2,10.1v-90.4V96.1C522,96.1,531.9,93.2,541.4,93.2z"/>
						<path fill="#FFF685" d="M554.7,95.1c0,0,18.7-8.6,27.6-6.3c8.9,2.2,28.9,45.2,27.9,50.2c-1,5-24.7-15.9-27.8-15.9
							c-3,0-17.9,7.6-17.9,7.6S554.7,119.9,554.7,95.1z"/>
						<path fill="#BFB858" d="M580.1,100.2c3.8,0.3,19.3,22.2,28.5,39.5c-5.6-1.1-23.5-16.6-26.1-16.6c-3,0-17.9,7.6-17.9,7.6
							s-1.3-0.4-2.9-6c-1.8-6.2,0.5-12.9,5.6-16.8C572.3,104,578.1,100,580.1,100.2z"/>
						<g>
							<path fill="#594A42" d="M522,205.5c-6.3,0-13-0.6-13,7.3c0,3.8,0.8,6.5,1.6,8.4c2.5,2.1,5.6,2.8,8,3h3.4h3.4
								c2.4-0.2,5.5-0.9,8-3c0.8-1.9,1.6-4.6,1.6-8.4C535.1,204.9,528.4,205.5,522,205.5z"/>
							<path fill="#3C312A" d="M519.4,221.3c0,0-0.2-4.4-7.6-7.3c0,0-0.2,2.8,1.1,6l1-2.4C513.8,217.6,516.7,218.3,519.4,221.3z"/>
							<path fill="#3C312A" d="M524.7,221.3c0,0,0.2-4.4,7.6-7.3c0,0,0.2,2.8-1.1,6l-1-2.4C530.3,217.6,527.4,218.3,524.7,221.3z"/>
						</g>
						<g>
							<circle fill="#F7941E" cx="501.1" cy="136.2" r="6.3"/>
							<circle fill="#594A42" cx="501.1" cy="136.2" r="4.2"/>
							<circle fill="#FFFFFF" cx="498.2" cy="133.3" r="1.6"/>
							<circle fill="#FFFFFF" cx="503.9" cy="138.9" r="1"/>
						</g>
						<path fill="#FFF9AE" d="M489.4,95.1c0,0-18.7-8.6-27.6-6.3c-8.9,2.2-28.9,45.2-27.9,50.2c1,5,24.7-15.9,27.8-15.9
							c3,0,17.9,7.6,17.9,7.6S489.4,119.9,489.4,95.1z"/>
						<path fill="#BFB858" d="M464,100.2c-3.8,0.3-19.3,22.2-28.5,39.5c5.6-1.1,23.5-16.6,26.1-16.6c3,0,17.9,7.6,17.9,7.6
							s1.2-0.2,2.7-3.1c3.6-6.9,1.4-15.5-5-20C472,103.9,466,100,464,100.2z"/>
						<g>
							<circle fill="#F7941E" cx="543" cy="136.2" r="6.3"/>
							<circle fill="#594A42" cx="543" cy="136.2" r="4.2"/>
							<circle fill="#FFFFFF" cx="545.9" cy="133.3" r="1.6"/>
							<circle fill="#FFFFFF" cx="540.2" cy="138.9" r="1"/>
						</g>
					</g>
				</g>
				<g>
					<path fill="#ED1C24" d="M564.6,131.1l-9.8,29.5c0,0-8.9,3.8-14.5-7.6c-5.6-11.5-18.1-9.9-18.1-9.9s-12.5-1.6-18.1,9.9
						c-5.6,11.5-14.5,7.6-14.5,7.6l-9.8-29.5l0,0c-1.9,6.2-2.1,12.9-0.5,19.2l19.2,76.8c0,0,4.5,4.7,23.8,4.7
						c19.3,0,23.8-4.7,23.8-4.7l19.2-76.8C566.7,144,566.5,137.4,564.6,131.1L564.6,131.1z M540.3,195.7c0,2.5-1.5,4.5-3.3,4.5
						c-1.8,0-3.3-2-3.3-4.5c0-2.5,1.5-4.5,3.3-4.5C538.8,191.2,540.3,193.3,540.3,195.7z M535.1,166.5c1.8,0,3.3,2,3.3,4.5
						c0,2.5-1.5,4.5-3.3,4.5c-1.8,0-3.3-2-3.3-4.5C531.8,168.5,533.2,166.5,535.1,166.5z M522,150.8c2.5,0,4.5,2,4.5,4.5
						c0,2.5-2,4.5-4.5,4.5c-2.5,0-4.5-2-4.5-4.5C517.5,152.8,519.6,150.8,522,150.8z M522,175.5c2.5,0,4.5,2,4.5,4.5
						c0,2.5-2,4.5-4.5,4.5c-2.5,0-4.5-2-4.5-4.5C517.5,177.5,519.6,175.5,522,175.5z M522,200.2c2.5,0,4.5,2,4.5,4.5
						c0,2.5-2,4.5-4.5,4.5c-2.5,0-4.5-2-4.5-4.5C517.5,202.3,519.6,200.2,522,200.2z M509.2,166.5c1.8,0,3.3,2,3.3,4.5
						c0,2.5-1.5,4.5-3.3,4.5c-1.8,0-3.3-2-3.3-4.5C505.9,168.5,507.4,166.5,509.2,166.5z M507.1,191.2c1.8,0,3.3,2,3.3,4.5
						c0,2.5-1.5,4.5-3.3,4.5c-1.8,0-3.3-2-3.3-4.5C503.8,193.3,505.2,191.2,507.1,191.2z M494.4,188.2c-1.5,0-2.7-1.7-2.7-3.7
						c0-2,1.2-3.7,2.7-3.7c1.5,0,2.7,1.7,2.7,3.7C497.1,186.6,495.9,188.2,494.4,188.2z M496.6,169.6c-1.3,0-2.3-1.4-2.3-3.1
						c0-1.7,1-3.1,2.3-3.1c1.3,0,2.3,1.4,2.3,3.1C498.9,168.2,497.9,169.6,496.6,169.6z M502.1,213.7c1.3,0,2.3,1.4,2.3,3.1
						c0,1.7-1,3.1-2.3,3.1c-1.3,0-2.3-1.4-2.3-3.1C499.8,215.1,500.8,213.7,502.1,213.7z M522,229.9c-8.1,0-15.5-1.2-21.3-3.2
						c5.7-2,13.1-3.2,21.3-3.2s15.5,1.2,21.3,3.2C537.6,228.7,530.2,229.9,522,229.9z M542,220c-1.3,0-2.3-1.4-2.3-3.1
						c0-1.7,1-3.1,2.3-3.1c1.3,0,2.3,1.4,2.3,3.1C544.3,218.6,543.3,220,542,220z M544.9,166.5c0-1.7,1-3.1,2.3-3.1
						c1.3,0,2.3,1.4,2.3,3.1c0,1.7-1,3.1-2.3,3.1C546,169.6,544.9,168.2,544.9,166.5z M549.5,188.2c-1.5,0-2.7-1.7-2.7-3.7
						c0-2,1.2-3.7,2.7-3.7c1.5,0,2.7,1.7,2.7,3.7C552.2,186.6,551,188.2,549.5,188.2z"/>
					<g>
						<path fill="#BE1E2D" d="M540.1,225.7c-5.2,1.4-11.4,2.3-18.1,2.3c-6.7,0-12.9-0.8-18.1-2.3c-1.1,0.3-2.2,0.6-3.2,1
							c5.7,2,13.1,3.2,21.3,3.2s15.5-1.2,21.3-3.2C542.3,226.3,541.2,226,540.1,225.7z"/>
					</g>
				</g>
			</g>
		</g>
		<g>
			<defs>
				<circle id="SVGID_14_" cx="724.3" cy="147.2" r="99.5"/>
			</defs>
			<clipPath id="SVGID_7_">
				<use xlink:href="#SVGID_14_"  overflow="visible"/>
			</clipPath>
			<g clip-path="url(#SVGID_7_)">
				<g>
					<path fill="#C23F1F" d="M770.1,210.5l-3.3-79.9l-42.5-0.8l-42.5,0.8l-3.3,79.9l-6.8,36.2c0,0,16.3,0,52.6,0
						c36.3,0,52.6,0,52.6,0L770.1,210.5z"/>
					<path fill="#A93517" d="M766.8,130.6l3.3,79.9l6.8,36.2c0,0-16.3,0-52.6,0V129.8L766.8,130.6z"/>
					<g>
						<path fill="#D14E23" d="M756.9,95.1c0,0-3.8-1.9-13.3-1.9c-9.5,0-19.4,2.9-19.4,2.9s-9.8-2.9-19.4-2.9
							c-9.5,0-13.3,1.9-13.3,1.9c0,19.7-9.8,35.5-9.8,35.5c0,20,17.1,41.9,17.1,41.9s8.3,29.2,10.2,40.9
							c1.9,11.7,15.2,10.1,15.2,10.1s13.3,1.6,15.2-10.1c1.9-11.7,10.2-40.9,10.2-40.9s17.1-21.9,17.1-41.9
							C766.8,130.6,756.9,114.8,756.9,95.1z"/>
						<path fill="#C23F1F" d="M743.6,93.2c9.5,0,13.3,1.9,13.3,1.9c0,19.7,9.8,35.5,9.8,35.5c0,20-17.1,41.9-17.1,41.9
							s-8.3,29.2-10.2,40.9c-1.9,11.7-15.2,10.1-15.2,10.1v-90.4V96.1C724.3,96.1,734.1,93.2,743.6,93.2z"/>
						<path fill="#C23F1F" d="M756.9,95.1c0,0,18.7-8.6,27.6-6.3c8.9,2.2,28.9,45.2,27.9,50.2c-1,5-24.7-15.9-27.8-15.9
							c-3,0-17.9,7.6-17.9,7.6S756.9,119.9,756.9,95.1z"/>
						<path fill="#7B280E" d="M782.3,100.2c3.8,0.3,19.3,22.2,28.5,39.5c-5.6-1.1-23.5-16.6-26.1-16.6c-3,0-17.9,7.6-17.9,7.6
							s-1.3-0.4-2.9-6c-1.8-6.2,0.5-12.9,5.6-16.8C774.5,104,780.3,100,782.3,100.2z"/>
						<path fill="#FFFFFF" d="M724.3,112.2c-6.5,0-20.7,42.6-20.7,77.5c0,38.8,20.7,33.9,20.7,33.9s20.7,5.8,20.7-33.9
							C745,154.9,730.8,112.2,724.3,112.2z"/>
						<path fill="#F1F2F2" d="M724.3,112.2v111.3c0,0,20.7,5.8,20.7-33.9C745,154.9,730.8,112.2,724.3,112.2z"/>
						<g>
							<path fill="#594A42" d="M724.3,205.5c-6.3,0-13-0.6-13,7.3c0,3.8,0.8,6.5,1.6,8.4c2.5,2.1,5.6,2.8,8,3h3.4h3.4
								c2.4-0.2,5.5-0.9,8-3c0.8-1.9,1.6-4.6,1.6-8.4C737.3,204.9,730.6,205.5,724.3,205.5z"/>
							<path fill="#3C312A" d="M721.6,221.3c0,0-0.2-4.4-7.6-7.3c0,0-0.2,2.8,1.1,6l1-2.4C716,217.6,718.9,218.3,721.6,221.3z"/>
							<path fill="#3C312A" d="M727,221.3c0,0,0.2-4.4,7.6-7.3c0,0,0.2,2.8-1.1,6l-1-2.4C732.5,217.6,729.6,218.3,727,221.3z"/>
						</g>
						<g>
							<circle fill="#F7941E" cx="703.3" cy="136.2" r="6.3"/>
							<circle fill="#594A42" cx="703.3" cy="136.2" r="4.2"/>
							<circle fill="#FFFFFF" cx="700.4" cy="133.3" r="1.6"/>
							<circle fill="#FFFFFF" cx="706.1" cy="138.9" r="1"/>
						</g>
						<path fill="#D14E23" d="M691.6,95.1c0,0-18.7-8.6-27.6-6.3c-8.9,2.2-28.9,45.2-27.9,50.2c1,5,24.7-15.9,27.8-15.9
							s17.9,7.6,17.9,7.6S691.6,119.9,691.6,95.1z"/>
						<path fill="#7B280E" d="M666.2,100.2c-3.8,0.3-19.3,22.2-28.5,39.5c5.6-1.1,23.5-16.6,26.1-16.6c3,0,17.9,7.6,17.9,7.6
							s1.2-0.2,2.7-3.1c3.6-6.9,1.4-15.5-5-20C674.2,103.9,668.2,100,666.2,100.2z"/>
						<g>
							<circle fill="#F7941E" cx="745.2" cy="136.2" r="6.3"/>
							<circle fill="#594A42" cx="745.2" cy="136.2" r="4.2"/>
							<circle fill="#FFFFFF" cx="748.1" cy="133.3" r="1.6"/>
							<circle fill="#FFFFFF" cx="742.4" cy="138.9" r="1"/>
						</g>
					</g>
				</g>
				<g>
					<g>
						<path fill="#2A3231" d="M695.6,65.1l-4.9,28.2h67.1l-4.9-28.2c-1.6-9.3-9.7-16.1-19.2-16.1h-19
							C705.3,49,697.2,55.8,695.6,65.1z"/>
						<polygon fill="#FFF200" points="692.8,81.1 690.7,93.3 757.8,93.3 755.7,81.1 						"/>
					</g>
					<path fill="#2A3231" d="M675.9,88.2L675.9,88.2c0,3.2,2.5,6.6,5.7,7.5c27.9,7.9,57.5,7.9,85.5,0c3.1-0.9,5.7-4.3,5.7-7.5l0,0
						c0-3.2-2.5-4.9-5.7-4.1c-27.9,7.9-57.5,7.9-85.5,0C678.4,83.3,675.9,85,675.9,88.2z"/>
				</g>
			</g>
		</g>
		<g>
			<defs>
				<circle id="SVGID_16_" cx="724.3" cy="448.1" r="99.5"/>
			</defs>
			<clipPath id="SVGID_8_">
				<use xlink:href="#SVGID_16_"  overflow="visible"/>
			</clipPath>
			<g clip-path="url(#SVGID_8_)">
				<g>
					<path fill="#636468" d="M770.1,511.4l-3.3-79.9l-42.5-0.8l-42.5,0.8l-3.3,79.9l-6.8,36.2c0,0,16.3,0,52.6,0s52.6,0,52.6,0
						L770.1,511.4z"/>
					<path fill="#58595D" d="M766.8,431.5l3.3,79.9l6.8,36.2c0,0-16.3,0-52.6,0V430.7L766.8,431.5z"/>
					<g>
						<path fill="#6E6E73" d="M756.9,396c0,0-3.8-1.9-13.3-1.9c-9.5,0-19.4,2.9-19.4,2.9s-9.8-2.9-19.4-2.9
							c-9.5,0-13.3,1.9-13.3,1.9c0,19.7-9.8,35.5-9.8,35.5c0,20,17.1,41.9,17.1,41.9s8.3,29.2,10.2,40.9
							c1.9,11.7,15.2,10.1,15.2,10.1s13.3,1.6,15.2-10.1c1.9-11.7,10.2-40.9,10.2-40.9s17.1-21.9,17.1-41.9
							C766.8,431.5,756.9,415.7,756.9,396z"/>
						<path fill="#636468" d="M743.6,394.1c9.5,0,13.3,1.9,13.3,1.9c0,19.7,9.8,35.5,9.8,35.5c0,20-17.1,41.9-17.1,41.9
							s-8.3,29.2-10.2,40.9c-1.9,11.7-15.2,10.1-15.2,10.1v-90.4v-37.1C724.3,396.9,734.1,394.1,743.6,394.1z"/>
						<path fill="#636468" d="M756.9,396c0,0,18.7-8.6,27.6-6.3c8.9,2.2,28.9,45.2,27.9,50.2c-1,5-24.7-15.9-27.8-15.9
							s-17.9,7.6-17.9,7.6S756.9,420.7,756.9,396z"/>
						<path fill="#414143" d="M782.3,401.1c3.8,0.3,19.3,22.2,28.5,39.5c-5.6-1.1-23.5-16.6-26.1-16.6c-3,0-17.9,7.6-17.9,7.6
							s-1.3-0.4-2.9-6c-1.8-6.2,0.5-12.9,5.6-16.8C774.5,404.9,780.3,400.9,782.3,401.1z"/>
						<path fill="#FFFFFF" d="M724.3,413.1c-6.5,0-20.7,42.6-20.7,77.5c0,38.8,20.7,33.9,20.7,33.9s20.7,5.8,20.7-33.9
							C745,455.7,730.8,413.1,724.3,413.1z"/>
						<path fill="#F1F2F2" d="M724.3,413.1v111.3c0,0,20.7,5.8,20.7-33.9C745,455.7,730.8,413.1,724.3,413.1z"/>
						<g>
							<path fill="#594A42" d="M724.3,506.4c-6.3,0-13-0.6-13,7.3c0,3.8,0.8,6.5,1.6,8.4c2.5,2.1,5.6,2.8,8,3h3.4h3.4
								c2.4-0.2,5.5-0.9,8-3c0.8-1.9,1.6-4.6,1.6-8.4C737.3,505.8,730.6,506.4,724.3,506.4z"/>
							<path fill="#3C312A" d="M721.6,522.1c0,0-0.2-4.4-7.6-7.3c0,0-0.2,2.8,1.1,6l1-2.4C716,518.5,718.9,519.2,721.6,522.1z"/>
							<path fill="#3C312A" d="M727,522.1c0,0,0.2-4.4,7.6-7.3c0,0,0.2,2.8-1.1,6l-1-2.4C732.5,518.5,729.6,519.2,727,522.1z"/>
						</g>
						<g>
							<circle fill="#F7941E" cx="703.3" cy="437" r="6.3"/>
							<circle fill="#594A42" cx="703.3" cy="437" r="4.2"/>
							<circle fill="#FFFFFF" cx="700.4" cy="434.2" r="1.6"/>
							<circle fill="#FFFFFF" cx="706.1" cy="439.8" r="1"/>
						</g>
						<path fill="#6E6E73" d="M691.6,396c0,0-18.7-8.6-27.6-6.3c-8.9,2.2-28.9,45.2-27.9,50.2c1,5,24.7-15.9,27.8-15.9
							c3,0,17.9,7.6,17.9,7.6S691.6,420.7,691.6,396z"/>
						<path fill="#414143" d="M666.2,401.1c-3.8,0.3-19.3,22.2-28.5,39.5c5.6-1.1,23.5-16.6,26.1-16.6c3,0,17.9,7.6,17.9,7.6
							s1.2-0.2,2.7-3.1c3.6-6.9,1.4-15.5-5-20C674.2,404.8,668.2,400.9,666.2,401.1z"/>
						<g>
							<circle fill="#F7941E" cx="745.2" cy="437" r="6.3"/>
							<circle fill="#594A42" cx="745.2" cy="437" r="4.2"/>
							<circle fill="#FFFFFF" cx="748.1" cy="434.2" r="1.6"/>
							<circle fill="#FFFFFF" cx="742.4" cy="439.8" r="1"/>
						</g>
					</g>
				</g>
				<g>
					<rect x="684" y="435.1" fill="#414143" width="7.2" height="3.7"/>
					<circle opacity="0.5" fill="#FFFFFF" cx="703.6" cy="436.9" r="12.4"/>
					<path fill="#414143" d="M688.8,436.9c0,8.2,6.6,14.8,14.8,14.8c8.2,0,14.8-6.6,14.8-14.8c0-8.2-6.6-14.8-14.8-14.8
						C695.5,422.2,688.8,428.8,688.8,436.9z M691.2,436.9c0-6.8,5.5-12.4,12.4-12.4s12.4,5.5,12.4,12.4c0,6.8-5.5,12.4-12.4,12.4
						S691.2,443.8,691.2,436.9z"/>
					<g>
						<rect x="685.5" y="436.9" fill="#414143" width="1.9" height="110.6"/>
					</g>
				</g>
			</g>
		</g>
		<g>
			<defs>
				<circle id="SVGID_18_" cx="522" cy="448.1" r="99.5"/>
			</defs>
			<clipPath id="SVGID_9_">
				<use xlink:href="#SVGID_18_"  overflow="visible"/>
			</clipPath>
			<g clip-path="url(#SVGID_9_)">
				<g>
					<path fill="#00A79D" d="M538.1,354.5c-2.9-1.1-6.5,0.1-9.6,1.9c-4,2.3-8.9,2.3-13,0c-3.1-1.8-6.7-3-9.6-1.9
						c-12,4.5-19.6,37.2-19.6,37.2H521h2.2h34.6C557.8,391.7,550.1,359,538.1,354.5z"/>
					<path fill="#221F1F" d="M488.9,382.8c-1.6,5.2-2.5,8.9-2.5,8.9H521h2.2h34.6c0,0-0.9-3.8-2.5-8.9c-9.2-1.6-20.7-2.6-33.2-2.6
						C509.6,380.1,498.1,381.1,488.9,382.8z"/>
					<ellipse fill="#00A79D" cx="522" cy="397.9" rx="54.8" ry="12.9"/>
				</g>
				<g>
					<g>
						<path fill="#DE5427" d="M567.9,511.4l-3.3-79.9l-42.5-0.8l-42.5,0.8l-3.3,79.9l-6.8,36.2c0,0,16.3,0,52.6,0s52.6,0,52.6,0
							L567.9,511.4z"/>
						<path fill="#CB4C23" d="M564.6,431.5l3.3,79.9l6.8,36.2c0,0-16.3,0-52.6,0V430.7L564.6,431.5z"/>
						<g>
							<path fill="#F15A2B" d="M554.7,396c0,0-3.8-1.9-13.3-1.9c-9.5,0-19.4,2.9-19.4,2.9s-9.8-2.9-19.4-2.9
								c-9.5,0-13.3,1.9-13.3,1.9c0,19.7-9.8,35.5-9.8,35.5c0,20,17.1,41.9,17.1,41.9s8.3,29.2,10.2,40.9
								c1.9,11.7,15.2,10.1,15.2,10.1s13.3,1.6,15.2-10.1c1.9-11.7,10.2-40.9,10.2-40.9s17.1-21.9,17.1-41.9
								C564.6,431.5,554.7,415.7,554.7,396z"/>
							<path fill="#DE5427" d="M541.4,394.1c9.5,0,13.3,1.9,13.3,1.9c0,19.7,9.8,35.5,9.8,35.5c0,20-17.1,41.9-17.1,41.9
								s-8.3,29.2-10.2,40.9c-1.9,11.7-15.2,10.1-15.2,10.1v-90.4v-37.1C522,396.9,531.9,394.1,541.4,394.1z"/>
							<path fill="#DE5427" d="M554.7,396c0,0,18.7-8.6,27.6-6.3c8.9,2.2,28.9,45.2,27.9,50.2c-1,5-24.7-15.9-27.8-15.9
								s-17.9,7.6-17.9,7.6S554.7,420.7,554.7,396z"/>
							<path fill="#A93E19" d="M580.1,401.1c3.8,0.3,19.3,22.2,28.5,39.5c-5.6-1.1-23.5-16.6-26.1-16.6c-3,0-17.9,7.6-17.9,7.6
								s-1.3-0.4-2.9-6c-1.8-6.2,0.5-12.9,5.6-16.8C572.3,404.9,578.1,400.9,580.1,401.1z"/>
							<path fill="#F15A2B" d="M522,413.1c-6.5,0-20.7,42.6-20.7,77.5c0,38.8,20.7,33.9,20.7,33.9s20.7,5.8,20.7-33.9
								C542.8,455.7,528.6,413.1,522,413.1z"/>
							<path fill="#DE5427" d="M522,413.1v111.3c0,0,20.7,5.8,20.7-33.9C542.8,455.7,528.6,413.1,522,413.1z"/>
							<g>
								<path fill="#594A42" d="M522,506.4c-6.3,0-13-0.6-13,7.3c0,3.8,0.8,6.5,1.6,8.4c2.5,2.1,5.6,2.8,8,3h3.4h3.4
									c2.4-0.2,5.5-0.9,8-3c0.8-1.9,1.6-4.6,1.6-8.4C535.1,505.8,528.4,506.4,522,506.4z"/>
								<path fill="#3C312A" d="M519.4,522.1c0,0-0.2-4.4-7.6-7.3c0,0-0.2,2.8,1.1,6l1-2.4C513.8,518.5,516.7,519.2,519.4,522.1z"/>
								<path fill="#3C312A" d="M524.7,522.1c0,0,0.2-4.4,7.6-7.3c0,0,0.2,2.8-1.1,6l-1-2.4C530.3,518.5,527.4,519.2,524.7,522.1z"
									/>
							</g>
							<g>
								<circle fill="#F7941E" cx="501.1" cy="437" r="6.3"/>
								<circle fill="#594A42" cx="501.1" cy="437" r="4.2"/>
								<circle fill="#FFFFFF" cx="498.2" cy="434.2" r="1.6"/>
								<circle fill="#FFFFFF" cx="503.9" cy="439.8" r="1"/>
							</g>
							<path fill="#F15A2B" d="M489.4,396c0,0-18.7-8.6-27.6-6.3c-8.9,2.2-28.9,45.2-27.9,50.2c1,5,24.7-15.9,27.8-15.9
								c3,0,17.9,7.6,17.9,7.6S489.4,420.7,489.4,396z"/>
							<path fill="#A93E19" d="M464,401.1c-3.8,0.3-19.3,22.2-28.5,39.5c5.6-1.1,23.5-16.6,26.1-16.6c3,0,17.9,7.6,17.9,7.6
								s1.2-0.2,2.7-3.1c3.6-6.9,1.4-15.5-5-20C472,404.8,466,400.9,464,401.1z"/>
							<g>
								<circle fill="#F7941E" cx="543" cy="437" r="6.3"/>
								<circle fill="#594A42" cx="543" cy="437" r="4.2"/>
								<circle fill="#FFFFFF" cx="545.9" cy="434.2" r="1.6"/>
								<circle fill="#FFFFFF" cx="540.2" cy="439.8" r="1"/>
							</g>
						</g>
					</g>
				</g>
			</g>
		</g>
		<g>
			<defs>
				<circle id="SVGID_20_" cx="319.8" cy="448.1" r="99.5"/>
			</defs>
			<clipPath id="SVGID_11_">
				<use xlink:href="#SVGID_20_"  overflow="visible"/>
			</clipPath>
			<g clip-path="url(#SVGID_11_)">
				<g>
					<path fill="#917C71" d="M365.7,511.4l-3.3-79.9l-42.5-0.8l-42.5,0.8l-3.3,79.9l-6.8,36.2c0,0,16.3,0,52.6,0s52.6,0,52.6,0
						L365.7,511.4z"/>
					<path fill="#847167" d="M362.4,431.5l3.3,79.9l6.8,36.2c0,0-16.3,0-52.6,0V430.7L362.4,431.5z"/>
					<g>
						<path fill="#9B8579" d="M352.5,396c0,0-3.8-1.9-13.3-1.9c-9.5,0-19.4,2.9-19.4,2.9s-9.8-2.9-19.4-2.9
							c-9.5,0-13.3,1.9-13.3,1.9c0,19.7-9.8,35.5-9.8,35.5c0,20,17.1,41.9,17.1,41.9s8.3,29.2,10.2,40.9
							c1.9,11.7,15.2,10.1,15.2,10.1s13.3,1.6,15.2-10.1c1.9-11.7,10.2-40.9,10.2-40.9s17.1-21.9,17.1-41.9
							C362.4,431.5,352.5,415.7,352.5,396z"/>
						<path fill="#917C71" d="M339.2,394.1c9.5,0,13.3,1.9,13.3,1.9c0,19.7,9.8,35.5,9.8,35.5c0,20-17.1,41.9-17.1,41.9
							s-8.3,29.2-10.2,40.9c-1.9,11.7-15.2,10.1-15.2,10.1v-90.4v-37.1C319.8,396.9,329.7,394.1,339.2,394.1z"/>
						<path fill="#917C71" d="M352.5,396c0,0,18.7-8.6,27.6-6.3c8.9,2.2,28.9,45.2,27.9,50.2c-1,5-24.7-15.9-27.8-15.9
							c-3,0-17.9,7.6-17.9,7.6S352.5,420.7,352.5,396z"/>
						<path fill="#68584F" d="M377.9,401.1c3.8,0.3,19.3,22.2,28.5,39.5c-5.6-1.1-23.5-16.6-26.1-16.6c-3,0-17.9,7.6-17.9,7.6
							s-1.3-0.4-2.9-6c-1.8-6.2,0.5-12.9,5.6-16.8C370.1,404.9,375.9,400.9,377.9,401.1z"/>
						<path fill="#FFFFFF" d="M319.8,413.1c-6.5,0-20.7,42.6-20.7,77.5c0,38.8,20.7,33.9,20.7,33.9s20.7,5.8,20.7-33.9
							C340.6,455.7,326.4,413.1,319.8,413.1z"/>
						<path fill="#F1F2F2" d="M319.8,413.1v111.3c0,0,20.7,5.8,20.7-33.9C340.6,455.7,326.4,413.1,319.8,413.1z"/>
						<g>
							<path fill="#594A42" d="M319.8,506.4c-6.3,0-13-0.6-13,7.3c0,3.8,0.8,6.5,1.6,8.4c2.5,2.1,5.6,2.8,8,3h3.4h3.4
								c2.4-0.2,5.5-0.9,8-3c0.8-1.9,1.6-4.6,1.6-8.4C332.9,505.8,326.2,506.4,319.8,506.4z"/>
							<path fill="#3C312A" d="M317.1,522.1c0,0-0.2-4.4-7.6-7.3c0,0-0.2,2.8,1.1,6l1-2.4C311.6,518.5,314.4,519.2,317.1,522.1z"/>
							<path fill="#3C312A" d="M322.5,522.1c0,0,0.2-4.4,7.6-7.3c0,0,0.2,2.8-1.1,6l-1-2.4C328.1,518.5,325.2,519.2,322.5,522.1z"/>
						</g>
						<g>
							<circle fill="#F7941E" cx="298.9" cy="437" r="6.3"/>
							<circle fill="#594A42" cx="298.9" cy="437" r="4.2"/>
							<circle fill="#FFFFFF" cx="296" cy="434.2" r="1.6"/>
							<circle fill="#FFFFFF" cx="301.7" cy="439.8" r="1"/>
						</g>
						<path fill="#9B8579" d="M287.2,396c0,0-18.7-8.6-27.6-6.3c-8.9,2.2-28.9,45.2-27.9,50.2c1,5,24.7-15.9,27.8-15.9
							c3,0,17.9,7.6,17.9,7.6S287.2,420.7,287.2,396z"/>
						<path fill="#68584F" d="M261.8,401.1c-3.8,0.3-19.3,22.2-28.5,39.5c5.6-1.1,23.5-16.6,26.1-16.6c3,0,17.9,7.6,17.9,7.6
							s1.2-0.2,2.7-3.1c3.6-6.9,1.4-15.5-5-20C269.8,404.8,263.8,400.9,261.8,401.1z"/>
						<g>
							<circle fill="#F7941E" cx="340.8" cy="437" r="6.3"/>
							<circle fill="#594A42" cx="340.8" cy="437" r="4.2"/>
							<circle fill="#FFFFFF" cx="343.7" cy="434.2" r="1.6"/>
							<circle fill="#FFFFFF" cx="338" cy="439.8" r="1"/>
						</g>
					</g>
				</g>
				<g>
					<path opacity="0.5" fill="#FFFFFF" d="M328.6,432.7c0,0,1.9-6.2,12.7-8.3c10.7-2,18,2.3,19.4,6.4c1.3,4.1,1.4,14.1-3.9,18.7
						s-16.4,6.2-23.5,0S328,434,328.6,432.7z"/>
					<path opacity="0.5" fill="#FFFFFF" d="M311.1,432.7c0,0-1.9-6.2-12.7-8.3c-10.7-2-18,2.3-19.4,6.4c-1.3,4.1-1.4,14.1,3.9,18.7
						s16.4,6.2,23.5,0C313.5,443.4,311.7,434,311.1,432.7z"/>
					<path fill="#4E4F51" d="M366.6,429.5c-0.8-0.2-1.8-0.5-2.8-1.1c-2.3-1.4-7-5.4-14.6-6s-13.7,1.2-16.2,2.7
						c-2.5,1.5-6.7,2.7-13.2,2.7c-6.5,0-10.7-1.2-13.2-2.7c-2.5-1.5-8.5-3.3-16.2-2.7s-12.3,4.6-14.6,6c-0.9,0.6-1.9,0.9-2.8,1.1
						c-1.2,0.3-2.1,1.3-2.1,2.6v0.9c0,0.8,0.6,1.6,1.5,1.7c1.5,0.2,2.7,1.3,2.9,2.8c0.5,2.7,1.7,7.2,4.6,11.4
						c4.5,6.6,18,9.5,26.8,2.8c5.9-4.5,7.6-11.5,8.2-15.7c0.3-2.5,2.4-4.4,4.9-4.4c0,0,0,0,0,0c0,0,0,0,0,0c2.5,0,4.6,1.9,4.9,4.4
						c0.5,4.2,2.3,11.2,8.2,15.7c8.8,6.7,22.3,3.8,26.8-2.8c2.9-4.2,4.1-8.7,4.6-11.4c0.3-1.5,1.4-2.6,2.9-2.8
						c0.8-0.1,1.5-0.8,1.5-1.7v-0.9C368.7,430.8,367.8,429.7,366.6,429.5z M306.5,449.5c-7.1,6.2-18.2,4.7-23.5,0
						c-5.3-4.7-5.3-14.6-3.9-18.7c1.3-4.1,8.7-8.4,19.4-6.4c10.7,2,12.7,8.3,12.7,8.3C311.7,434,313.5,443.4,306.5,449.5z
						 M356.7,449.5c-5.3,4.7-16.4,6.2-23.5,0s-5.3-15.6-4.6-16.9c0,0,1.9-6.2,12.7-8.3c10.7-2,18,2.3,19.4,6.4
						C362,435,362,444.9,356.7,449.5z"/>
				</g>
			</g>
		</g>
		<g>
			<defs>
				<circle id="SVGID_22_" cx="117.6" cy="448.1" r="99.5"/>
			</defs>
			<clipPath id="SVGID_13_">
				<use xlink:href="#SVGID_22_"  overflow="visible"/>
			</clipPath>
			<g clip-path="url(#SVGID_13_)">
				<path fill="#4E4F51" d="M163.4,511.4l-3.3-79.9l-42.5-0.8l-42.5,0.8l-3.3,79.9l-6.8,36.2c0,0,16.3,0,52.6,0s52.6,0,52.6,0
					L163.4,511.4z"/>
				<path fill="#46484A" d="M160.2,431.5l3.3,79.9l6.8,36.2c0,0-16.3,0-52.6,0V430.7L160.2,431.5z"/>
				<g>
					<g>
						<path fill="#ED1C24" d="M72.2,502.6l-0.3,8.2c0,0,6,13.7,45.8,13.7v7c0,0-43.1,0.9-49.2-14.4C64,505.9,72.2,502.6,72.2,502.6z
							"/>
						<path fill="#ED1C24" d="M163.1,502.6l0.3,8.2c0,0-6,13.7-45.8,13.7v7c0,0,43.1,0.9,49.2-14.4
							C171.2,505.9,163.1,502.6,163.1,502.6z"/>
					</g>
					<path fill="#BE1E2D" d="M153.4,527c-0.8-1.5-1.3-2.4-1.3-2.4s1.7-3,3.5-6.9c-6.5,3.4-17.9,6.9-37.9,6.9
						c-20,0-31.4-3.5-37.9-6.9c1.8,3.9,3.5,6.9,3.5,6.9s-0.5,0.9-1.3,2.4c14.4,4.8,34.7,4.5,35.7,4.5
						C118.7,531.5,139,531.8,153.4,527z"/>
					<g>
						<path fill="#ED1C24" d="M152.6,503.2c-5.5-3.7-33.2,13.3-35,14.4c-1.8-1.1-29.5-18.1-35-14.4c-2.7,1.8-1.8,6.6-0.2,11.2
							c2.3,6.6,2.3,13.8,0,20.4c-1.6,4.6-2.5,9.4,0.2,11.2c5.5,3.7,33.2-13.3,35-14.4c1.8,1.1,29.5,18.1,35,14.4
							c2.7-1.8,1.8-6.6,0.2-11.2c-2.3-6.6-2.3-13.8,0-20.4C154.4,509.7,155.3,504.9,152.6,503.2z"/>
						<g>
							<g>
								<path fill="#BE1E2D" d="M117.6,524.6c0,0,23.7-9.4,25.4-6.8C145.3,521.2,117.6,524.6,117.6,524.6z"/>
								<path fill="#BE1E2D" d="M117.6,524.6c0,0-23.7-9.4-25.4-6.8C89.9,521.2,117.6,524.6,117.6,524.6z"/>
							</g>
							<g>
								<path fill="#BE1E2D" d="M117.6,524.6c0,0-23.7,9.4-25.4,6.8C89.9,528,117.6,524.6,117.6,524.6z"/>
								<path fill="#BE1E2D" d="M117.6,524.6c0,0,23.7,9.4,25.4,6.8C145.3,528,117.6,524.6,117.6,524.6z"/>
							</g>
						</g>
						<path fill="#ED1C24" d="M106.8,513.2c-3.5,7.6-3.5,15.1,0,22.7c6.9,3.8,13.9,3.8,20.8,0c3.5-7.6,3.5-15.1,0-22.7
							C120.7,509.4,113.8,509.4,106.8,513.2z"/>
					</g>
				</g>
				<g>
					<path fill="#59595C" d="M150.3,396c0,0-3.8-1.9-13.3-1.9c-9.5,0-19.4,2.9-19.4,2.9s-9.8-2.9-19.4-2.9c-9.5,0-13.3,1.9-13.3,1.9
						c0,19.7-9.8,35.5-9.8,35.5c0,20,17.1,41.9,17.1,41.9s8.3,29.2,10.2,40.9c1.9,11.7,15.2,10.1,15.2,10.1s13.3,1.6,15.2-10.1
						c1.9-11.7,10.2-40.9,10.2-40.9s17.1-21.9,17.1-41.9C160.2,431.5,150.3,415.7,150.3,396z"/>
					<path fill="#4E4F51" d="M137,394.1c9.5,0,13.3,1.9,13.3,1.9c0,19.7,9.8,35.5,9.8,35.5c0,20-17.1,41.9-17.1,41.9
						s-8.3,29.2-10.2,40.9c-1.9,11.7-15.2,10.1-15.2,10.1v-90.4v-37.1C117.6,396.9,127.5,394.1,137,394.1z"/>
					<path fill="#4E4F51" d="M150.3,396c0,0,18.7-8.6,27.6-6.3c8.9,2.2,28.9,45.2,27.9,50.2c-1,5-24.7-15.9-27.8-15.9
						c-3,0-17.9,7.6-17.9,7.6S150.3,420.7,150.3,396z"/>
					<path fill="#221E1F" d="M175.7,401.1c3.8,0.3,19.3,22.2,28.5,39.5c-5.6-1.1-23.5-16.6-26.1-16.6c-3,0-17.9,7.6-17.9,7.6
						s-1.3-0.4-2.9-6c-1.8-6.2,0.5-12.9,5.6-16.8C167.8,404.9,173.7,400.9,175.7,401.1z"/>
					<path fill="#59595C" d="M117.6,413.1c-6.5,0-20.7,42.6-20.7,77.5c0,38.8,20.7,33.9,20.7,33.9s20.7,5.8,20.7-33.9
						C138.4,455.7,124.1,413.1,117.6,413.1z"/>
					<path fill="#4E4F51" d="M117.6,413.1v111.3c0,0,20.7,5.8,20.7-33.9C138.4,455.7,124.1,413.1,117.6,413.1z"/>
					<g>
						<path fill="#221E1F" d="M117.6,506.4c-6.3,0-13-0.6-13,7.3c0,3.8,0.8,6.5,1.6,8.4c2.5,2.1,5.6,2.8,8,3h3.4h3.4
							c2.4-0.2,5.5-0.9,8-3c0.8-1.9,1.6-4.6,1.6-8.4C130.6,505.8,124,506.4,117.6,506.4z"/>
						<path fill="#120D0F" d="M114.9,522.1c0,0-0.2-4.4-7.6-7.3c0,0-0.2,2.8,1.1,6l1-2.4C109.4,518.5,112.2,519.2,114.9,522.1z"/>
						<path fill="#120D0F" d="M120.3,522.1c0,0,0.2-4.4,7.6-7.3c0,0,0.2,2.8-1.1,6l-1-2.4C125.9,518.5,123,519.2,120.3,522.1z"/>
					</g>
					<g>
						<circle fill="#F7941E" cx="96.7" cy="437" r="6.3"/>
						<circle fill="#594A42" cx="96.7" cy="437" r="4.2"/>
						<circle fill="#FFFFFF" cx="93.8" cy="434.2" r="1.6"/>
						<circle fill="#FFFFFF" cx="99.5" cy="439.8" r="1"/>
					</g>
					<path fill="#59595C" d="M84.9,396c0,0-18.7-8.6-27.6-6.3c-8.9,2.2-28.9,45.2-27.9,50.2c1,5,24.7-15.9,27.8-15.9
						c3,0,17.9,7.6,17.9,7.6S84.9,420.7,84.9,396z"/>
					<path fill="#221E1F" d="M59.6,401.1c-3.8,0.3-19.3,22.2-28.5,39.5c5.6-1.1,23.5-16.6,26.1-16.6c3,0,17.9,7.6,17.9,7.6
						s1.2-0.2,2.7-3.1c3.6-6.9,1.4-15.5-5-20C67.6,404.8,61.6,400.9,59.6,401.1z"/>
					<g>
						<circle fill="#F7941E" cx="138.6" cy="437" r="6.3"/>
						<circle fill="#594A42" cx="138.6" cy="437" r="4.2"/>
						<circle fill="#FFFFFF" cx="141.5" cy="434.2" r="1.6"/>
						<circle fill="#FFFFFF" cx="135.8" cy="439.8" r="1"/>
					</g>
				</g>
			</g>
		</g>
	</g>
</g>
</svg>
