<svg xmlns="http://www.w3.org/2000/svg" viewBox="0 0 210 130"><defs><style>.cls-1{isolation:isolate;}.cls-2{opacity:0.15;mix-blend-mode:multiply;}.cls-3{fill:#d94e43;}.cls-4{fill:#fff;}.cls-5{fill:#ffb980;}</style></defs><title>first-bank-card</title><g class="cls-1"><g id="First_Bank_Card" data-name="First Bank Card"><g class="cls-2"><rect x="11" y="9.5" width="196" height="119" rx="5.33333" ry="5.33333"/></g><rect class="cls-3" x="7" y="5.5" width="196" height="119" rx="5.33333" ry="5.33333"/><path class="cls-4" d="M32.37947,111.71419H31.211v-2.22461H25.06453l5.73-8.66015h1.56885l.01611,7.50781h1.37647v1.15234H32.37947Zm-5.33008-3.377H31.211v-6.291Z"/><path class="cls-4" d="M35.78426,111.71419l4.29-9.71582H34.984v-1.12011h6.835l-4.78613,10.83593Z"/><path class="cls-4" d="M44.76082,101.96615H43.192v-.97657l2.689-.28808v11.01269H44.76082Z"/><path class="cls-4" d="M54.45857,109.681a3.756,3.756,0,0,1-.78418,1.15332A3.5264,3.5264,0,0,1,51.08113,111.89a3.56635,3.56635,0,0,1-2.59326-1.06445,3.61446,3.61446,0,0,1-.25586-4.85742l4.25781-5.13867h1.47266l-3.32959,4.00195.32031-.208a4.09064,4.09064,0,0,1,2.67285,1.00879,3.34271,3.34271,0,0,1,1.12061,2.59277A3.58657,3.58657,0,0,1,54.45857,109.681Zm-4.33789-3.70508a2.76024,2.76024,0,0,0-.8164.53613,2.322,2.322,0,0,0-.752,1.74512,2.38479,2.38479,0,0,0,.752,1.76856,2.4819,2.4819,0,0,0,1.793.74414,2.41443,2.41443,0,0,0,1.77685-.72071,2.3829,2.3829,0,0,0,.73584-1.74414,2.45649,2.45649,0,0,0-.728-1.77734,2.39545,2.39545,0,0,0-1.77685-.75195A2.4544,2.4544,0,0,0,50.12068,105.97591Z"/><path class="cls-4" d="M67.39314,109.96126a9.23151,9.23151,0,0,1,0-7.41113,3.17358,3.17358,0,0,1,5.81055,0,9.23674,9.23674,0,0,1,0,7.41113,3.17292,3.17292,0,0,1-5.81055,0Zm2.84912-8.10742a1.793,1.793,0,0,0-.92822.23242,2.22938,2.22938,0,0,0-.67236.61621,3.48238,3.48238,0,0,0-.45606.86426,6.377,6.377,0,0,0-.27246.96875,8.03225,8.03225,0,0,0-.17578,1.5q0,.605.04,1.06934a9.19747,9.19747,0,0,0,.13574.96,5.60349,5.60349,0,0,0,.28028.96875,3.59312,3.59312,0,0,0,.46435.84765,1.936,1.936,0,0,0,1.62451.84083,1.82568,1.82568,0,0,0,1.5127-.84864,5.67917,5.67917,0,0,0,.92041-2.77734,7.773,7.773,0,0,0,.04785-.792,7.98525,7.98525,0,0,0-.46435-2.7295,2.74984,2.74984,0,0,0-1.12842-1.48046A1.74125,1.74125,0,0,0,70.24226,101.85384Z"/><path class="cls-4" d="M76.46492,110.98568a2.99965,2.99965,0,0,1-1.04834-2.377,2.92651,2.92651,0,0,1,.47217-1.56054,3.55091,3.55091,0,0,1,1.35254-1.24024A3.04477,3.04477,0,0,1,75.9449,103.471a2.63664,2.63664,0,0,1,.88819-2.04883,3.40017,3.40017,0,0,1,4.30615,0,2.64651,2.64651,0,0,1,.88818,2.05762,3.0384,3.0384,0,0,1-1.29639,2.32812,3.55091,3.55091,0,0,1,1.35254,1.24024,2.8904,2.8904,0,0,1,.47217,1.53711,3.2216,3.2216,0,0,1-.28027,1.376,3.03927,3.03927,0,0,1-.76807,1.02442,4.02083,4.02083,0,0,1-5.04248,0Zm.88037-4.15332a2.14541,2.14541,0,0,0-.66406,1.60058,2.29243,2.29243,0,0,0,.65625,1.63282,2.31828,2.31828,0,0,0,3.29736,0,2.29243,2.29243,0,0,0,.65625-1.63282,2.14723,2.14723,0,0,0-.66406-1.60058,2.37952,2.37952,0,0,0-3.28174,0Zm.3125-4.56153a1.70536,1.70536,0,0,0-.56054,1.2959,1.88917,1.88917,0,0,0,3.77783,0,1.70533,1.70533,0,0,0-.56055-1.2959,1.97724,1.97724,0,0,0-2.65674,0Z"/><path class="cls-4" d="M90.66756,109.681a3.75631,3.75631,0,0,1-.78418,1.15332A3.52641,3.52641,0,0,1,87.29012,111.89a3.56636,3.56636,0,0,1-2.59327-1.06445,3.61447,3.61447,0,0,1-.25585-4.85742l4.25781-5.13867h1.47265l-3.32959,4.00195.32032-.208a4.09066,4.09066,0,0,1,2.67285,1.00879,3.34271,3.34271,0,0,1,1.1206,2.59277A3.58674,3.58674,0,0,1,90.66756,109.681Zm-4.33789-3.70508a2.76029,2.76029,0,0,0-.81641.53613,2.32205,2.32205,0,0,0-.752,1.74512,2.38482,2.38482,0,0,0,.752,1.76856,2.4819,2.4819,0,0,0,1.793.74414,2.41446,2.41446,0,0,0,1.77686-.72071,2.38289,2.38289,0,0,0,.73583-1.74414,2.45648,2.45648,0,0,0-.728-1.77734,2.39547,2.39547,0,0,0-1.77686-.75195A2.45436,2.45436,0,0,0,86.32967,105.97591Z"/><path class="cls-4" d="M95.77156,104.60775a3.42986,3.42986,0,0,1,1.35889.27929,3.77757,3.77757,0,0,1,1.15283.76075,3.39851,3.39851,0,0,1,1.05615,2.54492,3.598,3.598,0,0,1-1.07226,2.61719,3.5462,3.5462,0,0,1-2.625,1.09668,3.67672,3.67672,0,0,1-2.1211-.665,3.51249,3.51249,0,0,1-1.35254-1.73633l1.08838-.35156a2.43193,2.43193,0,0,0,.92871,1.168,2.32451,2.32451,0,0,0,1.32032.44825,2.59574,2.59574,0,0,0,1.92871-.73633,2.33948,2.33948,0,0,0,.75244-1.76074,2.49751,2.49751,0,0,0-.73633-1.77637,2.25835,2.25835,0,0,0-1.6875-.75293,2.69653,2.69653,0,0,0-1.65771.51269l-1.2168-.54394,1.24853-4.88281h4.78614v1.12109h-3.9375l-.73633,2.91309A5.119,5.119,0,0,1,95.77156,104.60775Z"/><path class="cls-4" d="M110.505,111.71419l4.29-9.71582h-5.09033v-1.12011h6.835l-4.78613,10.83593Z"/><path class="cls-4" d="M118.39266,111.71419l4.29-9.71582h-5.09033v-1.12011h6.835l-4.78613,10.83593Z"/><path class="cls-4" d="M131.16267,106.03158a2.39174,2.39174,0,0,0,.72022-1.76075,2.352,2.352,0,0,0-.74414-1.74414,2.45968,2.45968,0,0,0-1.78467-.7207,2.39361,2.39361,0,0,0-1.81689.80078,2.30535,2.30535,0,0,0-.68018,1.84082h-1.13623a3.45038,3.45038,0,0,1,1.01611-2.67383,3.72048,3.72048,0,0,1,5.26612-.05566,3.594,3.594,0,0,1,.02392,5.11426l-3.79345,3.76172h4.96191v1.12011h-7.667Z"/><path class="cls-4" d="M136.04842,110.98568a2.99965,2.99965,0,0,1-1.04834-2.377,2.92642,2.92642,0,0,1,.47217-1.56054,3.551,3.551,0,0,1,1.35253-1.24024,3.04478,3.04478,0,0,1-1.29638-2.33691,2.635,2.635,0,0,1,.88818-2.04883,3.40017,3.40017,0,0,1,4.30615,0,2.64608,2.64608,0,0,1,.8877,2.05762,3.03773,3.03773,0,0,1-1.2959,2.32812,3.55456,3.55456,0,0,1,1.35254,1.24024,2.88977,2.88977,0,0,1,.47168,1.53711,3.2216,3.2216,0,0,1-.28027,1.376,3.03808,3.03808,0,0,1-.76758,1.02442,4.02083,4.02083,0,0,1-5.04248,0Zm.88037-4.15332a2.14541,2.14541,0,0,0-.66406,1.60058,2.29243,2.29243,0,0,0,.65625,1.63282,2.3177,2.3177,0,0,0,3.29687,0,2.29243,2.29243,0,0,0,.65625-1.63282,2.14359,2.14359,0,0,0-.66406-1.60058,2.37891,2.37891,0,0,0-3.28125,0Zm.3125-4.56153a1.70533,1.70533,0,0,0-.56055,1.2959,1.88892,1.88892,0,0,0,3.77735,0,1.70492,1.70492,0,0,0-.56006-1.2959,1.97724,1.97724,0,0,0-2.65674,0Z"/><path class="cls-4" d="M153.64168,111.71419l4.28906-9.71582H152.8409v-1.12011h6.835l-4.78613,10.83593Z"/><path class="cls-4" d="M166.41121,106.03158a2.39216,2.39216,0,0,0,.7207-1.76075,2.35192,2.35192,0,0,0-.74414-1.74414,2.46156,2.46156,0,0,0-1.78515-.7207,2.39333,2.39333,0,0,0-1.81641.80078,2.30575,2.30575,0,0,0-.68066,1.84082H160.9698a3.45174,3.45174,0,0,1,1.01563-2.67383,3.72106,3.72106,0,0,1,5.2666-.05566,3.59456,3.59456,0,0,1,.02344,5.11426l-3.793,3.76172h4.96191v1.12011h-7.667Z"/><path class="cls-4" d="M176.25105,106.03158a2.39217,2.39217,0,0,0,.72071-1.76075,2.352,2.352,0,0,0-.74414-1.74414,2.4616,2.4616,0,0,0-1.78516-.7207,2.39336,2.39336,0,0,0-1.81641.80078,2.30582,2.30582,0,0,0-.68066,1.84082h-1.13574a3.4517,3.4517,0,0,1,1.01562-2.67383,3.72106,3.72106,0,0,1,5.2666-.05566,3.59456,3.59456,0,0,1,.02344,5.11426l-3.793,3.76172h4.96192v1.12011h-7.667Z"/><path class="cls-4" d="M186.92391,109.681a3.76492,3.76492,0,0,1-.78418,1.15332A3.5283,3.5283,0,0,1,183.546,111.89a3.56605,3.56605,0,0,1-2.59278-1.06445,3.61449,3.61449,0,0,1-.25586-4.85742l4.25782-5.13867h1.47265l-3.33008,4.00195.32032-.208a4.08965,4.08965,0,0,1,2.67285,1.00879,3.34312,3.34312,0,0,1,1.12109,2.59277A3.5949,3.5949,0,0,1,186.92391,109.681Zm-4.3379-3.70508a2.75394,2.75394,0,0,0-.8164.53613,2.3203,2.3203,0,0,0-.75195,1.74512,2.383,2.383,0,0,0,.75195,1.76856,2.4819,2.4819,0,0,0,1.793.74414,2.41331,2.41331,0,0,0,1.77636-.72071,2.38146,2.38146,0,0,0,.73633-1.74414,2.45694,2.45694,0,0,0-.72851-1.77734,2.3944,2.3944,0,0,0-1.77637-.75195A2.45444,2.45444,0,0,0,182.586,105.97591Z"/><rect class="cls-5" x="23.12369" y="65.86728" width="7.82104" height="4.30707"/><path class="cls-5" d="M23.13907,71.90891a5.98268,5.98268,0,0,0,5.95337,5.6665h1.85229v-5.6665Z"/><rect class="cls-5" x="23.12369" y="59.82559" width="7.82104" height="4.30713"/><path class="cls-5" d="M30.94473,58.091V52.42459H29.09244A5.98258,5.98258,0,0,0,23.13907,58.091Z"/><path class="cls-5" d="M44.90756,52.42459H32.67929V77.57541h8.54889V59.22708h9.64813v-.83374A5.98626,5.98626,0,0,0,44.90756,52.42459Z"/><rect class="cls-5" x="42.96274" y="60.96164" width="7.91357" height="4.30707"/><path class="cls-5" d="M42.96274,73.04489v4.53052h1.94482a5.98708,5.98708,0,0,0,5.785-4.53052Z"/><rect class="cls-5" x="42.96274" y="67.00327" width="7.91357" height="4.30713"/><path class="cls-4" d="M86.72176,28.514v5.46093H83.72127V20.3724H91.6031v2.7207H86.72176v2.70019h4.68115V28.514Z"/><path class="cls-4" d="M93.80135,33.97493V20.3724h3.00049V33.97493Z"/><path class="cls-4" d="M102.20125,33.97493H99.20076V20.3724h5.10108a4.21752,4.21752,0,0,1,4.16113,4.36035,4.13578,4.13578,0,0,1-3.10108,4.24121l3.90088,5.001H105.462l-3.24072-4.86132h-.02Zm0-11.24218v4.02051h1.60059a1.876,1.876,0,0,0,1.80029-2.02051,1.89477,1.89477,0,0,0-1.80029-2Z"/><path class="cls-4" d="M117.92244,30.25423c0-2.64062-7.86182-.94043-7.86182-5.96094,0-2.80078,2.60059-4.12109,5.08106-4.12109,2.80078,0,5.32129,1.24023,5.42139,4.34082h-2.9004c-.16015-1.41992-.98046-1.88086-2.481-1.88086-.83985,0-2.02.40039-2.02,1.4209,0,2.41992,7.86133.67969,7.86133,5.86133,0,3.20019-2.86036,4.38086-5.64112,4.38086-3.00049,0-5.74121-1.48047-5.76123-4.80176h3.04053c.08008,1.62109,1.36035,2.36133,2.84082,2.36133C116.442,31.85482,117.92244,31.474,117.92244,30.25423Z"/><path class="cls-4" d="M128.60213,33.97493h-3.00049V23.0931h-3.88086V20.3724H132.483v2.7207h-3.88086Z"/><path class="cls-4" d="M144.28133,33.97493h-5.501V20.3724H143.461a3.49487,3.49487,0,0,1,3.80079,3.40039,2.95737,2.95737,0,0,1-1.62012,2.88086,3.44117,3.44117,0,0,1,2.76074,3.42089C148.40242,32.41439,146.88191,33.97493,144.28133,33.97493Zm-1.46-11.24218h-1.041V25.8929h1.041a1.58008,1.58008,0,0,0,0-3.16015Zm.85937,5.62109h-1.90039v3.28027h1.90039a1.64027,1.64027,0,1,0,0-3.28027Z"/><path class="cls-4" d="M159.06258,33.97493l-.98047-2.74023h-5.18164l-.97949,2.74023h-3.22071l5.52051-13.60253h2.541l5.52148,13.60253Zm-3.58106-10.042-1.7207,4.84082h3.44141Z"/><path class="cls-4" d="M171.2618,33.97493l-4.68164-8.48144v8.48144h-3V20.3724h3l4.68164,8.48144V20.3724h3V33.97493Z"/><path class="cls-4" d="M179.66023,33.97493h-3V20.3724h3v6.08105L183.962,20.3724h3.83985l-5.22071,6.80078,5.4209,6.80175h-4.04l-4.30176-6.08105Z"/></g></g></svg>