<svg xmlns="http://www.w3.org/2000/svg" xmlns:xlink="http://www.w3.org/1999/xlink" viewBox="0 0 210 130"><defs><style>.cls-1{isolation:isolate;}.cls-2{opacity:0.15;mix-blend-mode:multiply;}.cls-3{fill:url(#linear-gradient);}.cls-4{fill:#fff;}.cls-5{fill:#ebebeb;}</style><linearGradient id="linear-gradient" x1="35.84602" y1="6.22896" x2="181.98061" y2="130.42256" gradientUnits="userSpaceOnUse"><stop offset="0" stop-color="#5c26d8"/><stop offset="0.7256" stop-color="#b11dd9"/><stop offset="0.99979" stop-color="#d31ad9"/></linearGradient></defs><title>vip-card</title><g class="cls-1"><g id="VIP_Card" data-name="VIP Card"><g class="cls-2"><rect x="11" y="9.5" width="196" height="119" rx="5.33333" ry="5.33333"/></g><rect class="cls-3" x="7" y="5.5" width="196" height="119" rx="5.33333" ry="5.33333"/><path class="cls-4" d="M29.72615,111.71365H28.55769V109.489H22.41121l5.73-8.66015H29.71l.01611,7.50781h1.37647V109.489H29.72615Zm-5.33008-3.377h4.16162v-6.291Z"/><path class="cls-4" d="M36.23836,104.60721a3.42986,3.42986,0,0,1,1.35889.27929,3.78361,3.78361,0,0,1,1.15283.76075,3.39851,3.39851,0,0,1,1.05615,2.54492,3.59793,3.59793,0,0,1-1.07227,2.61718,3.54613,3.54613,0,0,1-2.625,1.09668,3.67675,3.67675,0,0,1-2.12109-.665,3.51249,3.51249,0,0,1-1.35254-1.73633l1.08838-.35157a2.4319,2.4319,0,0,0,.92871,1.168,2.32448,2.32448,0,0,0,1.32031.44825,2.5957,2.5957,0,0,0,1.92871-.73633,2.33946,2.33946,0,0,0,.75245-1.76074,2.49751,2.49751,0,0,0-.73633-1.77637,2.25838,2.25838,0,0,0-1.6875-.75293,2.69656,2.69656,0,0,0-1.65772.51269l-1.21679-.54394,1.24853-4.88281h4.78613V101.95h-3.9375l-.73632,2.91309A5.119,5.119,0,0,1,36.23836,104.60721Z"/><path class="cls-4" d="M45.02889,111.87381a3.78545,3.78545,0,0,1-2.209-.66406,3.46448,3.46448,0,0,1-1.35254-1.73731l1.08838-.36816a2.36383,2.36383,0,0,0,.92822,1.19238,2.33924,2.33924,0,0,0,1.3125.44043,2.81758,2.81758,0,0,0,1.12061-.2002,2.61227,2.61227,0,0,0,.8081-.53613,2.37776,2.37776,0,0,0,.76075-1.76074,2.54155,2.54155,0,0,0-2.54541-2.52832,2.49424,2.49424,0,0,0-1.82471.76758l-.84814-.68848L45.565,101.95H41.97957v-1.12109H47.838l-3.40967,4.03418.48047-.28809a3.9683,3.9683,0,0,1,2.60107,1.09668A3.59485,3.59485,0,0,1,47.526,110.825a3.7605,3.7605,0,0,1-1.16846.76855A3.40009,3.40009,0,0,1,45.02889,111.87381Z"/><path class="cls-4" d="M49.691,102.86209a3.7517,3.7517,0,0,1,.78417-1.15234,3.52725,3.52725,0,0,1,2.59327-1.05665,3.56636,3.56636,0,0,1,2.59326,1.06446,3.61575,3.61575,0,0,1,.25586,4.8584l-4.25781,5.13769H50.18709l3.32959-4.002-.32031.208a4.09,4.09,0,0,1-2.67286-1.00782,3.34268,3.34268,0,0,1-1.1206-2.59277A3.588,3.588,0,0,1,49.691,102.86209Zm4.33789,3.70508a2.61825,2.61825,0,0,0,.8081-.53614,2.41784,2.41784,0,0,0,.0083-3.51269,2.479,2.479,0,0,0-1.793-.74512,2.41255,2.41255,0,0,0-1.77636.72071,2.38365,2.38365,0,0,0-.73633,1.74511,2.45425,2.45425,0,0,0,.728,1.77637,2.39182,2.39182,0,0,0,1.77685.75195A2.4544,2.4544,0,0,0,54.02889,106.56717Z"/><path class="cls-4" d="M70.49178,111.71365l4.28955-9.71582H69.691v-1.12012h6.835l-4.78614,10.83594Z"/><path class="cls-4" d="M79.46834,101.9656H77.89949V100.989l2.689-.28808v11.01269H79.46834Z"/><path class="cls-4" d="M88.33357,106.031a2.3917,2.3917,0,0,0,.72022-1.76074,2.352,2.352,0,0,0-.74414-1.74414,2.45968,2.45968,0,0,0-1.78467-.7207,2.39361,2.39361,0,0,0-1.81689.80078,2.30535,2.30535,0,0,0-.68018,1.84082H82.89168a3.45035,3.45035,0,0,1,1.01611-2.67383,3.72046,3.72046,0,0,1,5.26612-.05566,3.594,3.594,0,0,1,.02392,5.11426l-3.79346,3.76171h4.96192v1.12012h-7.667Z"/><path class="cls-4" d="M93.9,101.9656H92.33113V100.989l2.689-.28808v11.01269H93.9Z"/><path class="cls-4" d="M114.49373,106.031a2.39169,2.39169,0,0,0,.72021-1.76074,2.35192,2.35192,0,0,0-.74414-1.74414,2.45966,2.45966,0,0,0-1.78466-.7207,2.39361,2.39361,0,0,0-1.8169.80078,2.30531,2.30531,0,0,0-.68017,1.84082h-1.13623a3.45035,3.45035,0,0,1,1.01611-2.67383,3.72044,3.72044,0,0,1,5.26611-.05566,3.594,3.594,0,0,1,.02393,5.11426l-3.79346,3.76171h4.96191v1.12012h-7.667Z"/><path class="cls-4" d="M118.41121,102.86209a3.75155,3.75155,0,0,1,.78418-1.15234,3.52724,3.52724,0,0,1,2.59326-1.05665,3.56635,3.56635,0,0,1,2.59326,1.06446,3.61573,3.61573,0,0,1,.25586,4.8584L120.38,111.71365H118.9073l3.32959-4.002-.32031.208a4.09,4.09,0,0,1-2.67285-1.00782,3.34269,3.34269,0,0,1-1.12061-2.59277A3.58812,3.58812,0,0,1,118.41121,102.86209Zm4.33789,3.70508a2.61842,2.61842,0,0,0,.80811-.53614,2.41786,2.41786,0,0,0,.0083-3.51269,2.479,2.479,0,0,0-1.793-.74512,2.41446,2.41446,0,0,0-1.77686.72071,2.38506,2.38506,0,0,0-.73584,1.74511,2.45429,2.45429,0,0,0,.728,1.77637,2.39184,2.39184,0,0,0,1.77686.75195A2.45436,2.45436,0,0,0,122.7491,106.56717Z"/><path class="cls-4" d="M130.2701,104.60721a3.42981,3.42981,0,0,1,1.35888.27929,3.77773,3.77773,0,0,1,1.15284.76075,3.39851,3.39851,0,0,1,1.05615,2.54492,3.59793,3.59793,0,0,1-1.07227,2.61718,3.54616,3.54616,0,0,1-2.625,1.09668,3.67675,3.67675,0,0,1-2.12109-.665,3.51249,3.51249,0,0,1-1.35254-1.73633l1.08838-.35157a2.4319,2.4319,0,0,0,.92871,1.168,2.32448,2.32448,0,0,0,1.32031.44825,2.5957,2.5957,0,0,0,1.92871-.73633,2.33945,2.33945,0,0,0,.75244-1.76074,2.4975,2.4975,0,0,0-.73632-1.77637,2.25838,2.25838,0,0,0-1.6875-.75293,2.69656,2.69656,0,0,0-1.65772.51269l-1.2168-.54394,1.24854-4.88281H133.422V101.95h-3.9375l-.73633,2.91309A5.1191,5.1191,0,0,1,130.2701,104.60721Z"/><path class="cls-4" d="M139.0699,104.60721a3.42986,3.42986,0,0,1,1.35889.27929,3.77418,3.77418,0,0,1,1.15332.76075,3.39809,3.39809,0,0,1,1.05566,2.54492,3.598,3.598,0,0,1-1.07226,2.61718,3.54538,3.54538,0,0,1-2.625,1.09668,3.67678,3.67678,0,0,1-2.1211-.665,3.51249,3.51249,0,0,1-1.35254-1.73633l1.08838-.35157a2.4319,2.4319,0,0,0,.92871,1.168,2.32451,2.32451,0,0,0,1.32032.44825,2.598,2.598,0,0,0,1.9292-.73633,2.3408,2.3408,0,0,0,.752-1.76074,2.49547,2.49547,0,0,0-.73633-1.77637,2.25835,2.25835,0,0,0-1.6875-.75293,2.69653,2.69653,0,0,0-1.65771.51269l-1.2168-.54394,1.24853-4.88281h4.78614V101.95h-3.9375l-.73633,2.91309A5.119,5.119,0,0,1,139.0699,104.60721Z"/><path class="cls-4" d="M157.10066,111.87381a3.78842,3.78842,0,0,1-2.209-.66406,3.4697,3.4697,0,0,1-1.35254-1.73731l1.08887-.36816a2.36554,2.36554,0,0,0,.92773,1.19238,2.33924,2.33924,0,0,0,1.3125.44043,2.82013,2.82013,0,0,0,1.1211-.2002,2.62033,2.62033,0,0,0,.80859-.53613,2.37864,2.37864,0,0,0,.75976-1.76074,2.54071,2.54071,0,0,0-2.54492-2.52832,2.49608,2.49608,0,0,0-1.82519.76758l-.84766-.68848L157.6368,101.95h-3.585v-1.12109h5.85839l-3.41015,4.03418.48047-.28809a3.96958,3.96958,0,0,1,2.60156,1.09668,3.5954,3.5954,0,0,1,.01562,5.15332,3.75235,3.75235,0,0,1-1.168.76855A3.40238,3.40238,0,0,1,157.10066,111.87381Z"/><path class="cls-4" d="M162.61922,109.96072a9.2314,9.2314,0,0,1,0-7.41113,3.17356,3.17356,0,0,1,5.81054,0,9.2314,9.2314,0,0,1,0,7.41113,3.17291,3.17291,0,0,1-5.81054,0Zm2.84961-8.10742a1.7961,1.7961,0,0,0-.92871.23242,2.22775,2.22775,0,0,0-.67188.61621,3.46586,3.46586,0,0,0-.456.86426,6.26359,6.26359,0,0,0-.27246.96875,8.03153,8.03153,0,0,0-.17579,1.5c0,.40332.0127.75977.04,1.06934a9.066,9.066,0,0,0,.13575.96,5.51727,5.51727,0,0,0,.28027.96875,3.59149,3.59149,0,0,0,.46387.84765,1.93688,1.93688,0,0,0,1.625.84082,1.82692,1.82692,0,0,0,1.51269-.84863,5.6742,5.6742,0,0,0,.91992-2.77734,7.63439,7.63439,0,0,0,.04786-.792,7.985,7.985,0,0,0-.46387-2.7295,2.75286,2.75286,0,0,0-1.12891-1.48047A1.73838,1.73838,0,0,0,165.46883,101.8533Z"/><path class="cls-4" d="M171.69148,110.98514a2.99853,2.99853,0,0,1-1.04882-2.377,2.92716,2.92716,0,0,1,.47265-1.56054,3.54734,3.54734,0,0,1,1.35254-1.24024,3.04542,3.04542,0,0,1-1.29687-2.33691,2.637,2.637,0,0,1,.88867-2.04883,3.39945,3.39945,0,0,1,4.30566,0,2.64689,2.64689,0,0,1,.88867,2.05762,3.03906,3.03906,0,0,1-1.29687,2.32812,3.54742,3.54742,0,0,1,1.35254,1.24024,2.89119,2.89119,0,0,1,.47265,1.53711,3.2216,3.2216,0,0,1-.28027,1.376,3.04057,3.04057,0,0,1-.76855,1.02442,4.02015,4.02015,0,0,1-5.042,0Zm.87989-4.15332a2.1472,2.1472,0,0,0-.66407,1.60058,2.29239,2.29239,0,0,0,.65625,1.63281,2.31886,2.31886,0,0,0,3.29786,0,2.29239,2.29239,0,0,0,.65625-1.63281,2.1472,2.1472,0,0,0-.66407-1.60058,2.38012,2.38012,0,0,0-3.28222,0Zm.3125-4.56153a1.707,1.707,0,0,0-.56055,1.2959,1.88941,1.88941,0,0,0,3.77832,0,1.707,1.707,0,0,0-.56055-1.2959,1.97786,1.97786,0,0,0-2.65722,0Z"/><path class="cls-4" d="M179.13875,102.86209a3.76014,3.76014,0,0,1,.78418-1.15234,3.52911,3.52911,0,0,1,2.59375-1.05665,3.56605,3.56605,0,0,1,2.59277,1.06446,3.61573,3.61573,0,0,1,.25586,4.8584l-4.25781,5.13769h-1.47266l3.33008-4.002-.32031.208a4.089,4.089,0,0,1-2.67285-1.00782,3.3431,3.3431,0,0,1-1.1211-2.59277A3.59612,3.59612,0,0,1,179.13875,102.86209Zm4.33789,3.70508a2.62053,2.62053,0,0,0,.80859-.53614,2.41839,2.41839,0,0,0,.00782-3.51269,2.479,2.479,0,0,0-1.793-.74512,2.41335,2.41335,0,0,0-1.77637.72071,2.38365,2.38365,0,0,0-.73633,1.74511,2.45475,2.45475,0,0,0,.72852,1.77637,2.39077,2.39077,0,0,0,1.77636.75195A2.4544,2.4544,0,0,0,183.47664,106.56717Z"/><rect class="cls-5" x="22.79035" y="65.86728" width="7.82104" height="4.30707"/><path class="cls-5" d="M22.80574,71.90891a5.98267,5.98267,0,0,0,5.95336,5.6665h1.8523v-5.6665Z"/><rect class="cls-5" x="22.79035" y="59.82559" width="7.82104" height="4.30713"/><path class="cls-5" d="M30.6114,58.091V52.42459H28.7591A5.98258,5.98258,0,0,0,22.80574,58.091Z"/><path class="cls-5" d="M44.57423,52.42459H32.346V77.57541h8.54889V59.22708H50.543v-.83374A5.98626,5.98626,0,0,0,44.57423,52.42459Z"/><rect class="cls-5" x="42.6294" y="60.96164" width="7.91357" height="4.30707"/><path class="cls-5" d="M42.6294,73.04489v4.53052h1.94483a5.98706,5.98706,0,0,0,5.785-4.53052Z"/><rect class="cls-5" x="42.6294" y="67.00327" width="7.91357" height="4.30713"/><path class="cls-4" d="M54.2491,33.97488H51.66853l-5.501-13.60254h3.24072l2.80029,7.6416.74024,2.13965.74023-2.13965,2.8208-7.6416h3.24073Z"/><path class="cls-4" d="M61.04744,33.97488V20.37234h3.00049V33.97488Z"/><path class="cls-4" d="M69.44783,33.97488H66.44734V20.37234h5.10108a4.21752,4.21752,0,0,1,4.16113,4.36035,4.127,4.127,0,0,1-4.16113,4.38086H69.44783Zm0-11.24219V26.7532h1.60059a1.876,1.876,0,0,0,1.80029-2.02051,1.89478,1.89478,0,0,0-1.80029-2Z"/><path class="cls-4" d="M95.37019,29.35379a7.01174,7.01174,0,1,1-.02-4.40039H92.00935a3.63748,3.63748,0,0,0-3.30078-1.98047,4.20794,4.20794,0,0,0,0,8.40137,3.718,3.718,0,0,0,3.3208-2.02051Z"/><path class="cls-4" d="M108.00935,20.37234V28.6741c0,3.62012-2.08056,5.501-5.62109,5.501-3.541,0-5.62109-1.88086-5.62109-5.501V20.37234h3.00049v7.86133c0,1.88086.58007,2.94043,2.6206,2.94043,2.06055,0,2.62061-1.05957,2.62061-2.94043V20.37234Z"/><path class="cls-4" d="M117.80867,30.25418c0-2.64063-7.86182-.94043-7.86182-5.96094,0-2.80078,2.60059-4.12109,5.08106-4.12109,2.80078,0,5.32129,1.24023,5.42139,4.34082h-2.90039c-.16016-1.41992-.98047-1.88086-2.481-1.88086-.83985,0-2.02.40039-2.02,1.4209,0,2.41992,7.86133.67968,7.86133,5.86133,0,3.20019-2.86035,4.38085-5.64112,4.38085-3.00048,0-5.74121-1.48046-5.76123-4.80175h3.04053c.08008,1.62109,1.36035,2.36132,2.84082,2.36132C116.3282,31.85476,117.80867,31.47391,117.80867,30.25418Z"/><path class="cls-4" d="M128.48787,33.97488h-3.00049V23.09305h-3.88086V20.37234h10.76221v2.72071h-3.88086Z"/><path class="cls-4" d="M140.16805,34.17508a7.14231,7.14231,0,0,1-7.00147-7.002,7.00171,7.00171,0,0,1,14.00342,0A7.14274,7.14274,0,0,1,140.16805,34.17508Zm0-11.02246a4.14941,4.14941,0,0,0-4.001,4.001,4.001,4.001,0,1,0,8.00195,0A4.1494,4.1494,0,0,0,140.16805,23.15262Z"/><path class="cls-4" d="M162.72957,33.97488,161.129,24.59305l-2.66015,9.38183H155.5284l-2.66114-9.38183-1.5996,9.38183h-3.30079l2.64063-13.60254h3.56055l2.84082,9.542,2.82031-9.542h3.56055l2.64062,13.60254Z"/><path class="cls-4" d="M175.20809,33.97488h-7.88184V20.37234h7.88184v2.72071h-4.88086v2.70019h4.68066v2.7207h-4.68066v2.74024h4.88086Z"/><path class="cls-4" d="M180.6075,33.97488h-3.001V20.37234h5.10157a4.217,4.217,0,0,1,4.16015,4.36035,4.13543,4.13543,0,0,1-3.10058,4.24122l3.90136,5.001h-3.80078L180.627,29.11355h-.01953Zm0-11.24219V26.7532h1.59961a1.87607,1.87607,0,0,0,1.80078-2.02051,1.89484,1.89484,0,0,0-1.80078-2Z"/></g></g></svg>