<svg xmlns="http://www.w3.org/2000/svg" viewBox="0 0 300 300"><defs><style>.cls-1{isolation:isolate;}.cls-2{opacity:0.15;mix-blend-mode:multiply;}.cls-3{fill:#aa54ff;}.cls-4{fill:#fff;}.cls-5{fill:#ffb980;}.cls-6{fill:#f0b048;}.cls-7{fill:#0082ff;}</style></defs><title>card-stack</title><g class="cls-1"><g id="Card_Stack" data-name="Card Stack"><g class="cls-2"><rect x="66.34" y="75.43866" width="258.79031" height="157.12269" rx="5.33333" ry="5.33333" transform="translate(10.37749 320.34538) rotate(-80.1006)"/></g><rect class="cls-3" x="62.34" y="71.43866" width="258.79031" height="157.12269" rx="5.33333" ry="5.33333" transform="translate(11.00561 313.09261) rotate(-80.1006)"/><path class="cls-4" d="M236.01074,255.06836l-.26465,1.51758-2.8916-.50391L231.46,264.07031l-9.95508-9.41211.35645-2.03906,9.75976,1.68262.3125-1.79,1.498.26172-.3125,1.79Zm-5.59863,6.16113.94434-5.40918-8.17676-1.42676Z"/><path class="cls-4" d="M236.78516,250.63281l-11.65528-7.77929-1.15429,6.61523-1.45606-.25391,1.54981-8.88281,12.999,8.67774Z"/><path class="cls-4" d="M226.15234,236.74707l-.35546,2.03809-1.26856-.22071.23438-3.56054,14.31347,2.498-.2539,1.45606Z"/><path class="cls-4" d="M238.38086,225.8877a4.94985,4.94985,0,0,1,1.32031,1.28027,4.65445,4.65445,0,0,1,.78418,3.61035,4.70708,4.70708,0,0,1-1.9707,3.12891,4.77179,4.77179,0,0,1-6.373-.76953l-5.71191-6.69922.334-1.91407,4.44531,5.23536-.19726-.46289a5.40748,5.40748,0,0,1,1.916-3.2461,4.411,4.411,0,0,1,3.625-.86719A4.73232,4.73232,0,0,1,238.38086,225.8877Zm-5.80078,4.79687a3.65194,3.65194,0,0,0,.51269,1.18359,3.0628,3.0628,0,0,0,2.09668,1.37305,3.14793,3.14793,0,0,0,2.46973-.57617,3.27881,3.27881,0,0,0,1.374-2.16113,3.18428,3.18428,0,0,0-.53418-2.47364,3.14278,3.14278,0,0,0-2.10058-1.35254,3.2351,3.2351,0,0,0-2.47364.54395,3.1553,3.1553,0,0,0-1.38085,2.13867A3.24643,3.24643,0,0,0,232.58008,230.68457Z"/><path class="cls-4" d="M241.68164,209.12207a12.17548,12.17548,0,0,1-9.63184-1.68066,4.18649,4.18649,0,0,1,1.31739-7.55176,12.17364,12.17364,0,0,1,9.63183,1.68066,4.18573,4.18573,0,0,1-1.31738,7.55176Zm-9.89062-5.542a2.365,2.365,0,0,0,.09179,1.25976,2.91131,2.91131,0,0,0,.64746,1.0127,4.57945,4.57945,0,0,0,1.02051.79,8.48121,8.48121,0,0,0,1.19629.57226,10.60967,10.60967,0,0,0,1.91016.57032q.78514.13623,1.39843.18945a12.11,12.11,0,0,0,1.2793.041,7.26821,7.26821,0,0,0,1.32227-.14454,4.78626,4.78626,0,0,0,1.208-.41015,2.55653,2.55653,0,0,0,1.46-1.92188,2.40847,2.40847,0,0,0-.75977-2.1582,7.50623,7.50623,0,0,0-3.40039-1.82617,10.24236,10.24236,0,0,0-1.01856-.24121,10.55213,10.55213,0,0,0-3.65234-.0166,3.6404,3.6404,0,0,0-2.18164,1.13085A2.31345,2.31345,0,0,0,231.791,203.58008Z"/><path class="cls-4" d="M245.07324,197.55469a3.95957,3.95957,0,0,1-3.32812.82324,3.85614,3.85614,0,0,1-1.9209-.96777,4.6812,4.6812,0,0,1-1.30567-2.03907,4.01734,4.01734,0,0,1-3.33105,1.15528,3.474,3.474,0,0,1-2.46191-1.62012,4.48437,4.48437,0,0,1,.97656-5.5957,3.489,3.489,0,0,1,2.876-.6875,4.00807,4.00807,0,0,1,2.73144,2.21289,4.69461,4.69461,0,0,1,1.91895-1.47656,3.80418,3.80418,0,0,1,2.10449-.26465,4.24133,4.24133,0,0,1,1.72558.67578,4.03091,4.03091,0,0,1,1.15821,1.23047,5.30891,5.30891,0,0,1-1.14356,6.55371Zm-11.05761-3.52735a2.25033,2.25033,0,0,0,1.55761,1.02344,2.49255,2.49255,0,0,0,.85742-4.91015,2.2523,2.2523,0,0,0-1.8125.43359,2.6089,2.6089,0,0,0-.60253,3.45312Zm5.85742,1.44141a2.83089,2.83089,0,0,0,1.93066,1.22559,3.024,3.024,0,0,0,2.27051-.48243,3.061,3.061,0,0,0,.74805-4.28515,3.02967,3.02967,0,0,0-1.97266-1.22363,2.83311,2.83311,0,0,0-2.23242.5,3.141,3.141,0,0,0-.74414,4.26562Z"/><path class="cls-4" d="M246.60059,178.792a4.96067,4.96067,0,0,1,1.31933,1.28028,4.65445,4.65445,0,0,1,.78418,3.61035,4.70927,4.70927,0,0,1-1.9707,3.1289,4.77025,4.77025,0,0,1-6.37207-.76953l-5.71289-6.69922.334-1.91406,4.44531,5.23535-.19726-.46289a5.41686,5.41686,0,0,1,1.916-3.24609,4.41707,4.41707,0,0,1,3.626-.86817A4.72419,4.72419,0,0,1,246.60059,178.792Zm-5.80176,4.79688a3.61877,3.61877,0,0,0,.51367,1.18261,3.059,3.059,0,0,0,2.0957,1.374,3.14778,3.14778,0,0,0,2.47071-.57715,3.27326,3.27326,0,0,0,1.373-2.16016,3.18382,3.18382,0,0,0-.5332-2.47363,3.145,3.145,0,0,0-2.10059-1.35254,3.23684,3.23684,0,0,0-2.47363.543,3.16062,3.16062,0,0,0-1.38183,2.13965A3.24643,3.24643,0,0,0,240.79883,183.58887Z"/><path class="cls-4" d="M241.16406,170.99805a4.54528,4.54528,0,0,1,.67188-1.70215,4.98523,4.98523,0,0,1,1.25-1.32617,4.48419,4.48419,0,0,1,3.54687-.79493,4.748,4.748,0,0,1,3.15821,1.98731,4.67885,4.67885,0,0,1,.83105,3.66113,4.861,4.861,0,0,1-1.3457,2.60547,4.63718,4.63718,0,0,1-2.56348,1.36426l-.21094-1.49512a3.19972,3.19972,0,0,0,1.7295-.9414,3.07125,3.07125,0,0,0,.88183-1.61426,3.67489,3.67489,0,0,0-.00586-1.502,3.62658,3.62658,0,0,0-.51367-1.17187,3.07869,3.07869,0,0,0-2.11719-1.377A3.29776,3.29776,0,0,0,244,169.24414a2.98778,2.98778,0,0,0-1.36035,2.02344,3.55868,3.55868,0,0,0,.29,2.27051l-.9834,1.457-6.0625-2.72949,1.08594-6.22071,1.45605.25488-.89355,5.11817,3.61914,1.61719A6.77016,6.77016,0,0,1,241.16406,170.99805Z"/><path class="cls-4" d="M253.74512,153.44434l-11.65528-7.77979-1.15429,6.61572-1.45606-.2539,1.54981-8.8833,12.999,8.67822Z"/><path class="cls-4" d="M255.53516,143.18359l-11.6543-7.7788-1.1543,6.61572-1.457-.25391,1.55078-8.8833,12.99805,8.67822Z"/><path class="cls-4" d="M251.04785,125.29a3.161,3.161,0,0,0-2.125-1.33545,3.103,3.103,0,0,0-2.43652.57178,3.24747,3.24747,0,0,0-1.34082,2.15625,3.156,3.156,0,0,0,.62793,2.542,3.03917,3.03917,0,0,0,2.23828,1.30225l-.25781,1.477a4.55,4.55,0,0,1-3.24317-1.92725,4.90645,4.90645,0,0,1,1.1211-6.85693,4.739,4.739,0,0,1,6.65136,1.1289l4.0293,5.78321,1.125-6.44873,1.457.25439-1.73926,9.96484Z"/><path class="cls-4" d="M258.59668,120.05371a3.95526,3.95526,0,0,1-3.32715.82373,3.863,3.863,0,0,1-1.92187-.96777,4.68125,4.68125,0,0,1-1.30469-2.03955,4.01611,4.01611,0,0,1-3.332,1.15527,3.4725,3.4725,0,0,1-2.46094-1.61914,4.48547,4.48547,0,0,1,.97656-5.59668,3.49158,3.49158,0,0,1,2.876-.6875,4.00625,4.00625,0,0,1,2.73144,2.21338,4.6813,4.6813,0,0,1,1.91895-1.477,3.812,3.812,0,0,1,2.10449-.26465,4.24863,4.24863,0,0,1,1.72559.67578,4.02925,4.02925,0,0,1,1.15722,1.231,5.305,5.305,0,0,1-1.14355,6.55322Zm-11.05762-3.52637a2.254,2.254,0,0,0,1.5586,1.022,2.49231,2.49231,0,0,0,.85742-4.90967,2.25146,2.25146,0,0,0-1.8125.43359,2.611,2.611,0,0,0-.60352,3.4541Zm5.8584,1.43946a2.82941,2.82941,0,0,0,1.93067,1.227,3.02271,3.02271,0,0,0,2.2705-.48242,3.05894,3.05894,0,0,0,.748-4.28516,3.02676,3.02676,0,0,0-1.97363-1.22412,2.83475,2.83475,0,0,0-2.23145.5,3.13977,3.13977,0,0,0-.74414,4.26465Z"/><path class="cls-4" d="M263.53809,97.33936l-11.65528-7.77881-1.15429,6.61523-1.45606-.2539,1.55078-8.88282,12.998,8.67725Z"/><path class="cls-4" d="M259.05078,79.44531a3.16216,3.16216,0,0,0-2.125-1.335,3.10275,3.10275,0,0,0-2.43652.57129,3.24747,3.24747,0,0,0-1.34082,2.15625,3.16017,3.16017,0,0,0,.62695,2.54248,3.04257,3.04257,0,0,0,2.23828,1.30225l-.25781,1.47656a4.54585,4.54585,0,0,1-3.24219-1.92676,4.90415,4.90415,0,0,1,1.1211-6.85693,4.74057,4.74057,0,0,1,6.65136,1.12842l4.02832,5.78369,1.126-6.44922,1.457.25391-1.73926,9.96533Z"/><path class="cls-4" d="M261.28418,66.64648a3.16218,3.16218,0,0,0-2.125-1.335,3.10277,3.10277,0,0,0-2.43652.57129,3.24859,3.24859,0,0,0-1.34082,2.15625,3.15822,3.15822,0,0,0,.62793,2.543,3.04,3.04,0,0,0,2.23828,1.30176l-.25782,1.47656a4.5478,4.5478,0,0,1-3.24316-1.92676,4.90666,4.90666,0,0,1,1.12109-6.85693,4.74058,4.74058,0,0,1,6.65137,1.12842l4.02832,5.78418,1.126-6.44971,1.457.25391-1.73926,9.96533Z"/><path class="cls-4" d="M268.4502,53.59424a4.94434,4.94434,0,0,1,1.32031,1.28076,4.65374,4.65374,0,0,1,.78418,3.60986,4.70709,4.70709,0,0,1-1.97071,3.12891,4.77057,4.77057,0,0,1-6.373-.769L256.499,54.14551l.334-1.91406,4.44531,5.23486-.19824-.46338a5.404,5.404,0,0,1,1.918-3.24512,4.411,4.411,0,0,1,3.624-.86816A4.73292,4.73292,0,0,1,268.4502,53.59424Zm-5.80079,4.79736a3.67368,3.67368,0,0,0,.51172,1.18311,3.06538,3.06538,0,0,0,2.09668,1.373,3.14826,3.14826,0,0,0,2.47071-.57617,3.27263,3.27263,0,0,0,1.373-2.16162,3.17844,3.17844,0,0,0-.5332-2.47266,3.145,3.145,0,0,0-2.10059-1.35253,3.23716,3.23716,0,0,0-2.47461.54345,3.161,3.161,0,0,0-1.38086,2.13819A3.26867,3.26867,0,0,0,262.64941,58.3916Z"/><rect class="cls-5" x="172.80323" y="249.25238" width="10.32658" height="5.68687" transform="translate(-100.97166 384.07261) rotate(-80.1006)"/><path class="cls-5" d="M182.13959,258.0448a7.89927,7.89927,0,0,0,8.7218-6.45728l.42046-2.40928-7.37042-1.28627Z"/><rect class="cls-5" x="164.94485" y="247.88092" width="10.32658" height="5.68696" transform="translate(-106.12804 375.19558) rotate(-80.1006)"/><path class="cls-5" d="M165.93853,244.75539l-7.37035-1.28625-.42046,2.40928a7.89916,7.89916,0,0,0,6.019,9.0298Z"/><path class="cls-5" d="M161.73767,225.30769,158.96192,241.213l32.71367,5.7091,1.94055-11.11954-23.86567-4.165.39373-2.25614,1.79634-10.29319-1.08445-.18925A7.904,7.904,0,0,0,161.73767,225.30769Z"/><rect class="cls-5" x="170.87524" y="222.27399" width="10.44876" height="5.68687" transform="translate(-75.94091 359.8932) rotate(-80.1006)"/><path class="cls-5" d="M188.117,232.518l5.89284,1.0284.44147-2.52963a7.90508,7.90508,0,0,0-4.57968-8.553Z"/><rect class="cls-5" x="178.73362" y="223.64538" width="10.44876" height="5.68696" transform="translate(-70.78453 368.77023) rotate(-80.1006)"/><path class="cls-4" d="M140.12988,165.48926l7.10352,1.24023-.68067,3.90235L128.85938,167.544l1.78906-10.251,3.53808.61719-1.10839,6.34863,3.51269.61328,1.063-6.08887,3.53906.61817Z"/><path class="cls-4" d="M148.84082,157.52148l-17.69336-3.08789.68067-3.90283,17.69335,3.0874Z"/><path class="cls-4" d="M150.74756,146.59473l-.68115,3.90332-17.69336-3.08789.51318-2.93995.168-.96337.477-2.73194a5.568,5.568,0,0,1,6.61621-4.42187,5.45779,5.45779,0,0,1,4.81152,4.9956l7.39161-3.93847-.86329,4.94336-7.05761,3.11181-.0044.02588Zm-14.62305-2.55225,5.22949.9126.36329-2.08106a2.67036,2.67036,0,0,0-5.2295-.91259Z"/><path class="cls-4" d="M149.47607,125.30176c-3.43457-.59961-3.00732,10.01269-9.53857,8.87256-3.64258-.63526-4.76855-4.31739-4.20557-7.54444.63575-3.64258,2.8208-6.63965,6.876-6.06543l-.65869,3.773c-1.88379-.11523-2.66846.84717-3.00928,2.79932-.19043,1.09277.062,2.71875,1.39014,2.95068,3.14746.54932,2.66846-10.07177,9.40771-8.896,4.1626.72656,5.04932,4.71582,4.41748,8.332-.68066,3.90332-3.229,7.13183-7.55175,6.40429l.69043-3.95507c2.124.26367,3.37793-1.2334,3.71386-3.1587C151.22168,127.59082,151.06348,125.57861,149.47607,125.30176Z"/><path class="cls-4" d="M156.74023,112.25586l-.68164,3.90332-14.15478-2.4707-.88086,5.04785-3.53809-.61719,2.44287-13.99853,3.53809.61718-.88086,5.04737Z"/><path class="cls-4" d="M160.29883,91.8623l-1.24805,7.1543-17.69336-3.0874,1.0625-6.08838c.52637-3.01807,2.8667-4.59375,5.28565-4.17187a3.90589,3.90589,0,0,1,3.37939,2.76123,4.54485,4.54485,0,0,1,5.0752-2.814C159.20508,86.14746,160.88965,88.47852,160.29883,91.8623Zm-14.9541-.65332-.23584,1.353,4.11035.71729.23584-1.35254a2.08628,2.08628,0,1,0-4.11035-.71778Zm7.50683.15674-.43164,2.47217,4.26758.74512.43164-2.47266a2.16618,2.16618,0,1,0-4.26758-.74463Z"/><path class="cls-4" d="M163.6543,72.63672l-3.78711.65234-1.17578,6.73926,3.34179,1.89648-.73047,4.18946L144.8623,75.8457,145.439,72.541l18.94678-4.09375Zm-13.875,2.37793,5.90625,3.33642.78125-4.47509Z"/><path class="cls-4" d="M166.42383,56.76855l-12.09473,4.1626,11.03223,1.9253-.68164,3.90332-17.69287-3.08741L147.668,59.769,159.7627,55.606l-11.03223-1.9253.68115-3.90283,17.69287,3.0874Z"/><path class="cls-4" d="M168.33008,45.84375l-.68067,3.90332-17.69336-3.08789.68067-3.90283,7.90918,1.38037-6.93262-6.97461.87207-4.99561,7.66113,8.33545,10.07715-5.50781-.917,5.25586-8.88672,4.21387Z"/><g class="cls-2"><rect x="33.99121" y="24.60485" width="157.12269" height="258.79031" rx="5.33333" ry="5.33333" transform="translate(-25.15147 22.00879) rotate(-10.05188)"/></g><rect class="cls-6" x="29.99121" y="20.60485" width="157.12269" height="258.79031" rx="5.33333" ry="5.33333" transform="translate(-24.51471 21.24923) rotate(-10.05188)"/><path class="cls-4" d="M186.02148,233.65625l.26954,1.51758-2.89063.51269,1.416,7.98536-12.56934-5.4502-.36133-2.03809,9.74805-1.749-.31641-1.78906,1.49707-.26563.31739,1.78907Zm-3.16015,7.70215-.958-5.40625-8.17187,1.44824Z"/><path class="cls-4" d="M185.23633,229.22168l-13.61035-3.335,1.17187,6.6123-1.45508.25879-1.57324-8.8789,15.17871,3.7207Z"/><path class="cls-4" d="M170.50391,219.79883l.36132,2.03711-1.26855.22461-.99316-3.42676,14.30566-2.53613.25879,1.45605Z"/><path class="cls-4" d="M178.293,205.419a4.93158,4.93158,0,0,1,1.67773.7539,4.64983,4.64983,0,0,1,1.96973,3.125,4.70661,4.70661,0,0,1-.78613,3.61328,4.76725,4.76725,0,0,1-6.252,1.45117l-7.65527-4.34765-.33887-1.91211,5.96485,3.40332-.34375-.36914a5.3939,5.3939,0,0,1,.69433-3.70313,4.40875,4.40875,0,0,1,3.11035-2.05371A4.73426,4.73426,0,0,1,178.293,205.419Zm-3.81543,6.48828a3.59991,3.59991,0,0,0,.88476.93652,3.06333,3.06333,0,0,0,2.44043.57617,3.14343,3.14343,0,0,0,2.124-1.38574,3.26931,3.26931,0,0,0,.55371-2.5,3.18625,3.18625,0,0,0-1.34473-2.1416,3.14384,3.14384,0,0,0-2.43554-.55567,3.23649,3.23649,0,0,0-2.14063,1.35547,3.16034,3.16034,0,0,0-.56836,2.48145A3.25967,3.25967,0,0,0,174.47754,211.90723Z"/><path class="cls-4" d="M175.6748,188.5332a12.18174,12.18174,0,0,1-9.62792,1.70606,4.18643,4.18643,0,0,1-1.3379-7.54785,12.17873,12.17873,0,0,1,9.62793-1.707,4.18722,4.18722,0,0,1,1.33789,7.54882Zm-11.18847-1.834a2.37207,2.37207,0,0,0,.51562,1.15234,2.941,2.941,0,0,0,.95508.73047,4.61817,4.61817,0,0,0,1.22852.39453,8.33836,8.33836,0,0,0,1.32031.12989,10.54256,10.54256,0,0,0,1.98926-.11622c.52441-.09277.9834-.19238,1.37988-.29882a11.88449,11.88449,0,0,0,1.21582-.39746,7.24262,7.24262,0,0,0,1.19434-.58692,4.72756,4.72756,0,0,0,.99414-.79785,2.55524,2.55524,0,0,0,.71875-2.30469,2.41011,2.41011,0,0,0-1.45117-1.76953,7.4762,7.4762,0,0,0-3.81934-.55566,10.1045,10.1045,0,0,0-1.041.12011,10.54964,10.54964,0,0,0-3.43847,1.23145,3.62261,3.62261,0,0,0-1.66309,1.80664A2.30533,2.30533,0,0,0,164.48633,186.69922Z"/><path class="cls-4" d="M174.915,176.50391a3.95759,3.95759,0,0,1-2.84668,1.9082,3.85466,3.85466,0,0,1-2.13574-.25391,4.667,4.667,0,0,1-1.92285-1.4707,4.01694,4.01694,0,0,1-2.73829,2.22168,3.47566,3.47566,0,0,1-2.86523-.68262,4.48542,4.48542,0,0,1-.99219-5.59277,3.49443,3.49443,0,0,1,2.46875-1.62793,4.00449,4.00449,0,0,1,3.32324,1.14844,4.69631,4.69631,0,0,1,1.29981-2.04395,3.81926,3.81926,0,0,1,1.88769-.9668,4.2331,4.2331,0,0,1,1.85254.04786,4.01115,4.01115,0,0,1,1.50782.76172,5.30365,5.30365,0,0,1,1.16113,6.55078Zm-11.59668.457a2.25009,2.25009,0,0,0,1.81348.42871,2.49224,2.49224,0,0,0-.87012-4.90723,2.25273,2.25273,0,0,0-1.55469,1.02735,2.60832,2.60832,0,0,0,.61133,3.45117Zm5.998-.64551a2.82789,2.82789,0,0,0,2.23242.49512,3.02444,3.02444,0,0,0,1.96972-1.22852,3.06037,3.06037,0,0,0-.75878-4.28418,3.026,3.026,0,0,0-2.27247-.47558,2.8335,2.8335,0,0,0-1.92675,1.23046,3.13835,3.13835,0,0,0,.75586,4.2627Z"/><path class="cls-4" d="M169.94824,158.34473a4.92319,4.92319,0,0,1,1.67774.7539,4.65073,4.65073,0,0,1,1.96972,3.125,4.70433,4.70433,0,0,1-.78515,3.61426,4.76873,4.76873,0,0,1-6.252,1.4502l-7.65625-4.34668-.33886-1.91407,5.96582,3.40332-.34473-.36718a5.40217,5.40217,0,0,1,.69531-3.7041,4.40981,4.40981,0,0,1,3.10938-2.05372A4.73421,4.73421,0,0,1,169.94824,158.34473Zm-3.81543,6.4873a3.62449,3.62449,0,0,0,.88477.93848,3.06365,3.06365,0,0,0,2.44043.57519,3.14,3.14,0,0,0,2.124-1.38476,3.27167,3.27167,0,0,0,.55469-2.5,3.17963,3.17963,0,0,0-1.3457-2.1416,3.14782,3.14782,0,0,0-2.43555-.55567,3.23648,3.23648,0,0,0-2.14063,1.35547,3.15468,3.15468,0,0,0-.56738,2.48242A3.2288,3.2288,0,0,0,166.13281,164.832Z"/><path class="cls-4" d="M162.17969,152.874a4.514,4.514,0,0,1,.05176-1.8291,4.96829,4.96829,0,0,1,.72168-1.67285,4.48351,4.48351,0,0,1,3.0625-1.95947,4.74974,4.74974,0,0,1,3.64746.791,4.67552,4.67552,0,0,1,2.02832,3.15869,4.84787,4.84787,0,0,1-.374,2.90821,4.63351,4.63351,0,0,1-1.94531,2.15625l-.707-1.333a3.20421,3.20421,0,0,0,1.30371-1.47461,3.0647,3.0647,0,0,0,.27832-1.81836,3.70575,3.70575,0,0,0-.51758-1.41015,3.662,3.662,0,0,0-.88379-.92627,3.08477,3.08477,0,0,0-2.46093-.57276,3.29553,3.29553,0,0,0-2.1377,1.36572,2.98582,2.98582,0,0,0-.58887,2.36573,3.55665,3.55665,0,0,0,1.04785,2.03613l-.42773,1.70605-6.62891-.498-1.10253-6.2168,1.45507-.2583.90625,5.11475,3.95508.28613A6.75762,6.75762,0,0,1,162.17969,152.874Z"/><path class="cls-4" d="M168.01563,132.08008l-13.60938-3.33447,1.17188,6.6123-1.45508.25781-1.57422-8.87988,15.17969,3.72217Z"/><path class="cls-4" d="M166.19824,121.8252l-13.61035-3.33545,1.17285,6.6123-1.45508.25781-1.57421-8.8789,15.17871,3.72217Z"/><path class="cls-4" d="M155.874,106.53711a3.15923,3.15923,0,0,0-2.45312-.53076,3.11128,3.11128,0,0,0-2.0957,1.36865,3.2507,3.2507,0,0,0-.52442,2.48438,3.16,3.16,0,0,0,1.459,2.17675,3.04742,3.04742,0,0,0,2.54785.46l.26074,1.47559a4.55112,4.55112,0,0,1-3.70606-.70508,4.90875,4.90875,0,0,1-1.28564-6.82861,4.74317,4.74317,0,0,1,6.63818-1.208l5.75977,4.06152-1.14258-6.44629,1.45606-.2583,1.76562,9.96094Z"/><path class="cls-4" d="M161.18359,99.03906a3.9579,3.9579,0,0,1-2.84668,1.90967,3.85107,3.85107,0,0,1-2.13574-.25488,4.6774,4.6774,0,0,1-1.92383-1.47119,4.01643,4.01643,0,0,1-2.7373,2.22265,3.47825,3.47825,0,0,1-2.86621-.68261,4.48595,4.48595,0,0,1-.99121-5.59375,3.49282,3.49282,0,0,1,2.46777-1.627,4.00955,4.00955,0,0,1,3.32422,1.14844,4.67462,4.67462,0,0,1,1.2998-2.04346,3.80416,3.80416,0,0,1,1.8877-.96728,4.24139,4.24139,0,0,1,1.85254.04736,4.01932,4.01932,0,0,1,1.50781.76221,5.30625,5.30625,0,0,1,1.16113,6.5498Zm-11.59765.458a2.25423,2.25423,0,0,0,1.81347.42822,2.49167,2.49167,0,0,0-.86962-4.90625,2.25382,2.25382,0,0,0-1.55567,1.02588,2.6115,2.6115,0,0,0,.61182,3.45215Zm5.999-.645a2.832,2.832,0,0,0,2.23145.49463,3.026,3.026,0,0,0,1.9707-1.22949,3.06076,3.06076,0,0,0-.75977-4.28321,3.02283,3.02283,0,0,0-2.27148-.47656,2.83372,2.83372,0,0,0-1.92676,1.23194,3.13857,3.13857,0,0,0,.75586,4.26269Z"/><path class="cls-4" d="M158.07617,75.999l-13.60986-3.335,1.17187,6.61231-1.45507.2583-1.57373-8.87891,15.17871,3.72119Z"/><path class="cls-4" d="M147.752,60.71094a3.15676,3.15676,0,0,0-2.45263-.53028,3.10642,3.10642,0,0,0-2.09571,1.36866,3.24842,3.24842,0,0,0-.5249,2.48437,3.15945,3.15945,0,0,0,1.4585,2.17627,3.0423,3.0423,0,0,0,2.54785.46l.26172,1.47656a4.55406,4.55406,0,0,1-3.70606-.70507,4.909,4.909,0,0,1-1.28613-6.82911,4.74408,4.74408,0,0,1,6.63867-1.209l5.76026,4.063L153.21,57.02l1.45606-.2583,1.76562,9.96094Z"/><path class="cls-4" d="M145.48438,47.919a3.15671,3.15671,0,0,0-2.45264-.53028,3.10713,3.10713,0,0,0-2.09619,1.36768,3.25112,3.25112,0,0,0-.52442,2.48437,3.15948,3.15948,0,0,0,1.4585,2.17627,3.0423,3.0423,0,0,0,2.54785.46l.26172,1.47657a4.5555,4.5555,0,0,1-3.70654-.70508,4.90942,4.90942,0,0,1-1.28565-6.8291,4.74251,4.74251,0,0,1,6.63867-1.208l5.75928,4.062-1.14258-6.44629,1.45606-.2583,1.76562,9.96094Z"/><path class="cls-4" d="M147.7666,33.20361a4.9514,4.9514,0,0,1,1.67774.7544,4.64772,4.64772,0,0,1,1.96972,3.12451,4.70618,4.70618,0,0,1-.78613,3.61328,4.76835,4.76835,0,0,1-6.25195,1.45166L136.7207,37.7998l-.33886-1.91308L142.34668,39.29l-.34424-.36816a5.39806,5.39806,0,0,1,.69483-3.70362,4.40957,4.40957,0,0,1,3.11084-2.05322A4.73256,4.73256,0,0,1,147.7666,33.20361Zm-3.81543,6.4878a3.5964,3.5964,0,0,0,.88477.9375,3.06109,3.06109,0,0,0,2.43994.57666,3.14233,3.14233,0,0,0,2.124-1.38575,3.27146,3.27146,0,0,0,.55469-2.50048,3.18787,3.18787,0,0,0-1.34521-2.14209,3.14553,3.14553,0,0,0-2.43555-.55518,3.23858,3.23858,0,0,0-2.14112,1.35547,3.15892,3.15892,0,0,0-.56787,2.48291A3.24053,3.24053,0,0,0,143.95117,39.69141Z"/><rect class="cls-5" x="127.60407" y="245.5032" width="5.68687" height="10.32658" transform="translate(-41.74893 26.61599) rotate(-10.05188)"/><path class="cls-5" d="M136.4,254.8345a7.89929,7.89929,0,0,0,5.995-9.0458l-.42687-2.40816-7.367,1.30588Z"/><rect class="cls-5" x="119.74933" y="246.89553" width="5.68696" height="10.32658" transform="translate(-42.11252 25.2664) rotate(-10.05188)"/><path class="cls-5" d="M116.63669,247.87082l-7.36689,1.30586.42687,2.40815a7.89916,7.89916,0,0,0,8.73888,6.43407Z"/><path class="cls-5" d="M106.052,231.02373l2.81807,15.89787,32.69836-5.79614-1.97014-11.11434-23.8545,4.22847-.39974-2.25508-1.82372-10.28837-1.08394.19214A7.904,7.904,0,0,0,106.052,231.02373Z"/><rect class="cls-5" x="116.64362" y="220.71991" width="5.68687" height="10.44876" transform="translate(-37.60217 24.32347) rotate(-10.05188)"/><path class="cls-5" d="M133.30846,228.80012l5.89009-1.04408-.4482-2.52845a7.90507,7.90507,0,0,0-7.22328-6.477Z"/><rect class="cls-5" x="124.49828" y="219.32758" width="5.68696" height="10.44876" transform="translate(-37.23858 25.67306) rotate(-10.05188)"/><path class="cls-4" d="M72.52637,176.17969,54.8418,179.31445l-.6919-3.90136L71.835,172.27832Z"/><path class="cls-4" d="M70.59082,165.25781l.69141,3.90137L53.59717,172.294l-.521-2.93848-.1709-.96289-.48388-2.73047a5.56941,5.56941,0,0,1,4.71093-6.415,5.46124,5.46124,0,0,1,6.22852,3.05469l5.60254-6.22363.876,4.9414-5.57325,5.332.0044.02637Zm-14.61621,2.59082,5.22754-.92675-.36914-2.08106a2.476,2.476,0,0,0-3.041-1.874,2.50138,2.50138,0,0,0-2.18652,2.80078Z"/><path class="cls-4" d="M67.50488,146.3335a9.24492,9.24492,0,1,1-10.71679-7.4878A9.43105,9.43105,0,0,1,67.50488,146.3335Zm-14.331,2.54a5.29615,5.29615,0,1,0,4.27978-6.123A5.47758,5.47758,0,0,0,53.17383,148.87354Z"/><path class="cls-4" d="M63.42334,124.82422l-9.94873,8.04053,11.02734-1.95459.6919,3.90136-17.68506,3.13477-.69141-3.90137,9.94825-8.041L45.73828,127.959l-.6914-3.90039,17.685-3.13476Z"/><path class="cls-4" d="M59.75928,104.15332l1.26806,7.15234L43.3418,114.44043l-1.07862-6.08594c-.53466-3.01562,1.12647-5.29638,3.54541-5.7251a3.905,3.905,0,0,1,4.11866,1.44336,4.54435,4.54435,0,0,1,3.811-4.37744C56.78125,99.15625,59.16016,100.77246,59.75928,104.15332Zm-14.27979,4.49023.23975,1.35254,4.10937-.72851-.23974-1.35254a2.08673,2.08673,0,0,0-4.10938.72851Zm7.11035-2.41406.4375,2.47071,4.26514-.75586-.438-2.47071a2.16573,2.16573,0,1,0-4.26465.75586Z"/><path class="cls-4" d="M56.353,84.93652l-3.3374,1.90674L54.21,93.57861l3.78858.64307.74267,4.1875-18.95752-4.043-.58545-3.30371L55.61084,80.75ZM44.12256,91.90674l6.69043,1.1206-.793-4.47265Z"/><path class="cls-4" d="M53.5415,69.07617,43.59277,77.1167l11.02735-1.95459.6914,3.90137L37.627,82.19824l-.69189-3.90136,9.94873-8.041L35.85645,72.21094,35.165,68.31055,52.8501,65.17578Z"/><path class="cls-4" d="M51.606,58.1582l.6914,3.90039L34.6123,65.19336,33.9209,61.293l7.90625-1.40137-8.89746-4.19043L32.04492,50.708l10.04492,5.21972,7.59375-8.61425.93116,5.25293L43.7002,59.55957Z"/><g class="cls-2"><rect x="73.60197" y="35.16772" width="157.12269" height="258.79031" rx="5.33333" ry="5.33333"/></g><rect class="cls-7" x="69.60197" y="31.16772" width="157.12269" height="258.79031" rx="5.33333" ry="5.33333"/><path class="cls-4" d="M209.84277,256.45605v1.542h-2.93554v8.10937l-11.42481-7.56054v-2.06934l9.9043-.02149v-1.8164h1.52051v1.8164Zm-4.45605,7.03223v-5.49023h-8.29883Z"/><path class="cls-4" d="M209.84277,251.95313,197.02441,246.293v6.71582H195.5459v-9.01758l14.29687,6.31445Z"/><path class="cls-4" d="M196.98145,240.10156v2.07032h-1.28809l-.37988-3.54786h14.52929v1.47754Z"/><path class="cls-4" d="M207.16113,227.30273a4.94471,4.94471,0,0,1,1.52051,1.03516,4.6516,4.6516,0,0,1,1.39356,3.4209,4.70294,4.70294,0,0,1-1.4043,3.4209,4.769,4.769,0,0,1-6.40918.33789l-6.7793-5.61719V227.957l5.2793,4.39258-.27442-.42188a5.39855,5.39855,0,0,1,1.33106-3.52636,4.4077,4.4077,0,0,1,3.4209-1.47852A4.73774,4.73774,0,0,1,207.16113,227.30273Zm-4.88965,5.72266a3.6186,3.6186,0,0,0,.708,1.07715,3.06194,3.06194,0,0,0,2.30176.99316,3.14664,3.14664,0,0,0,2.334-.99316,3.27394,3.27394,0,0,0,.98145-2.36524,3.18436,3.18436,0,0,0-.9502-2.34375,3.14661,3.14661,0,0,0-2.30175-.97167A3.24022,3.24022,0,0,0,203,229.38281a3.159,3.159,0,0,0-.99219,2.34473A3.2466,3.2466,0,0,0,202.27148,233.02539Z"/><path class="cls-4" d="M207.53027,210.21973a12.177,12.177,0,0,1-9.77734,0,4.18642,4.18642,0,0,1,0-7.666,12.177,12.177,0,0,1,9.77734,0,4.18642,4.18642,0,0,1,0,7.666ZM196.834,206.46094a2.36012,2.36012,0,0,0,.30665,1.22461,2.94786,2.94786,0,0,0,.8125.88672,4.60869,4.60869,0,0,0,1.14062.60156,8.3099,8.3099,0,0,0,1.27734.35937,10.549,10.549,0,0,0,1.9795.23243q.79688,0,1.41015-.05274a12.00181,12.00181,0,0,0,1.2666-.17969,7.38271,7.38271,0,0,0,1.27832-.36914,4.77853,4.77853,0,0,0,1.11914-.6123,2.55639,2.55639,0,0,0,1.1084-2.14356,2.4072,2.4072,0,0,0-1.11914-1.99609,7.48229,7.48229,0,0,0-3.66406-1.21387,9.97136,9.97136,0,0,0-1.04492-.06347,10.53148,10.53148,0,0,0-3.60059.6123,3.63076,3.63076,0,0,0-1.9541,1.48828A2.30605,2.30605,0,0,0,196.834,206.46094Z"/><path class="cls-4" d="M208.88184,198.24219a3.95679,3.95679,0,0,1-3.13575,1.38281,3.861,3.861,0,0,1-2.05957-.62305,4.68858,4.68858,0,0,1-1.63672-1.78418,4.01775,4.01775,0,0,1-3.083,1.71,3.47774,3.47774,0,0,1-2.70313-1.17187,4.48617,4.48617,0,0,1,0-5.68066,3.49089,3.49089,0,0,1,2.71485-1.17188,4.00925,4.00925,0,0,1,3.07128,1.71,4.69574,4.69574,0,0,1,1.63672-1.78418,3.81148,3.81148,0,0,1,2.02735-.62305,4.23836,4.23836,0,0,1,1.8164.37012,4.00869,4.00869,0,0,1,1.35157,1.01367,5.30636,5.30636,0,0,1,0,6.65235Zm-11.499-1.57422a2.25053,2.25053,0,0,0,1.71094.73926,2.492,2.492,0,0,0,0-4.9834,2.25049,2.25049,0,0,0-1.71094.73926,2.61011,2.61011,0,0,0,0,3.50488Zm6.01856.41211a2.83331,2.83331,0,0,0,2.1123.87695,3.02624,3.02624,0,0,0,2.1543-.86621,3.0592,3.0592,0,0,0,0-4.35059,3.02535,3.02535,0,0,0-2.1543-.86523,2.83243,2.83243,0,0,0-2.1123.876,3.14012,3.14012,0,0,0,0,4.3291Z"/><path class="cls-4" d="M207.16113,179.49512a4.94451,4.94451,0,0,1,1.52051,1.03515,4.6516,4.6516,0,0,1,1.39356,3.4209,4.70294,4.70294,0,0,1-1.4043,3.4209,4.769,4.769,0,0,1-6.40918.33789l-6.7793-5.61719v-1.94238l5.2793,4.39258-.27442-.42285a5.39855,5.39855,0,0,1,1.33106-3.52637,4.4077,4.4077,0,0,1,3.4209-1.47852A4.73774,4.73774,0,0,1,207.16113,179.49512Zm-4.88965,5.72363a3.62637,3.62637,0,0,0,.708,1.07617,3.062,3.062,0,0,0,2.30176.99317,3.14665,3.14665,0,0,0,2.334-.99317,3.27394,3.27394,0,0,0,.98145-2.36523,3.18436,3.18436,0,0,0-.9502-2.34375,3.14662,3.14662,0,0,0-2.30175-.97168A3.24019,3.24019,0,0,0,203,181.5752a3.16048,3.16048,0,0,0-.99219,2.34472A3.25473,3.25473,0,0,0,202.27148,185.21875Z"/><path class="cls-4" d="M200.4668,172.75293a4.527,4.527,0,0,1,.36914-1.793,4.97518,4.97518,0,0,1,1.00293-1.52051,4.4821,4.4821,0,0,1,3.3584-1.39453,4.74523,4.74523,0,0,1,3.45214,1.415,4.675,4.675,0,0,1,1.44629,3.46387,4.85224,4.85224,0,0,1-.876,2.79785,4.62762,4.62762,0,0,1-2.291,1.78418l-.46484-1.43555a3.20375,3.20375,0,0,0,1.542-1.22461,3.0725,3.0725,0,0,0,.59082-1.74218,3.42,3.42,0,0,0-.97168-2.54493,3.08334,3.08334,0,0,0-2.32227-.99316,3.29779,3.29779,0,0,0-2.34472.97168,2.9841,2.9841,0,0,0-.99219,2.22656,3.56387,3.56387,0,0,0,.67578,2.1875l-.71777,1.60449-6.44141-1.64746v-6.31347h1.47852v5.19433l3.84375.97168A6.7522,6.7522,0,0,1,200.4668,172.75293Z"/><path class="cls-4" d="M209.84277,153.29688l-12.81836-5.65967v6.71533H195.5459v-9.01709l14.29687,6.314Z"/><path class="cls-4" d="M209.84277,142.88184l-12.81836-5.65967v6.71533H195.5459v-9.01709l14.29687,6.314Z"/><path class="cls-4" d="M202.3457,126.02588a3.16181,3.16181,0,0,0-2.32324-.9502,3.10389,3.10389,0,0,0-2.30176.98194,3.24958,3.24958,0,0,0-.95019,2.35449,3.16156,3.16156,0,0,0,1.05566,2.397,3.04273,3.04273,0,0,0,2.42871.898v1.499a4.55078,4.55078,0,0,1-3.52636-1.34082,4.90776,4.90776,0,0,1-.07422-6.94775,4.74111,4.74111,0,0,1,6.74707-.03174l4.96289,5.00489v-6.54688h1.47851v10.11572Z"/><path class="cls-4" d="M208.88184,119.56982a3.95563,3.95563,0,0,1-3.13575,1.38331,3.85672,3.85672,0,0,1-2.05957-.62305,4.69223,4.69223,0,0,1-1.63672-1.78418,4.017,4.017,0,0,1-3.083,1.71045,3.47654,3.47654,0,0,1-2.70313-1.17237,4.48617,4.48617,0,0,1,0-5.68066,3.49088,3.49088,0,0,1,2.71485-1.17187,4.00847,4.00847,0,0,1,3.07128,1.71044,4.69364,4.69364,0,0,1,1.63672-1.78466,3.81148,3.81148,0,0,1,2.02735-.623,4.25273,4.25273,0,0,1,1.8164.36963,4.02125,4.02125,0,0,1,1.35157,1.01367,5.30634,5.30634,0,0,1,0,6.65234Zm-11.499-1.57324a2.2522,2.2522,0,0,0,1.71094.73926,2.49227,2.49227,0,0,0,0-4.98389,2.25053,2.25053,0,0,0-1.71094.73926,2.61075,2.61075,0,0,0,0,3.50537Zm6.01856.41162a2.831,2.831,0,0,0,2.1123.87647,3.02581,3.02581,0,0,0,2.1543-.86572,3.0592,3.0592,0,0,0,0-4.35059,3.02577,3.02577,0,0,0-2.1543-.86572,2.83288,2.83288,0,0,0-2.1123.87646,3.14012,3.14012,0,0,0,0,4.3291Z"/><path class="cls-4" d="M209.84277,96.3418l-12.81836-5.65967v6.71533H195.5459V88.38037l14.29687,6.314Z"/><path class="cls-4" d="M202.3457,79.48584a3.16181,3.16181,0,0,0-2.32324-.9502,3.10389,3.10389,0,0,0-2.30176.98194,3.24958,3.24958,0,0,0-.95019,2.35449,3.16156,3.16156,0,0,0,1.05566,2.397,3.04273,3.04273,0,0,0,2.42871.89795v1.499a4.55082,4.55082,0,0,1-3.52636-1.34082,4.90778,4.90778,0,0,1-.07422-6.94776,4.74111,4.74111,0,0,1,6.74707-.03174l4.96289,5.00489V76.80371h1.47851V86.91943Z"/><path class="cls-4" d="M202.3457,66.49365a3.1618,3.1618,0,0,0-2.32324-.95019,3.10392,3.10392,0,0,0-2.30176.98193,3.2496,3.2496,0,0,0-.95019,2.35449,3.16159,3.16159,0,0,0,1.05566,2.397,3.04275,3.04275,0,0,0,2.42871.89794v1.499a4.55078,4.55078,0,0,1-3.52636-1.34082,4.90778,4.90778,0,0,1-.07422-6.94776,4.7411,4.7411,0,0,1,6.74707-.03173l4.96289,5.00488V63.81152h1.47851V73.92725Z"/><path class="cls-4" d="M207.16113,52.40332a4.936,4.936,0,0,1,1.52051,1.03516,4.65159,4.65159,0,0,1,1.39356,3.4209,4.70292,4.70292,0,0,1-1.4043,3.42089,4.769,4.769,0,0,1-6.40918.33789l-6.7793-5.61718V53.05811l5.2793,4.39257-.27442-.42236a5.40089,5.40089,0,0,1,1.33106-3.52686,4.41053,4.41053,0,0,1,3.4209-1.478A4.7296,4.7296,0,0,1,207.16113,52.40332Zm-4.88965,5.72314a3.63726,3.63726,0,0,0,.708,1.07715,3.06325,3.06325,0,0,0,2.30176.99268,3.148,3.148,0,0,0,2.334-.99268,3.27473,3.27473,0,0,0,.98145-2.36523,3.18468,3.18468,0,0,0-.9502-2.34424,3.14662,3.14662,0,0,0-2.30175-.97168A3.24019,3.24019,0,0,0,203,54.4834a3.16019,3.16019,0,0,0-.99219,2.34424A3.24953,3.24953,0,0,0,202.27148,58.12646Z"/><rect class="cls-5" x="149.30844" y="258.34239" width="5.68687" height="10.32658"/><path class="cls-5" d="M157.28555,268.64866a7.89928,7.89928,0,0,0,7.48182-7.86058v-2.44569h-7.48182Z"/><rect class="cls-5" x="141.33124" y="258.34239" width="5.68696" height="10.32658"/><path class="cls-5" d="M139.041,258.34239h-7.48173v2.44569a7.89915,7.89915,0,0,0,7.48173,7.86058Z"/><path class="cls-5" d="M131.55927,239.90644v16.14571h33.2081v-11.2876H140.541v-12.739h-1.10083A7.904,7.904,0,0,0,131.55927,239.90644Z"/><rect class="cls-5" x="142.83123" y="232.02555" width="5.68687" height="10.44876"/><path class="cls-5" d="M158.78546,242.47431h5.98191v-2.56787a7.90509,7.90509,0,0,0-5.98191-7.63832Z"/><rect class="cls-5" x="150.80835" y="232.02555" width="5.68696" height="10.44876"/><path class="cls-4" d="M107.19922,224.49023v10.40625H89.23828V224.49023h3.59229v6.44434h3.56591v-6.18066h3.5918v6.18066h3.61865v-6.44434Z"/><path class="cls-4" d="M107.19922,203.2832l-12.3877,2.11328,12.3877,3.5127V212.792l-12.3877,3.5127,12.3877,2.11328v4.3584L89.23828,219.29v-4.70215l12.59912-3.75-12.59912-3.72461v-4.70117l17.96094-3.48731Z"/><path class="cls-4" d="M107.19922,186.80762v10.40625H89.23828V186.80762h3.59229V193.252h3.56591v-6.18066h3.5918V193.252h3.61865v-6.44433Z"/><path class="cls-4" d="M107.19922,179.67871v3.96192H89.23828v-6.73536a5.56944,5.56944,0,0,1,5.7583-5.49414,5.46176,5.46176,0,0,1,5.59961,4.09473l6.603-5.15039V175.374l-6.41846,4.27832v.02637Zm-14.84424,0h5.30908v-2.11328a2.47726,2.47726,0,0,0-2.66748-2.37695,2.50266,2.50266,0,0,0-2.6416,2.37695Z"/><path class="cls-4" d="M107.19922,156.86133l-3.61865,1.29492v6.84082l3.61865,1.29395V170.544l-17.96094-7.29v-3.3545l17.96094-7.29Zm-13.25928,4.72851,6.39209,2.27149v-4.543Z"/><path class="cls-4" d="M89.23828,150.89648v-3.96191h14.36865v-6.44482h3.59229v10.40673Z"/><path class="cls-4" d="M89.23828,132.64746a8.98063,8.98063,0,0,1,17.96094,0v5.33545H89.23828Zm14.31592.23779a5.3261,5.3261,0,0,0-10.64453,0v1.189H103.5542Z"/><path class="cls-4" d="M107.19922,107.34961v7.26318H89.23828v-6.18066c0-3.06348,2.03369-5.01807,4.49024-5.01807a3.90445,3.90445,0,0,1,3.80371,2.13916,4.54429,4.54429,0,0,1,4.5166-3.645C105.13916,101.9082,107.19922,103.91553,107.19922,107.34961ZM92.355,109.27734v1.37354h4.17334v-1.37354a2.08667,2.08667,0,0,0-4.17334,0Zm7.42236-1.13574v2.50928h4.33155V108.1416a2.16593,2.16593,0,1,0-4.33155,0Z"/><path class="cls-4" d="M107.19922,87.8335l-3.61865,1.29443v6.84082l3.61865,1.29395v4.25293l-17.96094-7.29v-3.3545l17.96094-7.29Zm-13.25928,4.728L100.332,94.833V90.29Z"/><path class="cls-4" d="M107.19922,71.72559,96,77.90625h11.19922v3.96191H89.23828V77.90625l11.19922-6.18066H89.23828V67.76367h17.96094Z"/><path class="cls-4" d="M107.19922,60.63623v3.96191H89.23828V60.63623h8.02979l-8.02979-5.67871V49.88623l8.98047,6.894,8.98047-7.1582v5.33545l-8.0293,5.67871Z"/></g></g></svg>