<svg xmlns="http://www.w3.org/2000/svg" xmlns:xlink="http://www.w3.org/1999/xlink" viewBox="0 0 300 300"><defs><style>.cls-1{isolation:isolate;}.cls-2{opacity:0.15;mix-blend-mode:multiply;}.cls-3{fill:url(#linear-gradient);}.cls-4{fill:#fff;}.cls-5{fill:#ebebeb;}</style><linearGradient id="linear-gradient" x1="65.45968" y1="79.20376" x2="235.1132" y2="223.3851" gradientTransform="translate(-7 307) rotate(-90)" gradientUnits="userSpaceOnUse"><stop offset="0" stop-color="#d826d5"/><stop offset="0.62384" stop-color="#e47ba3"/><stop offset="0.99979" stop-color="#ebb184"/></linearGradient></defs><title>rewards-card</title><g class="cls-1"><g id="Single_Card" data-name="Single Card"><g class="cls-2"><rect x="68.39285" y="12.99999" width="171.2143" height="282.00002" rx="5.33333" ry="5.33333"/></g><rect class="cls-3" x="64.39285" y="8.99999" width="171.2143" height="282.00002" rx="5.33333" ry="5.33333"/><path class="cls-4" d="M217.21094,258.30469v1.68066h-3.2002v8.8418l-12.457-8.24317v-2.25585l10.79883-.02344v-1.98047h1.6582v1.98047Zm-4.8584,7.668v-5.98731h-9.04883Z"/><path class="cls-4" d="M206.9873,248.93457a4.9363,4.9363,0,0,1,.40333-1.95508,5.40919,5.40919,0,0,1,1.09375-1.65722,4.88579,4.88579,0,0,1,3.66113-1.51954,5.175,5.175,0,0,1,3.76465,1.542,5.0991,5.0991,0,0,1,1.57714,3.77636,5.28428,5.28428,0,0,1-.95605,3.05079,5.04775,5.04775,0,0,1-2.49805,1.94628l-.50586-1.5664a3.49318,3.49318,0,0,0,1.68067-1.335,3.34726,3.34726,0,0,0,.64453-1.89942A3.73628,3.73628,0,0,0,214.793,246.542a3.36659,3.36659,0,0,0-2.53223-1.082,3.59186,3.59186,0,0,0-2.55566,1.05957,3.25113,3.25113,0,0,0-1.083,2.42774,3.88248,3.88248,0,0,0,.73731,2.38476l-.78321,1.75-7.02246-1.7959v-6.88476H203.165v5.66406l4.19141,1.05957A7.36512,7.36512,0,0,1,206.9873,248.93457Z"/><path class="cls-4" d="M217.44141,236.28711a5.62866,5.62866,0,0,1-.25391,1.73926,5.52764,5.52764,0,0,1-.70215,1.43847,4.97827,4.97827,0,0,1-2.49805,1.94629l-.52929-1.5664a3.4055,3.4055,0,0,0,1.71484-1.335,3.36715,3.36715,0,0,0,.63379-1.88868,4.06952,4.06952,0,0,0-.28809-1.61132,3.79032,3.79032,0,0,0-.77148-1.16309,3.42033,3.42033,0,0,0-2.53223-1.09375,3.6577,3.6577,0,0,0-3.63867,3.66113,3.58444,3.58444,0,0,0,1.10547,2.625l-.99023,1.22071L203.165,235.5166v5.15723h-1.61133v-8.42774l5.80274,4.90528-.415-.69141a5.71282,5.71282,0,0,1,1.57714-3.74121,5.172,5.172,0,0,1,7.41407-.02344,5.4102,5.4102,0,0,1,1.10547,1.68067A4.89041,4.89041,0,0,1,217.44141,236.28711Z"/><path class="cls-4" d="M204.47754,229.57813a5.38476,5.38476,0,0,1-1.65723-1.12793,5.07073,5.07073,0,0,1-1.51953-3.73047,5.13215,5.13215,0,0,1,1.53027-3.73047,5.20208,5.20208,0,0,1,6.98829-.36817l7.3916,6.125v2.11817l-5.75684-4.78906.29981.46a5.892,5.892,0,0,1-1.4502,3.8457,4.813,4.813,0,0,1-3.73047,1.61133A5.1595,5.1595,0,0,1,204.47754,229.57813Zm5.33105-6.24024a3.80349,3.80349,0,0,0-.77148-1.16211,3.47952,3.47952,0,0,0-5.05469-.01172,3.56842,3.56842,0,0,0-1.07031,2.5791,3.47535,3.47535,0,0,0,1.03613,2.55567,3.43,3.43,0,0,0,2.50977,1.05859,3.52986,3.52986,0,0,0,2.55566-1.04687,3.44324,3.44324,0,0,0,1.082-2.55664A3.55006,3.55006,0,0,0,209.80859,223.33789Z"/><path class="cls-4" d="M217.21094,199.65137l-13.97656-6.1709v7.32226h-1.61133v-9.832l15.58789,6.88477Z"/><path class="cls-4" d="M203.18848,186.73633v2.25683h-1.4043l-.415-3.86816h15.8418v1.61133Z"/><path class="cls-4" d="M209.03711,173.98242a3.44807,3.44807,0,0,0-2.5332-1.03613,3.3874,3.3874,0,0,0-2.50977,1.07031A3.54292,3.54292,0,0,0,202.958,176.584a3.44594,3.44594,0,0,0,1.15137,2.61426,3.32015,3.32015,0,0,0,2.64843.97852v1.63476a4.962,4.962,0,0,1-3.8457-1.46289,5.35286,5.35286,0,0,1-.08106-7.57519,5.172,5.172,0,0,1,7.35743-.03418l5.41113,5.457v-7.1377h1.61133v11.0293Z"/><path class="cls-4" d="M203.18848,165.97266v2.25683h-1.4043l-.415-3.86816h15.8418v1.61133Z"/><path class="cls-4" d="M209.03711,136.34277a3.44621,3.44621,0,0,0-2.5332-1.03613,3.38422,3.38422,0,0,0-2.50977,1.0708,3.54052,3.54052,0,0,0-1.03613,2.56738,3.44392,3.44392,0,0,0,1.15137,2.61329,3.31687,3.31687,0,0,0,2.64843.97851v1.63477a4.96121,4.96121,0,0,1-3.8457-1.46192,5.35345,5.35345,0,0,1-.08106-7.57568,5.17082,5.17082,0,0,1,7.35743-.03418l5.41113,5.457v-7.13818h1.61133v11.02929Z"/><path class="cls-4" d="M204.47754,130.70508a5.37765,5.37765,0,0,1-1.65723-1.12842,5.06883,5.06883,0,0,1-1.51953-3.73,5.13027,5.13027,0,0,1,1.53027-3.73,5.2,5.2,0,0,1,6.98829-.36865l7.3916,6.125v2.11816l-5.75684-4.78906.29981.46045a5.89267,5.89267,0,0,1-1.4502,3.84521,4.81337,4.81337,0,0,1-3.73047,1.61182A5.15948,5.15948,0,0,1,204.47754,130.70508Zm5.33105-6.23975a3.80794,3.80794,0,0,0-.77148-1.16308,3.479,3.479,0,0,0-5.05469-.01123,3.56809,3.56809,0,0,0-1.07031,2.57861,3.47489,3.47489,0,0,0,1.03613,2.55615,3.43048,3.43048,0,0,0,2.50977,1.05908,3.53079,3.53079,0,0,0,2.55566-1.04785,3.44187,3.44187,0,0,0,1.082-2.55566A3.54493,3.54493,0,0,0,209.80859,124.46533Z"/><path class="cls-4" d="M206.9873,113.64355a4.93225,4.93225,0,0,1,.40333-1.95459,5.40572,5.40572,0,0,1,1.09375-1.65771,4.888,4.888,0,0,1,3.66113-1.52,5.17394,5.17394,0,0,1,3.76465,1.543,5.09728,5.09728,0,0,1,1.57714,3.77588,5.288,5.288,0,0,1-.95605,3.05127,5.04582,5.04582,0,0,1-2.49805,1.94531l-.50586-1.56543a3.49412,3.49412,0,0,0,1.68067-1.33545,3.3463,3.3463,0,0,0,.64453-1.8999,3.73391,3.73391,0,0,0-1.05957-2.77442,3.36311,3.36311,0,0,0-2.53223-1.082,3.59132,3.59132,0,0,0-2.55566,1.05909,3.25033,3.25033,0,0,0-1.083,2.42773,3.88,3.88,0,0,0,.73731,2.38428l-.78321,1.75-7.02246-1.7959v-6.88477H203.165v5.66455l4.19141,1.05909A7.35969,7.35969,0,0,1,206.9873,113.64355Z"/><path class="cls-4" d="M206.9873,100.98242a4.93221,4.93221,0,0,1,.40333-1.95459,5.4056,5.4056,0,0,1,1.09375-1.65771,4.888,4.888,0,0,1,3.66113-1.52,5.17394,5.17394,0,0,1,3.76465,1.543,5.09725,5.09725,0,0,1,1.57714,3.77588,5.28794,5.28794,0,0,1-.95605,3.05126,5.04584,5.04584,0,0,1-2.49805,1.94532l-.50586-1.56543a3.49418,3.49418,0,0,0,1.68067-1.33545,3.34635,3.34635,0,0,0,.64453-1.8999,3.73391,3.73391,0,0,0-1.05957-2.77442,3.36307,3.36307,0,0,0-2.53223-1.082,3.59135,3.59135,0,0,0-2.55566,1.05908,3.25037,3.25037,0,0,0-1.083,2.42774,3.88,3.88,0,0,0,.73731,2.38427l-.78321,1.75-7.02246-1.79589V96.44873H203.165v5.66455l4.19141,1.05908A7.35958,7.35958,0,0,1,206.9873,100.98242Z"/><path class="cls-4" d="M217.44141,75.04053a5.62445,5.62445,0,0,1-.25391,1.73828,5.52316,5.52316,0,0,1-.70215,1.439,4.97731,4.97731,0,0,1-2.49805,1.9458l-.52929-1.56591a3.40379,3.40379,0,0,0,1.71484-1.33545,3.36543,3.36543,0,0,0,.63379-1.8877,4.06869,4.06869,0,0,0-.28809-1.61181,3.79032,3.79032,0,0,0-.77148-1.16309,3.42216,3.42216,0,0,0-2.53223-1.09375,3.65686,3.65686,0,0,0-3.63867,3.66113,3.58443,3.58443,0,0,0,1.10547,2.625l-.99023,1.22022L203.165,74.269v5.15772h-1.61133V70.99951l5.80274,4.9043-.415-.69092a5.71282,5.71282,0,0,1,1.57714-3.74121,5.17092,5.17092,0,0,1,7.41407-.02344,5.4125,5.4125,0,0,1,1.10547,1.68115A4.88507,4.88507,0,0,1,217.44141,75.04053Z"/><path class="cls-4" d="M214.68945,67.09961a13.27873,13.27873,0,0,1-10.66015,0,4.56484,4.56484,0,0,1,0-8.3584,13.27873,13.27873,0,0,1,10.66015,0,4.56484,4.56484,0,0,1,0,8.3584ZM203.02734,63.001a2.57352,2.57352,0,0,0,.334,1.33545,3.20633,3.20633,0,0,0,.88672.96728,5.03539,5.03539,0,0,0,1.24316.65625,9.20149,9.20149,0,0,0,1.39258.3916,11.56981,11.56981,0,0,0,2.1582.25293q.87012,0,1.53809-.05761a13.28778,13.28778,0,0,0,1.38086-.19532,8.04384,8.04384,0,0,0,1.39355-.40332,5.17567,5.17567,0,0,0,1.21973-.66748,2.78509,2.78509,0,0,0,1.209-2.3374,2.62437,2.62437,0,0,0-1.21972-2.17578,8.17368,8.17368,0,0,0-3.99512-1.32373,10.99635,10.99635,0,0,0-1.13965-.06934,11.47152,11.47152,0,0,0-3.92578.668,3.95322,3.95322,0,0,0-2.12988,1.623A2.50528,2.50528,0,0,0,203.02734,63.001Z"/><path class="cls-4" d="M216.16309,54.04688a4.31272,4.31272,0,0,1-3.419,1.5083,4.20774,4.20774,0,0,1-2.24512-.6792,5.10025,5.10025,0,0,1-1.78418-1.9458,4.381,4.381,0,0,1-3.3623,1.86523,3.792,3.792,0,0,1-2.94727-1.27832,4.894,4.894,0,0,1,0-6.19385,3.807,3.807,0,0,1,2.96-1.27783,4.37078,4.37078,0,0,1,3.34961,1.86523,5.10025,5.10025,0,0,1,1.78418-1.9458,4.1537,4.1537,0,0,1,2.21-.6792,4.6314,4.6314,0,0,1,1.98047.40284,4.37091,4.37091,0,0,1,1.47364,1.10547,5.78312,5.78312,0,0,1,0,7.25293ZM203.626,52.33154a2.45508,2.45508,0,0,0,1.86523.80567,2.7174,2.7174,0,0,0,0-5.43408,2.45552,2.45552,0,0,0-1.86523.80615,2.84551,2.84551,0,0,0,0,3.82226Zm6.5625.44873a3.08386,3.08386,0,0,0,2.30175.95557,3.2952,3.2952,0,0,0,2.34864-.94385,3.33506,3.33506,0,0,0,0-4.74316,3.29566,3.29566,0,0,0-2.34864-.94434,3.08568,3.08568,0,0,0-2.30175.95557,3.42137,3.42137,0,0,0,0,4.72021Z"/><path class="cls-4" d="M204.47754,43.33154a5.37745,5.37745,0,0,1-1.65723-1.12841,5.06885,5.06885,0,0,1-1.51953-3.73,5.13028,5.13028,0,0,1,1.53027-3.73,5.20006,5.20006,0,0,1,6.98829-.36865l7.3916,6.125v2.11817l-5.75684-4.78907.29981.46045a5.89272,5.89272,0,0,1-1.4502,3.84522,4.81336,4.81336,0,0,1-3.73047,1.61181A5.15948,5.15948,0,0,1,204.47754,43.33154Zm5.33105-6.23974a3.808,3.808,0,0,0-.77148-1.16309,3.479,3.479,0,0,0-5.05469-.01123,3.56731,3.56731,0,0,0-1.07031,2.57861,3.473,3.473,0,0,0,1.03613,2.55567,3.42911,3.42911,0,0,0,2.50977,1.05957,3.53079,3.53079,0,0,0,2.55566-1.04785,3.44188,3.44188,0,0,0,1.082-2.55567A3.54489,3.54489,0,0,0,209.80859,37.0918Z"/><rect class="cls-5" x="151.24782" y="257.0285" width="6.1969" height="11.25273"/><path class="cls-5" d="M159.94036,268.2591a8.60773,8.60773,0,0,0,8.15283-8.56556v-2.665h-8.15283Z"/><rect class="cls-5" x="142.55519" y="257.0285" width="6.19699" height="11.25273"/><path class="cls-5" d="M140.05955,257.0285h-8.15274v2.665a8.60759,8.60759,0,0,0,8.15274,8.56556Z"/><path class="cls-5" d="M131.90681,236.93913v17.59373h36.18638V242.23293H141.69407v-13.8815H140.4945A8.61289,8.61289,0,0,0,131.90681,236.93913Z"/><rect class="cls-5" x="144.18971" y="228.35143" width="6.1969" height="11.38586"/><path class="cls-5" d="M161.57479,239.73729h6.5184v-2.79816a8.614,8.614,0,0,0-6.5184-8.32337Z"/><rect class="cls-5" x="152.88225" y="228.35143" width="6.19699" height="11.38586"/><path class="cls-4" d="M87.22363,259.55664a8.53946,8.53946,0,0,1,17.07862,0v5.07324H87.22363Zm13.6128.22559a5.0647,5.0647,0,0,0-10.12207,0v1.12988h10.12207Z"/><path class="cls-4" d="M104.30225,248.67871H87.22363v-3.76758h17.07862Z"/><path class="cls-4" d="M104.30225,230.26855l-3.44092,1.23047v6.50489l3.44092,1.23144v4.043l-17.07862-6.93164v-3.18945l17.07862-6.93262Zm-12.6084,4.4961L97.772,236.9248v-4.32031Z"/><path class="cls-4" d="M104.30225,207.43555,92.523,209.44434l11.7793,3.34082v3.69238L92.523,219.81738l11.7793,2.00977v4.14355l-17.07862-3.31445v-4.4707l11.98-3.56641-11.98-3.542v-4.4707l17.07862-3.31543Z"/><path class="cls-4" d="M104.55322,193.49219a8.79053,8.79053,0,1,1-8.79052-8.79A8.96728,8.96728,0,0,1,104.55322,193.49219Zm-13.83886,0a5.0359,5.0359,0,1,0,5.02343-5.02246A5.20973,5.20973,0,0,0,90.71436,193.49219Z"/><path class="cls-4" d="M104.30225,172.669,93.65332,178.5459h10.64893v3.76758H87.22363V178.5459L97.87256,172.669H87.22363v-3.76758h17.07862Z"/><path class="cls-4" d="M87.22363,160.8125a8.53946,8.53946,0,0,1,17.07862,0v5.07324H87.22363Zm13.6128.22559a5.0647,5.0647,0,0,0-10.12207,0V162.168h10.12207Z"/><path class="cls-4" d="M104.30225,139.8877v3.76757H87.22363v-6.40478a5.29512,5.29512,0,0,1,5.4751-5.22412,5.19312,5.19312,0,0,1,5.32471,3.89306l6.27881-4.89746v4.772l-6.103,4.06884v.02491Zm-14.11524,0h5.04834v-2.00928a2.3559,2.3559,0,0,0-2.53662-2.26026,2.37976,2.37976,0,0,0-2.51172,2.26026Z"/><path class="cls-4" d="M104.30225,119.91846v9.896H87.22363v-9.896h3.41553v6.12842h3.39063v-5.877h3.416v5.877h3.44092v-6.12842Z"/><path class="cls-4" d="M104.30225,98.91992v4.47071l-11.98047,3.5415,11.98047,3.56641v4.4707l-17.07862,3.31543v-4.144l11.7793-2.00928-11.7793-3.34082v-3.6919l11.7793-3.34033L87.22363,99.749V95.605Z"/><path class="cls-4" d="M104.30225,83.42041l-3.44092,1.231v6.50488l3.44092,1.23047v4.04394L87.22363,89.49854v-3.19l17.07862-6.93164ZM91.69385,87.916,97.772,90.07617V85.75635Z"/><path class="cls-4" d="M104.30225,73.97461v3.76758H87.22363V71.3374a5.29513,5.29513,0,0,1,5.4751-5.22412,5.19311,5.19311,0,0,1,5.32471,3.89307l6.27881-4.89746v4.772l-6.103,4.06885v.0249Zm-14.11524,0h5.04834V71.96533a2.35589,2.35589,0,0,0-2.53662-2.26025A2.37976,2.37976,0,0,0,90.187,71.96533Z"/><path class="cls-4" d="M87.22363,58.82764a8.53946,8.53946,0,0,1,17.07862,0v5.07373H87.22363Zm13.6128.22607a5.06468,5.06468,0,0,0-10.12207,0v1.13037h10.12207Z"/><path class="cls-4" d="M99.63086,38.28027c-3.31543,0-1.18066,9.87061-7.48486,9.87061-3.51612,0-5.17383-3.26514-5.17383-6.3794,0-3.51611,1.55713-6.68066,5.45019-6.80615v3.6416c-1.7832.20069-2.36084,1.23047-2.36084,3.11426,0,1.05518.50244,2.53662,1.78321,2.53662,3.03906,0,.854-9.87011,7.35888-9.87011,4.01856,0,5.50049,3.5913,5.50049,7.08251,0,3.76709-1.8584,7.208-6.02783,7.2334V44.88574c2.03418-.1001,2.96387-1.70752,2.96387-3.5664C101.64014,40.13916,101.1626,38.28027,99.63086,38.28027Z"/></g></g></svg>