<svg xmlns="http://www.w3.org/2000/svg" viewBox="0 0 300 300"><defs><style>.cls-1{fill:none;stroke:#fff;stroke-miterlimit:10;stroke-width:15px;}.cls-2{fill:#fff;}</style></defs><title>3Artboard 1</title><g id="Final"><circle class="cls-1" cx="150" cy="150" r="132.5"/><path class="cls-2" d="M159.85962,144.277c13.754-13.68,53.11063-58.06737-5.06207-67.15529a.87758.87758,0,0,1-.7457-.86582l.09723-16.46881a.87425.87425,0,0,0-1.4266-.68281L114.62833,90.15579a.87425.87425,0,0,0-.008,1.34872l37.72485,31.49916a.87426.87426,0,0,0,1.43457-.66592l.09655-16.35338a.8729.8729,0,0,1,.90541-.86924c4.39574.15276,22.63927,2.83169,3.69425,38.12664A.87364.87364,0,0,0,159.85962,144.277Z"/><path class="cls-2" d="M106.15918,187.88965a12.97417,12.97417,0,0,1-5.43994,10.96,18.66581,18.66581,0,0,1-5.8833,2.82129,25.57359,25.57359,0,0,1-7.13233.9668H60.06055V145.41748h30.625a11.29735,11.29735,0,0,1,5.39941,1.29,13.49338,13.49338,0,0,1,4.11035,3.34473,15.33275,15.33275,0,0,1,2.61914,4.67334,15.74935,15.74935,0,0,1,.92676,5.27929,15.58371,15.58371,0,0,1-2.09521,7.85742,12.76318,12.76318,0,0,1-6.125,5.44043A14.715,14.715,0,0,1,103.29785,178.5,15.0307,15.0307,0,0,1,106.15918,187.88965ZM71.18213,154.92773v14.42579h14.8291a6.59725,6.59725,0,0,0,4.79492-1.93457,7.10571,7.10571,0,0,0,1.97461-5.31934,7.35277,7.35277,0,0,0-1.81347-5.23828,5.8881,5.8881,0,0,0-4.47266-1.9336ZM94.95654,185.794a8.39868,8.39868,0,0,0-.52343-2.94141,8.19857,8.19857,0,0,0-1.41065-2.458,6.58836,6.58836,0,0,0-2.09521-1.65234,5.85881,5.85881,0,0,0-2.65967-.60449H71.18213V193.208H87.70361a7.25162,7.25162,0,0,0,2.86084-.56348,6.833,6.833,0,0,0,2.29688-1.57129,7.65412,7.65412,0,0,0,2.09521-5.27929Z"/><path class="cls-2" d="M125.33936,203.44336a16.03215,16.03215,0,0,1-5.72217-1.00684,13.76009,13.76009,0,0,1-4.59375-2.82129,13.12787,13.12787,0,0,1-3.022-4.23046,12.81071,12.81071,0,0,1-1.08837-5.31934,11.71683,11.71683,0,0,1,1.33007-5.52051,12.65548,12.65548,0,0,1,3.707-4.31152,18.3727,18.3727,0,0,1,5.68164-2.78027,24.772,24.772,0,0,1,7.25341-1.00782,31.27551,31.27551,0,0,1,5.52051.4834,22.52039,22.52039,0,0,1,4.79541,1.37012v-2.418a8.47123,8.47123,0,0,0-2.37744-6.44727q-2.37817-2.2544-7.05176-2.25586a18.68043,18.68043,0,0,0-6.60888,1.208,30.69164,30.69164,0,0,0-6.6084,3.54688l-3.3042-6.85059a31.1848,31.1848,0,0,1,17.56885-5.39941q9.1062,0,14.144,4.47265,5.0354,4.47217,5.03711,12.93457v13.13672a3.79725,3.79725,0,0,0,.604,2.418,2.64525,2.64525,0,0,0,1.97461.80567v9.1875a24.13988,24.13988,0,0,1-4.75488.56445,7.19789,7.19789,0,0,1-4.71436-1.37012,5.88292,5.88292,0,0,1-2.05517-3.62695l-.2417-2.33692a18.70472,18.70472,0,0,1-6.85059,5.64161A19.67729,19.67729,0,0,1,125.33936,203.44336Zm3.0625-7.89746a14.05757,14.05757,0,0,0,5.19775-.96777A9.43033,9.43033,0,0,0,137.42773,192a3.88117,3.88117,0,0,0,1.77344-3.0625v-4.83594a26.5312,26.5312,0,0,0-4.19092-1.16894,22.70478,22.70478,0,0,0-4.35205-.44336,11.5416,11.5416,0,0,0-6.85009,1.89453,5.68655,5.68655,0,0,0-2.65967,4.79492,5.768,5.768,0,0,0,2.09521,4.55371A7.60389,7.60389,0,0,0,128.40186,195.5459Z"/><path class="cls-2" d="M157.41406,181.52246a22.97443,22.97443,0,0,1,1.53125-8.38183,20.39577,20.39577,0,0,1,4.43262-6.93067,21.59362,21.59362,0,0,1,7.01074-4.75488,23.20343,23.20343,0,0,1,9.26856-1.77246,22.2192,22.2192,0,0,1,11.80664,2.98144,19.05536,19.05536,0,0,1,7.29394,7.81739l-10.55761,3.22363a9.49691,9.49691,0,0,0-3.627-3.58594,10.1445,10.1445,0,0,0-4.99707-1.249,10.29275,10.29275,0,0,0-4.35156.92676,10.69707,10.69707,0,0,0-3.50586,2.57812,11.94151,11.94151,0,0,0-2.33691,3.99023,15.04761,15.04761,0,0,0-.84668,5.15723,14.41389,14.41389,0,0,0,.88672,5.1582,12.96468,12.96468,0,0,0,2.37792,4.0293,10.416,10.416,0,0,0,3.50586,2.61914,10.08577,10.08577,0,0,0,4.27051.92676,10.36013,10.36013,0,0,0,5.35938-1.4502,8.15417,8.15417,0,0,0,3.42578-3.54589L198.919,192.4834a17.75373,17.75373,0,0,1-7.17286,7.89746,22.53329,22.53329,0,0,1-12.00879,3.0625,23.20207,23.20207,0,0,1-9.26757-1.77246,20.99772,20.99772,0,0,1-11.48438-11.80664A22.5563,22.5563,0,0,1,157.41406,181.52246Z"/><path class="cls-2" d="M234.37891,202.6377l-12.25-18.29395-5.80176,5.72168V202.6377H205.52734V143.80615h10.79981v35.70166L233.251,160.48828h11.52441l-15.71484,17.8916L245.9043,202.6377Z"/></g></svg>