<svg id="Light_Bg" data-name="Light Bg" xmlns="http://www.w3.org/2000/svg" xmlns:xlink="http://www.w3.org/1999/xlink" viewBox="0 0 300 300"><defs><style>.cls-1,.cls-12{fill:none;}.cls-2{fill:#ffe3ee;}.cls-3{clip-path:url(#clip-path);}.cls-4{fill:#f073ab;}.cls-5{fill:#f186b6;}.cls-6{fill:#f5accc;}.cls-7{fill:#f399c0;}.cls-8{fill:#231f20;}.cls-9{fill:#c65e8f;}.cls-10{fill:#90278e;}.cls-11{fill:#fff;opacity:0.4;}.cls-12{stroke:#90278e;stroke-miterlimit:10;stroke-width:15px;}</style><clipPath id="clip-path"><circle class="cls-1" cx="150.5" cy="150.5" r="136.5"/></clipPath></defs><title>2Artboard 1</title><circle id="background" class="cls-2" cx="150.5" cy="150.5" r="138.5"/><g class="cls-3"><path class="cls-4" d="M151.93562,189.34326C106.64405,189.34326,69.923,238.88518,69.923,300H233.9534C233.9534,238.88518,197.23236,189.34326,151.93562,189.34326Z"/><path class="cls-5" d="M193.91522,93.40821c11.27478-22.54569,33.825-26.78984,54.55589-19.94008,20.7317,6.84992,43.64563-2.98671,43.64563-2.98671s4.23733-1.08725,0,5.47216c-11.27633,17.45463-21.43877,62.2942-48.29132,67.64991C214.64615,149.42344,193.91522,134.86711,193.91522,93.40821Z"/><path class="cls-5" d="M110.11364,93.40821C98.83824,70.86252,76.28868,66.61837,55.557,73.46813c-20.73092,6.84992-43.6447-2.98671-43.6447-2.98671s-4.23749-1.08725,0,5.47216c11.27462,17.45463,21.43862,62.2942,48.29194,67.64991C89.38272,149.42344,110.11364,134.86711,110.11364,93.40821Z"/><path class="cls-6" d="M73.28385,77.35781a49.72372,49.72372,0,0,0-15.56956,2.63968,58.02082,58.02082,0,0,1-18.22287,2.77193A64.37522,64.37522,0,0,1,29.15894,82.045c-3.72182-.66913-5.47526,1.59393-3.89634,5.02989,0,0,.66681,1.45317,2.48451,5.60967,7.99167,18.272,17.93716,41.01122,33.80158,44.17648a53.30562,53.30562,0,0,0,10.35446,1.09561h.00078c.00077,0,3.04045-.58148,6.75452-1.2915,0,0,10.393-1.98713,15.54835-8.45516,5.77769-7.24665,8.164-26.31488,8.164-26.31488a14.34994,14.34994,0,0,0-4.35827-11.30575S82.62215,77.35781,73.28385,77.35781ZM274.86931,82.045a64.3594,64.3594,0,0,1-10.33186.72442,58.032,58.032,0,0,1-18.22287-2.77193A49.72307,49.72307,0,0,0,230.745,77.35781c-9.33814,0-24.72776,13.23155-24.72776,13.23155a12.17042,12.17042,0,0,0-3.51679,11.14624s9.22634,36.221,29.626,36.221a53.31308,53.31308,0,0,0,10.35384-1.09561c15.86441-3.16526,25.81053-25.90452,33.80142-44.17648,1.81771-4.1565,2.4839-5.60967,2.4839-5.60967C280.34441,83.63893,278.59174,81.37587,274.86931,82.045Z"/><path class="cls-7" d="M208.23727,93.49585c-26.70219-26.7028-85.74194-26.70357-112.44474,0-26.70219,26.703-9.51066,120.12344,17.19,146.82392,17.53314,17.5333,60.53148,17.53407,78.06477.00078C217.7487,213.61852,234.9393,120.19881,208.23727,93.49585Z"/><path class="cls-8" d="M119.61964,152.42828a9.28047,9.28047,0,1,1-9.28008-9.28007A9.28123,9.28123,0,0,1,119.61964,152.42828Z"/><path class="cls-8" d="M202.97015,152.42828a9.28039,9.28039,0,1,1-9.28007-9.28007A9.28122,9.28122,0,0,1,202.97015,152.42828Z"/><path class="cls-4" d="M181.54948,219.48c0,18.54342-13.13491,21.196-29.33722,21.196s-29.33815-2.65253-29.33815-21.196c0-18.98725,13.13569-32.02677,29.33815-32.02677S181.54948,200.49274,181.54948,219.48Z"/><path class="cls-9" d="M143.9643,221.28112a5.38823,5.38823,0,1,1-5.38667-5.389A5.38678,5.38678,0,0,1,143.9643,221.28112Z"/><path class="cls-9" d="M171.23574,221.28112a5.38854,5.38854,0,1,1-5.389-5.389A5.38828,5.38828,0,0,1,171.23574,221.28112Z"/><path class="cls-10" d="M82.2841,130.89815c1.12519-17.38959,23.24053-46.84931,40.8751-49.91778,26.89808-3.96587,77.03127-1.39278,98.99547,50.31854,11.12565-11.25279,7.04039-37.3992-20.42245-50.31854-32.4918-15.28525-72.8853-3.98942-78.573-3.06833-6.60787-1.842-40.8751,9.81913-46.19147,37.43776C74.514,128.09508,82.2841,130.89815,82.2841,130.89815Z"/><path class="cls-10" d="M137.04718,73.17034c-4.865,6.55414-14.04438,5.488-14.04438,5.488s-3.67784-8.477,1.18713-15.03113c4.86419-6.5543,16.42994-8.70246,16.42994-8.70246S141.91215,66.61605,137.04718,73.17034Z"/><path class="cls-10" d="M108.159,72.72343c5.74285,7.736,16.5797,6.47779,16.5797,6.47779s4.34108-10.00743-1.401-17.745c-5.74362-7.73755-19.3956-10.27286-19.3956-10.27286S102.4162,64.98588,108.159,72.72343Z"/><path class="cls-10" d="M131.606,77.21782a7.0846,7.0846,0,1,1-7.08422-7.085A7.084,7.084,0,0,1,131.606,77.21782Z"/><path class="cls-8" d="M194.38939,125.42754c-20.64482,0-31.06123,5.56507-42.17713,5.56507s-21.53246-5.56507-42.17729-5.56507c-17.3343,0-33.98817,5.40108-33.98817,5.40108v10.94647a3.61436,3.61436,0,0,1,3.77307,3.38825c1.69986,20.47837,8.0437,35.83934,28.18726,35.83934,21.67385,0,30.05483-10.25629,34.01017-22.45416v.00061c3.10006-8.71067,6.595-14.87611,10.195-14.87611,3.59917,0,7.09474,6.16544,10.195,14.87611l.00062-.00061c3.95472,12.19787,12.3357,22.45416,34.00954,22.45416,20.1434,0,26.48725-15.361,28.1871-35.83934a3.61487,3.61487,0,0,1,3.77308-3.38825V130.82862S211.72293,125.42754,194.38939,125.42754Zm-84.86776,52.174c-18.89279,0-24.69154-13.1425-25.53241-30.85869-.58148-12.25393,12.22359-17.15358,27.301-17.15358,15.0796,0,28.98182,3.09713,28.98182,15.8342C140.27206,159.7454,131.86228,177.60157,109.52163,177.60157Zm110.91351-30.85869c-.83932,17.71619-6.63962,30.85869-25.53162,30.85869-22.34143,0-30.752-17.85617-30.752-32.17807,0-12.73707,13.90377-15.8342,28.9826-15.8342C208.21233,129.5893,221.0174,134.489,220.43514,146.74288Z"/><path class="cls-11" d="M109.52163,177.60157c-18.89279,0-24.69154-13.1425-25.53241-30.85869-.58148-12.25393,12.22359-17.15358,27.301-17.15358,15.0796,0,28.98182,3.09713,28.98182,15.8342C140.27206,159.7454,131.86228,177.60157,109.52163,177.60157Z"/><path class="cls-11" d="M220.43514,146.74288c-.83932,17.71619-6.63962,30.85869-25.53162,30.85869-22.34143,0-30.752-17.85617-30.752-32.17807,0-12.73707,13.90377-15.8342,28.9826-15.8342C208.21233,129.5893,221.0174,134.489,220.43514,146.74288Z"/></g><circle id="outline" class="cls-12" cx="150.5" cy="150.5" r="136.5"/></svg>