<svg xmlns="http://www.w3.org/2000/svg" xmlns:xlink="http://www.w3.org/1999/xlink" viewBox="0 0 300 300"><defs><style>.cls-1,.cls-21{fill:none;}.cls-2{isolation:isolate;}.cls-3{fill:#ffecd9;}.cls-4{clip-path:url(#clip-path);}.cls-5{fill:#f25a28;}.cls-6{fill:#ffdca3;}.cls-7{fill:#f6f3cf;}.cls-8{fill:#251f21;}.cls-9{fill:#e96332;}.cls-10{fill:#07171b;}.cls-11{fill:#a84720;}.cls-12{fill:#191009;}.cls-13{fill:#fff;}.cls-14{opacity:0.5;mix-blend-mode:screen;}.cls-15{clip-path:url(#clip-path-2);}.cls-16{fill:#e6e6e6;}.cls-17{clip-path:url(#clip-path-3);}.cls-18{clip-path:url(#clip-path-4);}.cls-19{clip-path:url(#clip-path-5);}.cls-20{fill:#351905;}.cls-21{stroke:#f25a28;stroke-miterlimit:10;stroke-width:15px;}</style><clipPath id="clip-path"><circle class="cls-1" cx="151" cy="151" r="140"/></clipPath><clipPath id="clip-path-2"><rect class="cls-1" x="90.18936" y="122.55663" width="21.94031" height="55.24361"/></clipPath><clipPath id="clip-path-3"><rect class="cls-1" x="169.30855" y="118.58932" width="22.64533" height="58.4175"/></clipPath><clipPath id="clip-path-4"><rect class="cls-1" x="81.24994" y="125.99314" width="18.63451" height="50.57922"/></clipPath><clipPath id="clip-path-5"><rect class="cls-1" x="156.75682" y="119.51663" width="21.67351" height="53.52485"/></clipPath></defs><title>4Artboard 1</title><g class="cls-2"><g id="Light_Bg" data-name="Light Bg"><circle id="background" class="cls-3" cx="150.5" cy="150.5" r="139.5"/><g class="cls-4"><path class="cls-5" d="M151.02605,186.34016c-43.54568,0-78.85121,47.63219-78.85121,106.39117H229.88223C229.88223,233.97235,194.5767,186.34016,151.02605,186.34016Z"/><path class="cls-6" d="M130.00055,216.73378c6.2701,13.07836,25.23915,27.6359,41.15468,0-.966-11.9087-12.64845-14.90976-20.14845-14.90976C136.549,201.824,130.00055,216.73378,130.00055,216.73378Z"/><path class="cls-7" d="M247.84648,177.77024a22.89023,22.89023,0,0,0-4.52016-2.43947c.48114.30057.92535.56358,1.3465.80415A26.57246,26.57246,0,0,1,247.84648,177.77024Z"/><path class="cls-7" d="M247.84648,177.77024a26.57246,26.57246,0,0,0-3.17366-1.63532A32.59926,32.59926,0,0,0,247.84648,177.77024Z"/><path class="cls-7" d="M58.58912,175.33077a22.952,22.952,0,0,0-4.52593,2.43947,26.50062,26.50062,0,0,1,3.17468-1.63532C57.65882,175.89435,58.106,175.63134,58.58912,175.33077Z"/><path class="cls-7" d="M54.06319,177.77024a32.94884,32.94884,0,0,0,3.17468-1.63532A26.50062,26.50062,0,0,0,54.06319,177.77024Z"/><path class="cls-8" d="M179.928,89.863C194.88521,29.22515,244.1994,8,244.1994,8s35.2513,92.02751-32.13581,113.96782Z"/><path class="cls-6" d="M187.1252,95.44338c19.26206-57.59884,50.1096-67.645,50.1096-67.645s26.6631,55.00324-31.90875,88.55207Z"/><path class="cls-8" d="M121.911,89.863C106.95374,29.22515,57.63856,8,57.63856,8S22.38728,100.02751,89.76841,121.96782Z"/><path class="cls-6" d="M114.71256,95.44338c-19.26107-57.59884-50.11437-67.645-50.11437-67.645S37.94186,82.80166,96.5127,116.35049Z"/><path class="cls-6" d="M171.15523,216.73378a21.89155,21.89155,0,0,0-9.74257-10.88146c3.60457-5.845,15.63049-21.362,42.67379-30.37991,19.97207-6.65907,37.12142-2.46291,43.72328,2.29783C247.80973,177.77024,227.63963,203.4943,171.15523,216.73378Z"/><path class="cls-6" d="M130.68054,216.73378a21.90905,21.90905,0,0,1,9.74158-10.88146c-3.60159-5.845-15.63027-21.362-42.66982-30.37991-19.97781-6.65907-37.12418-2.46291-43.72705,2.29783C54.02525,177.77024,74.19714,203.4943,130.68054,216.73378Z"/><path class="cls-5" d="M224.89066,151.212c.04092-.95155.1476-1.88662.1476-2.85187a74.18866,74.18866,0,0,0-74.049-74.18762v-.00378c-.02721,0-.05045.00179-.06992.00179-.02722,0-.05046-.00179-.07172-.00179v.00378a74.19151,74.19151,0,0,0-74.05094,74.18762c0,.96525.10767,1.90032.1474,2.85187-3.4385,14.00469-14.30823,21.80522-19.748,24.92667,8.465-3.69278,22.64155-5.31359,40.55614-.66629,20.7762,5.39007,39.06823,22.79174,42.66982,30.37991a20.9359,20.9359,0,0,1,20.99054,0c3.60457-7.58817,21.89462-24.98984,42.67379-30.37991,17.90983-4.6473,32.08536-3.02649,40.54741.66529C239.19611,173.01546,228.33035,165.21473,224.89066,151.212Z"/><path class="cls-5" d="M244.63386,176.1377a33.0101,33.0101,0,0,0,3.17587,1.63254A26.1913,26.1913,0,0,0,244.63386,176.1377Z"/><path class="cls-5" d="M57.19616,176.1387a26.48051,26.48051,0,0,0-3.17091,1.63154A32.60592,32.60592,0,0,0,57.19616,176.1387Z"/><path class="cls-1" d="M97.78528,175.47241a99.43981,99.43981,0,0,1,18.36295,8.20023c.01649-.09317.029-.18535.04549-.27653A71.30276,71.30276,0,0,0,97.78528,175.47241Z"/><path class="cls-9" d="M150.88263,74.16876v.00378c.027,0,.04648-.00378.0737-.00378Z"/><path class="cls-10" d="M140.42808,205.79412l-.003.004a.36245.36245,0,0,1,.03.05423A.53016.53016,0,0,0,140.42808,205.79412Z"/><path class="cls-11" d="M151.02605,74.16876h-.06972c.02324,0,.04648.00378.06972.00378Z"/><path class="cls-11" d="M140.42808,205.79412a.53016.53016,0,0,1,.027.0582,21.77367,21.77367,0,0,1,10.42751-2.81671v-.00874A21.67325,21.67325,0,0,0,140.42808,205.79412Z"/><path class="cls-11" d="M150.88263,203.02687v.00874c.027,0,.04648-.004.0737-.005C150.92911,203.03065,150.90964,203.02687,150.88263,203.02687Z"/><path class="cls-12" d="M156.90422,191.22585c7.36806,0,9.67463,4.74723,5.12149,10.54295l-2.90988,3.713c-4.54917,5.7995-11.9969,5.7995-16.545,0l-2.91189-3.713c-4.54837-5.79572-2.24081-10.54295,5.12348-10.54295Z"/><path class="cls-12" d="M128.25657,215.5494s12.76886,4.00307,22.30009-5.718c8.38654,6.67158,13.72337,8.6309,22.87236,3.26686-9.3391,10.26543-19.89653,7.078-23.14017,6.31559C143.04792,221.3199,130.16364,220.88624,128.25657,215.5494Z"/><path class="cls-13" d="M108.28651,137.281s24.62888-7.14021,24.075,17.90307c0,0-24.075,8.74156-24.075-17.90307"/><path class="cls-12" d="M127.87835,145.04483a5.96985,5.96985,0,1,1-5.97135-5.97233A5.96931,5.96931,0,0,1,127.87835,145.04483Z"/><path class="cls-13" d="M125.87908,142.78673a1.39922,1.39922,0,1,1-1.39872-1.4017A1.39973,1.39973,0,0,1,125.87908,142.78673Z"/><path class="cls-13" d="M192.86947,137.281s-24.62809-7.14021-24.07325,17.90307c0,0,24.07325,8.74156,24.07325-17.90307"/><path class="cls-12" d="M172.74605,145.04483a5.97322,5.97322,0,1,0,5.97511-5.97233A5.97315,5.97315,0,0,0,172.74605,145.04483Z"/><path class="cls-13" d="M174.51924,142.24242a1.39971,1.39971,0,1,0,1.4007-1.4015A1.40147,1.40147,0,0,0,174.51924,142.24242Z"/><path d="M180.23629,230.13118c-4.101-1.36078-24.55618,10.39734-24.55618,10.39734a6.98188,6.98188,0,0,0-10.12855,0s-20.48813-12.40315-24.38355-10.116c-3.89659,2.2873-4.039,26.5312,0,28.92319,4.03128,2.39,24.76476-9.73781,24.76476-9.73781a6.99124,6.99124,0,0,0,9.36315.001s21.41945,12.578,24.764,9.73681C183.40819,256.49074,184.34524,231.49216,180.23629,230.13118Z"/><g class="cls-14"><g class="cls-15"><polygon class="cls-16" points="90.189 124.754 105.607 177.535 112.13 177.8 95.478 122.557 90.189 124.754"/></g></g><g class="cls-14"><g class="cls-17"><polygon class="cls-16" points="169.309 119.121 185.79 176.655 191.954 177.006 175.303 118.589 169.309 119.121"/></g></g><g class="cls-14"><g class="cls-18"><path class="cls-16" d="M84.64016,125.99314l-.01172.003c.12893,2.40172-1.58982,4.11769-2.72572,6.33507a2.96863,2.96863,0,0,1-.65278.85063v2.89737L91.33,172.24906c2.14187.98751,2.31152,1.78291,4.49313,2.73546,1.33277.58285,2.70229,1.07948,4.06128,1.58784Z"/></g></g><g class="cls-14"><g class="cls-19"><polygon class="cls-16" points="156.757 121.5 172.482 169.87 178.43 173.041 162.965 119.517 156.757 121.5"/></g></g><path class="cls-20" d="M225.49417,139.93188c-.51034-.65655-1.38521-.51213-1.82563-2.11845-.43443-1.60631-4.52592-12.49432-9.0596-14.97948-4.52791-2.48118-13.19577-6.71906-34.23677-8.18175-16.27649-.40267-26.12177-.74316-28.927-.84587v-.03019s-.14162.005-.4132.01569c-.27752-.01073-.42114-.01569-.42114-.01569v.03019c-2.80519.10271-12.65245.4432-28.923.84587-21.041,1.46269-29.71461,5.70057-34.24074,8.18175-4.53268,2.48516-8.62415,13.37317-9.05861,14.97948-.43942,1.60632-1.31826,1.4619-1.82563,2.11845-.51491.65675.07291,4.52712,1.67823,7.01605,1.75175,13.95224,7.59791,21.91587,11.249,26.15276,3.65384,4.23986,13.73989,6.2856,20.75276,5.99258,15.48684-2.63057,18.11662-7.30787,24.84045-13.88331,6.721-6.57365,12.03285-24.54565,12.81177-26.59436a3.30039,3.30039,0,0,1,6.26614,0c.78371,2.04871,6.09151,20.02071,12.81157,26.59436,6.72383,6.57544,9.3546,11.25274,24.84522,13.88331,7.01307.293,17.09516-1.75272,20.75-5.99258,3.65305-4.23689,9.49227-12.20052,11.25-26.15276,1.6083-2.48893,2.18837-6.3593,1.67624-7.01605m-82.66159,2.62977c-1.1776,5.26115-5.26611,15.92905-9.94418,21.042-4.67454,5.11474-7.72507,9.7096-19.53285,12.27421-6.76654.87488-16.85256.14542-21.5249-5.40576C87.15236,164.91893,82.48,156.11341,82.48,147.72963c0-8.3806.58283-11.4496.58283-11.4496s2.77619-9.49823,10.08108-12.56624c7.30788-3.069,18.99825-5.11474,31.71091-4.23987,12.71163.87885,16.94951,2.92637,17.97774,5.70057,1.01753,2.77718,1.16689,12.1288,0,17.38716m67.39386,27.91045c-4.67154,5.55118-14.75738,6.28064-21.52591,5.40576-11.80679-2.56461-14.85254-7.15947-19.53183-12.27421-4.67532-5.11295-8.76659-15.78085-9.94043-21.042-1.17166-5.25836-1.0185-14.61,0-17.38716,1.02445-2.7742,5.26511-4.82172,17.974-5.70057,12.71265-.87487,24.40679,1.17087,31.71091,4.23987,7.30786,3.068,10.08007,12.56624,10.08007,12.56624s.5898,3.069.5898,11.4496c0,8.38378-4.6773,17.1893-9.35659,22.74247"/></g><circle id="outline" class="cls-21" cx="150.5" cy="150.5" r="136.5"/></g></g></svg>