<svg id="Layer_1" data-name="Layer 1" xmlns="http://www.w3.org/2000/svg" viewBox="0 0 300 300"><defs><style>.cls-1{fill:#37bf86;}</style></defs><title>call-icon</title><path id="path0_fill" data-name="path0 fill" class="cls-1" d="M252.54954,255.27445l-16.85429,16.83522c-3.0114,2.99232-11.82547,4.88323-12.08978,4.88323A198.82237,198.82237,0,0,1,22.8806,76.01852c0-.0312,1.93238-8.58833,4.9355-11.56489L44.67018,47.60229c6.18459-6.16994,18.02523-8.96044,26.32039-6.20114l3.55388,1.19355C82.8397,45.354,91.50681,54.50051,93.80379,62.91821l8.48884,31.11349c2.30435,8.43364-.79163,20.43243-6.96815,26.60168l-11.267,11.25526a119.45853,119.45853,0,0,0,84.09847,84.03919l11.26739-11.25439c6.177-6.171,18.22-9.25516,26.66234-6.9613l31.14694,8.496c8.412,2.27913,17.56836,10.92854,20.34577,19.22268l1.18031,3.54955C261.51961,237.27626,258.7266,249.10432,252.54954,255.27445ZM165.88978,149.99689h15.89151a31.767,31.767,0,0,0-31.783-31.74922v15.87417A15.90893,15.90893,0,0,1,165.88978,149.99689Zm63.56689,0a79.40977,79.40977,0,0,0-79.4584-79.3734v15.875a63.60537,63.60537,0,0,1,63.5669,63.49836ZM149.99827,23V38.87452c61.332,0,111.24143,49.85591,111.24143,111.12237h15.8915A127.07076,127.07076,0,0,0,149.99827,23Z"/></svg>