<?xml version="1.0" encoding="utf-8"?>
<!-- Generator: Adobe Illustrator 22.0.1, SVG Export Plug-In . SVG Version: 6.00 Build 0)  -->
<svg version="1.1" xmlns="http://www.w3.org/2000/svg" xmlns:xlink="http://www.w3.org/1999/xlink" x="0px" y="0px"
	 viewBox="0 0 300 300" style="enable-background:new 0 0 300 300;" xml:space="preserve">
<style type="text/css">
	.st0{display:none;}
	.st1{display:inline;}
	.st2{fill:#F57E25;}
	.st3{fill:#FFFFFF;}
	.st4{fill:#3A3A49;}
	.st5{fill:#4A4A5E;}
	.st6{fill:#DFD7D5;}
	.st7{fill:#964F38;}
	.st8{fill:#F7C948;}
	.st9{fill:#7C4E3E;}
	.st10{fill:#B22512;}
	.st11{fill:#B7F94E;}
	.st12{fill:#FFFAF0;}
	.st13{fill:#F7EA92;}
</style>
<g id="Alt" class="st0">
	<g class="st1">
		<path class="st2" d="M-50,106c0,45.2-67,147.7-91.3,183.4c-4.2,6.1-13.2,6.1-17.4,0C-183,253.7-250,151.2-250,106
			c0-55.2,44.8-100,100-100S-50,50.8-50,106z"/>
		<circle class="st3" cx="-150" cy="106" r="75"/>
	</g>
	<g class="st1">
		<rect x="-187.7" y="62.9" class="st4" width="75.5" height="14.1"/>
		<polygon class="st5" points="-119.4,62.9 -180.6,62.9 -178.1,51.2 -121.9,51.2 		"/>
		<path class="st6" d="M-117.1,77l-8.6,75.7c-0.3,2.4-2.4,4.2-4.9,4.2h-39c-2.4,0-4.5-1.8-4.9-4.2l-8.4-75.7H-117.1z"/>
		<path class="st7" d="M-122.1,128.7h-56.2c-1.2,0-2.1-0.9-2.3-2.1l-2.8-25.9c-0.1-1.4,0.9-2.6,2.3-2.6h61.7c1.4,0,2.4,1.2,2.3,2.6
			l-2.8,25.9C-120,127.8-121,128.7-122.1,128.7z"/>
		<circle class="st3" cx="-148.8" cy="113.4" r="10.6"/>
		<rect x="-190" y="72.3" class="st4" width="79.9" height="4.7"/>
		<rect x="-138.2" y="49" class="st5" width="9.4" height="3.5"/>
	</g>
</g>
<g id="Final">
	<g>
		<path class="st3" d="M250,106c0,45.2-67,147.7-91.3,183.4c-4.2,6.1-13.2,6.1-17.4,0C117,253.7,50,151.2,50,106
			C50,50.8,94.8,6,150,6S250,50.8,250,106z"/>
		<circle class="st2" cx="150" cy="106" r="75"/>
	</g>
	<g>
		<g>
			<path class="st8" d="M190.6,100.9l-81.3,0c-1.4,0-2.5-1-2.5-2.3l0,0c0-20.5,17.6-37.1,39.2-37.1h7.8c21.6,0,39.2,16.6,39.2,37.1
				v0C193.1,99.8,192,100.9,190.6,100.9z"/>
			<path class="st8" d="M188.1,142.5h-76.4c-2.6,0-4.8-2.1-4.8-4.8v-11.3c0-0.8,0.6-1.4,1.4-1.4h83.2c0.8,0,1.4,0.6,1.4,1.4v11.3
				C192.9,140.4,190.7,142.5,188.1,142.5z"/>
			<path class="st9" d="M191.8,118.1h-83.7c-3.4,0-6.2-2.8-6.2-6.2l0,0c0-3.4,2.8-6.2,6.2-6.2h83.7c3.4,0,6.2,2.8,6.2,6.2l0,0
				C198,115.3,195.2,118.1,191.8,118.1z"/>
		</g>
		<polygon class="st10" points="190.6,105.8 109.4,105.8 109.4,100.9 190.6,100.9 		"/>
		<path class="st11" d="M193.3,127.4h-1.6l-2.6-1.3c-1.3-0.7-2.9-0.7-4.2,0l-0.5,0.2c-1.3,0.7-2.9,0.7-4.2,0l-0.5-0.2
			c-1.3-0.7-2.9-0.7-4.2,0l-0.5,0.2c-1.3,0.7-2.9,0.7-4.2,0l-0.5-0.2c-1.3-0.7-2.9-0.7-4.2,0l-0.5,0.2c-1.3,0.7-2.9,0.7-4.2,0
			l-0.5-0.2c-1.3-0.7-2.9-0.7-4.2,0l-0.5,0.2c-1.3,0.7-2.9,0.7-4.2,0l-0.5-0.2c-1.3-0.7-2.9-0.7-4.2,0l-0.5,0.2
			c-1.3,0.7-2.9,0.7-4.2,0l-0.5-0.2c-1.3-0.7-2.9-0.7-4.2,0l-0.5,0.2c-1.3,0.7-2.9,0.7-4.2,0l-0.5-0.2c-1.3-0.7-2.9-0.7-4.2,0
			l-0.5,0.2c-1.3,0.7-2.9,0.7-4.2,0l-0.5-0.2c-1.3-0.7-2.9-0.7-4.2,0l-0.5,0.2c-1.3,0.7-2.9,0.7-4.2,0l-0.5-0.2
			c-1.4-0.7-3-0.7-4.3,0l-2.4,1.2c-2.6,0-4.7-2.1-4.7-4.7l0,0c0-2.6,2.1-4.7,4.7-4.7h86.5c2.6,0,4.7,2.1,4.7,4.7l0,0
			C198,125.3,195.9,127.4,193.3,127.4z"/>
		<path class="st12" d="M131.3,82.9c-0.3,0.6-1.6,0.5-2.7-0.1c-1.2-0.6-1.9-1.6-1.5-2.2c0.3-0.6,1.6-0.5,2.7,0.1
			C131,81.4,131.7,82.3,131.3,82.9z"/>
		<path class="st12" d="M141.2,78.7c0.3,0.6-0.6,1.5-1.8,2c-1.3,0.5-2.5,0.4-2.7-0.2c-0.3-0.6,0.6-1.5,1.8-2
			C139.7,78.1,140.9,78.2,141.2,78.7z"/>
		<path class="st12" d="M150.8,83.3c-0.3,0.6-1.6,0.5-2.7-0.1c-1.2-0.6-1.9-1.6-1.5-2.2c0.3-0.6,1.6-0.5,2.7,0.1
			S151.1,82.7,150.8,83.3z"/>
		<path class="st12" d="M158.5,76.8c0.5,0.4,0.3,1.5-0.5,2.6c-0.8,1-2,1.5-2.5,1.1c-0.5-0.4-0.3-1.5,0.5-2.6
			C156.8,76.9,157.9,76.4,158.5,76.8z"/>
		<path class="st12" d="M168,83.3c-0.3,0.6-1.6,0.5-2.7-0.1c-1.2-0.6-1.9-1.6-1.5-2.2c0.3-0.6,1.6-0.5,2.7,0.1
			C167.7,81.7,168.4,82.7,168,83.3z"/>
		<path class="st12" d="M175.9,80.5c0.3,0.6-0.5,1.5-1.7,2c-1.2,0.5-2.5,0.5-2.8-0.1c-0.3-0.6,0.5-1.5,1.7-2
			C174.4,79.9,175.6,79.9,175.9,80.5z"/>
		<path class="st12" d="M136.7,75.2c-0.1,0.6-1.2,1-2.6,0.9c-1.4-0.1-2.4-0.8-2.3-1.4c0.1-0.6,1.2-1,2.6-0.9
			C135.7,74,136.8,74.6,136.7,75.2z"/>
		<path class="st12" d="M148.8,74.1c0.2,0.6-0.7,1.4-2,1.8c-1.3,0.4-2.5,0.2-2.7-0.5c-0.2-0.6,0.7-1.4,2-1.8
			C147.4,73.2,148.6,73.4,148.8,74.1z"/>
		<path class="st12" d="M166,74.8c-0.1,0.6-1.2,1.1-2.6,0.9c-1.4-0.1-2.4-0.7-2.3-1.4c0.1-0.6,1.2-1.1,2.6-0.9
			C165.1,73.6,166.1,74.2,166,74.8z"/>
		<polygon class="st13" points="146.3,105.6 166,115.4 183.2,105.6 		"/>
	</g>
</g>
</svg>
