<?xml version="1.0" encoding="utf-8"?>
<!-- Generator: Adobe Illustrator 22.0.1, SVG Export Plug-In . SVG Version: 6.00 Build 0)  -->
<svg version="1.1" xmlns="http://www.w3.org/2000/svg" xmlns:xlink="http://www.w3.org/1999/xlink" x="0px" y="0px"
	 viewBox="0 0 300 300" style="enable-background:new 0 0 300 300;" xml:space="preserve">
<style type="text/css">
	.st0{display:none;}
	.st1{display:inline;}
	.st2{fill:#F57E25;}
	.st3{fill:#FFFFFF;}
	.st4{fill:#3A3A49;}
	.st5{fill:#4A4A5E;}
	.st6{fill:#DFD7D5;}
	.st7{fill:#964F38;}
	.st8{fill:#C2C2C2;}
	.st9{fill:#FF1C1C;}
	.st10{fill:#FFDBDB;}
</style>
<g id="Alt" class="st0">
	<g class="st1">
		<path class="st2" d="M-50,106c0,45.2-67,147.7-91.3,183.4c-4.2,6.1-13.2,6.1-17.4,0C-183,253.7-250,151.2-250,106
			c0-55.2,44.8-100,100-100S-50,50.8-50,106z"/>
		<circle class="st3" cx="-150" cy="106" r="75"/>
	</g>
	<g class="st1">
		<rect x="-187.7" y="62.9" class="st4" width="75.5" height="14.1"/>
		<polygon class="st5" points="-119.4,62.9 -180.6,62.9 -178.1,51.2 -121.9,51.2 		"/>
		<path class="st6" d="M-117.1,77l-8.6,75.7c-0.3,2.4-2.4,4.2-4.9,4.2h-39c-2.4,0-4.5-1.8-4.9-4.2l-8.4-75.7H-117.1z"/>
		<path class="st7" d="M-122.1,128.7h-56.2c-1.2,0-2.1-0.9-2.3-2.1l-2.8-25.9c-0.1-1.4,0.9-2.6,2.3-2.6h61.7c1.4,0,2.4,1.2,2.3,2.6
			l-2.8,25.9C-120,127.8-121,128.7-122.1,128.7z"/>
		<circle class="st3" cx="-148.8" cy="113.4" r="10.6"/>
		<rect x="-190" y="72.3" class="st4" width="79.9" height="4.7"/>
		<rect x="-138.2" y="49" class="st5" width="9.4" height="3.5"/>
	</g>
</g>
<g id="Final">
	<g>
		<path class="st2" d="M250,106c0,45.2-67,147.7-91.3,183.4c-4.2,6.1-13.2,6.1-17.4,0C117,253.7,50,151.2,50,106
			C50,50.8,94.8,6,150,6S250,50.8,250,106z"/>
		<circle class="st3" cx="150" cy="106" r="75"/>
	</g>
	<g>
		<path class="st8" d="M161.2,56.4l-5.4,5.4c-0.3,0.3-0.7,0.3-1,0l-0.2-0.2c-0.3-0.3-0.3-0.7,0-1l5.4-5.4c0.3-0.3,0.7-0.3,1,0
			l0.2,0.2C161.5,55.7,161.5,56.1,161.2,56.4z"/>
		<path class="st8" d="M173.2,62.1h-46c-0.7,0-1.3-0.6-1.3-1.3c0-0.7,0.6-1.3,1.3-1.3h46c0.7,0,1.3,0.6,1.3,1.3
			C174.5,61.5,173.9,62.1,173.2,62.1z"/>
		<polygon class="st8" points="124.4,153.7 127.6,157.8 172.7,157.8 176.1,153.7 		"/>
		<g>
			<path class="st9" d="M145,116c2.9,3.2,6.1,6,9.6,8.4c3.4,2.4,7,4.5,10.8,5.9l1.4,0.6l1.5,0.5c1,0.3,1.9,0.7,2.9,0.9
				c1.7,0.4,3.3,0.9,5,1.1V70.8l-2.8-8.7h-46.1l-2.8,8.5l0,6.9c1.6,5.6,3.7,11.1,6.1,16.4C134.2,102.1,139.1,109.7,145,116z"/>
			<path class="st9" d="M165.3,147c-1.2-0.6-2.3-1.2-3.4-1.8l-1.7-0.9l-1.6-1.1c-4.4-2.7-8.4-6-11.9-9.6c-3.6-3.6-6.7-7.5-9.3-11.7
				c-5.3-8.3-9-17.2-11.4-26.4c-0.6-2.2-1.1-4.4-1.6-6.6l0.1,64.7h51.7v-2.4c-1.2-0.4-2.4-0.8-3.6-1.2
				C170,149.2,167.6,148.1,165.3,147z"/>
			<path class="st10" d="M171.1,132.3c-1-0.3-1.9-0.6-2.9-0.9l-1.5-0.5l-1.4-0.6c-3.8-1.5-7.4-3.5-10.8-5.9
				c-3.4-2.4-6.6-5.2-9.6-8.4c-5.9-6.3-10.8-13.9-14.6-22.1c-2.4-5.3-4.5-10.7-6.1-16.4l0,11.4c0.5,2.2,1,4.4,1.6,6.6
				c2.4,9.1,6.1,18.1,11.4,26.4c2.6,4.1,5.8,8.1,9.3,11.7c3.5,3.6,7.5,6.9,11.9,9.6l1.6,1.1l1.7,0.9c1.1,0.6,2.3,1.3,3.4,1.8
				c2.4,1.1,4.7,2.2,7.2,3c1.2,0.5,2.4,0.9,3.6,1.2v-17.8C174.4,133.2,172.8,132.7,171.1,132.3z"/>
		</g>
	</g>
</g>
</svg>
