<?xml version="1.0" encoding="utf-8"?>
<!-- Generator: Adobe Illustrator 22.0.1, SVG Export Plug-In . SVG Version: 6.00 Build 0)  -->
<svg version="1.1" xmlns="http://www.w3.org/2000/svg" xmlns:xlink="http://www.w3.org/1999/xlink" x="0px" y="0px"
	 viewBox="0 0 300 300" style="enable-background:new 0 0 300 300;" xml:space="preserve">
<style type="text/css">
	.st0{display:none;}
	.st1{display:inline;}
	.st2{fill:#F57E25;}
	.st3{fill:#FFFFFF;}
	.st4{fill:#3A3A49;}
	.st5{fill:#4A4A5E;}
	.st6{fill:#DFD7D5;}
	.st7{fill:#964F38;}
	.st8{fill:#F0F0F0;}
	.st9{fill:#326BF0;}
</style>
<g id="Alt" class="st0">
	<g class="st1">
		<path class="st2" d="M-50,106c0,45.2-67,147.7-91.3,183.4c-4.2,6.1-13.2,6.1-17.4,0C-183,253.7-250,151.2-250,106
			c0-55.2,44.8-100,100-100S-50,50.8-50,106z"/>
		<circle class="st3" cx="-150" cy="106" r="75"/>
	</g>
	<g class="st1">
		<rect x="-187.7" y="62.9" class="st4" width="75.5" height="14.1"/>
		<polygon class="st5" points="-119.4,62.9 -180.6,62.9 -178.1,51.2 -121.9,51.2 		"/>
		<path class="st6" d="M-117.1,77l-8.6,75.7c-0.3,2.4-2.4,4.2-4.9,4.2h-39c-2.4,0-4.5-1.8-4.9-4.2l-8.4-75.7H-117.1z"/>
		<path class="st7" d="M-122.1,128.7h-56.2c-1.2,0-2.1-0.9-2.3-2.1l-2.8-25.9c-0.1-1.4,0.9-2.6,2.3-2.6h61.7c1.4,0,2.4,1.2,2.3,2.6
			l-2.8,25.9C-120,127.8-121,128.7-122.1,128.7z"/>
		<circle class="st3" cx="-148.8" cy="113.4" r="10.6"/>
		<rect x="-190" y="72.3" class="st4" width="79.9" height="4.7"/>
		<rect x="-138.2" y="49" class="st5" width="9.4" height="3.5"/>
	</g>
</g>
<g id="Final">
	<g>
		<path class="st3" d="M250,106c0,45.2-67,147.7-91.3,183.4c-4.2,6.1-13.2,6.1-17.4,0C117,253.7,50,151.2,50,106
			C50,50.8,94.8,6,150,6S250,50.8,250,106z"/>
		<circle class="st2" cx="150" cy="106" r="75"/>
	</g>
	<g>
		<path class="st8" d="M167.1,51.3l-12.8,12.8c-0.3,0.3-0.7,0.3-1,0l-1.2-1.2c-0.3-0.3-0.3-0.7,0-1L165,49.1c0.3-0.3,0.7-0.3,1,0
			l1.2,1.2C167.4,50.5,167.4,51,167.1,51.3z"/>
		<polygon class="st8" points="121.6,158.5 125.1,163.1 174.7,163.1 178.5,158.5 		"/>
		<g>
			<path class="st9" d="M144.3,117.9c3.2,3.4,6.7,6.3,10.5,8.9c3.8,2.5,7.7,4.7,11.9,6.3l1.5,0.6l1.6,0.5c1.1,0.3,2.1,0.7,3.2,1
				c1.8,0.4,3.6,0.9,5.5,1.2V70.2l-3.1-9.2h-50.7l-3.1,9l0,7.3c1.8,6,4.1,11.7,6.8,17.3C132.5,103.2,137.8,111.2,144.3,117.9z"/>
			<path class="st9" d="M166.6,151.2c-1.3-0.6-2.5-1.3-3.8-2l-1.9-1l-1.8-1.2c-4.8-3-9.2-6.6-13.1-10.6c-3.9-3.9-7.3-8.3-10.3-12.8
				c-5.9-9.1-9.9-19-12.6-29c-0.6-2.4-1.2-4.8-1.7-7.3l0.1,71.2h56.8v-2.6c-1.3-0.4-2.7-0.9-4-1.4
				C171.8,153.7,169.2,152.4,166.6,151.2z"/>
			<path class="st3" d="M173,135.1c-1.1-0.3-2.1-0.7-3.2-1l-1.6-0.5l-1.5-0.7c-4.2-1.6-8.1-3.9-11.9-6.5c-3.8-2.6-7.3-5.7-10.5-9.2
				c-6.5-6.9-11.8-15.3-16-24.3c-2.7-5.8-5-11.8-6.8-18l0,12.6c0.5,2.4,1.1,4.9,1.7,7.3c2.7,10,6.7,19.9,12.6,29
				c2.9,4.6,6.3,8.9,10.3,12.8c3.9,3.9,8.3,7.6,13.1,10.6l1.8,1.2l1.9,1c1.3,0.7,2.5,1.4,3.8,2c2.6,1.2,5.2,2.4,7.9,3.3
				c1.3,0.5,2.6,1,4,1.4v-19.6C176.6,136,174.8,135.5,173,135.1z"/>
		</g>
		<path class="st8" d="M175.3,61.6h-50.6c-0.8,0-1.5-0.8-1.5-1.7c0-0.9,0.7-1.7,1.5-1.7h50.6c0.8,0,1.5,0.8,1.5,1.7
			C176.8,60.9,176.1,61.6,175.3,61.6z"/>
	</g>
</g>
</svg>
