<svg xmlns="http://www.w3.org/2000/svg" viewBox="0 0 300 300"><defs><style>.cls-1{isolation:isolate;}.cls-2{opacity:0.15;mix-blend-mode:multiply;}.cls-3{fill:#0082ff;}.cls-4{fill:#fff;}.cls-5{fill:#ffb980;}.cls-6{fill:none;stroke:#ed594c;stroke-miterlimit:10;stroke-width:20px;}</style></defs><title>no-card</title><g class="cls-1"><g id="Card_Stack" data-name="Card Stack"><g class="cls-2"><rect x="75.43866" y="24.60485" width="157.12269" height="258.79031" rx="5.33333" ry="5.33333"/></g><rect class="cls-3" x="71.43866" y="20.60485" width="157.12269" height="258.79031" rx="5.33333" ry="5.33333"/><path class="cls-4" d="M211.67969,245.89258v1.542h-2.93555V255.544l-11.4248-7.56055v-2.06934l9.90429-.02148v-1.81641h1.52051v1.81641Zm-4.45606,7.03222v-5.49023H198.9248Z"/><path class="cls-4" d="M211.67969,241.38965l-12.81836-5.65918v6.71484h-1.47852v-9.01758l14.29688,6.31446Z"/><path class="cls-4" d="M198.81836,229.53906v2.06934h-1.28809l-.37988-3.54785h14.5293v1.47851Z"/><path class="cls-4" d="M208.99805,216.73926a4.94446,4.94446,0,0,1,1.5205,1.03515,4.65158,4.65158,0,0,1,1.39356,3.4209,4.7029,4.7029,0,0,1-1.4043,3.4209,4.769,4.769,0,0,1-6.40918.33789l-6.77929-5.61719v-1.94238l5.27929,4.39258-.27441-.42285a5.39855,5.39855,0,0,1,1.33105-3.52637,4.4077,4.4077,0,0,1,3.4209-1.47851A4.73779,4.73779,0,0,1,208.99805,216.73926Zm-4.88965,5.72363a3.62637,3.62637,0,0,0,.708,1.07617,3.06191,3.06191,0,0,0,2.30175.99317,3.14667,3.14667,0,0,0,2.334-.99317,3.27393,3.27393,0,0,0,.98144-2.36523,3.18435,3.18435,0,0,0-.95019-2.34375,3.14664,3.14664,0,0,0-2.30176-.97168,3.24019,3.24019,0,0,0-2.34473.96094,3.16047,3.16047,0,0,0-.99218,2.34472A3.25473,3.25473,0,0,0,204.1084,222.46289Z"/><path class="cls-4" d="M209.36719,199.65625a12.177,12.177,0,0,1-9.77735,0,4.18642,4.18642,0,0,1,0-7.666,12.177,12.177,0,0,1,9.77735,0,4.18642,4.18642,0,0,1,0,7.666Zm-10.69629-3.75879a2.36021,2.36021,0,0,0,.30664,1.22461,2.94776,2.94776,0,0,0,.8125.88672,4.64406,4.64406,0,0,0,1.14062.60254,8.41737,8.41737,0,0,0,1.27735.3584,10.54962,10.54962,0,0,0,1.97949.23242q.79688,0,1.41016-.05274a11.99984,11.99984,0,0,0,1.2666-.17968,7.385,7.385,0,0,0,1.27832-.36914,4.77839,4.77839,0,0,0,1.11914-.61231,2.55637,2.55637,0,0,0,1.1084-2.14355,2.40725,2.40725,0,0,0-1.11914-1.9961,7.48237,7.48237,0,0,0-3.66407-1.21386,9.9715,9.9715,0,0,0-1.04492-.06348,10.53142,10.53142,0,0,0-3.60058.6123,3.6308,3.6308,0,0,0-1.95411,1.48829A2.3061,2.3061,0,0,0,198.6709,195.89746Z"/><path class="cls-4" d="M210.71875,187.67871a3.95673,3.95673,0,0,1-3.13574,1.38281,3.861,3.861,0,0,1-2.05957-.623,4.68858,4.68858,0,0,1-1.63672-1.78418,4.01487,4.01487,0,0,1-3.083,1.71,3.47771,3.47771,0,0,1-2.70312-1.17188,4.48614,4.48614,0,0,1,0-5.68066,3.49085,3.49085,0,0,1,2.71484-1.17188,4.00773,4.00773,0,0,1,3.07129,1.71094,4.69151,4.69151,0,0,1,1.63672-1.78515,3.81142,3.81142,0,0,1,2.02734-.623,4.23837,4.23837,0,0,1,1.81641.37012,4.00839,4.00839,0,0,1,1.35156,1.01367,5.30631,5.30631,0,0,1,0,6.65234Zm-11.499-1.57324a2.253,2.253,0,0,0,1.71093.73828,2.492,2.492,0,0,0,0-4.9834,2.25049,2.25049,0,0,0-1.71093.73926,2.61138,2.61138,0,0,0,0,3.50586Zm6.01855.41113a2.83331,2.83331,0,0,0,2.11231.87695,3.02623,3.02623,0,0,0,2.15429-.86621,3.05917,3.05917,0,0,0,0-4.35058,3.02531,3.02531,0,0,0-2.15429-.86524,2.8325,2.8325,0,0,0-2.11231.876,3.14015,3.14015,0,0,0,0,4.3291Z"/><path class="cls-4" d="M208.99805,168.93164a4.94449,4.94449,0,0,1,1.5205,1.03516,4.65155,4.65155,0,0,1,1.39356,3.4209,4.70288,4.70288,0,0,1-1.4043,3.42089,4.769,4.769,0,0,1-6.40918.33789l-6.77929-5.61718v-1.94336l5.27929,4.39258-.27441-.42188a5.39855,5.39855,0,0,1,1.33105-3.52637,4.40774,4.40774,0,0,1,3.4209-1.47851A4.73779,4.73779,0,0,1,208.99805,168.93164Zm-4.88965,5.72266a3.6186,3.6186,0,0,0,.708,1.07715,3.06194,3.06194,0,0,0,2.30175.99316,3.1467,3.1467,0,0,0,2.334-.99316,3.274,3.274,0,0,0,.98144-2.36524,3.18435,3.18435,0,0,0-.95019-2.34375,3.14664,3.14664,0,0,0-2.30176-.97168,3.24019,3.24019,0,0,0-2.34473.96094,3.15894,3.15894,0,0,0-.99218,2.34473A3.24663,3.24663,0,0,0,204.1084,174.6543Z"/><path class="cls-4" d="M202.30371,162.18945a4.52715,4.52715,0,0,1,.36914-1.793,4.97549,4.97549,0,0,1,1.00293-1.5205,4.48209,4.48209,0,0,1,3.3584-1.39453,4.7453,4.7453,0,0,1,3.45215,1.415,4.675,4.675,0,0,1,1.44629,3.46387,4.85216,4.85216,0,0,1-.876,2.79785,4.62758,4.62758,0,0,1-2.291,1.78418l-.46485-1.43554a3.20375,3.20375,0,0,0,1.542-1.22461,3.07246,3.07246,0,0,0,.59082-1.74219,3.42,3.42,0,0,0-.97168-2.54492,3.08335,3.08335,0,0,0-2.32226-.99317,3.29779,3.29779,0,0,0-2.34473.97168,2.98412,2.98412,0,0,0-.99219,2.22657,3.56384,3.56384,0,0,0,.67579,2.1875l-.71778,1.60449-6.4414-1.64649v-6.31445h1.47851v5.19434l3.84375.97168A6.75263,6.75263,0,0,1,202.30371,162.18945Z"/><path class="cls-4" d="M211.67969,142.73291l-12.81836-5.65967v6.71533h-1.47852v-9.01709l14.29688,6.314Z"/><path class="cls-4" d="M211.67969,132.31787l-12.81836-5.65967v6.71534h-1.47852v-9.01709l14.29688,6.314Z"/><path class="cls-4" d="M204.18262,115.46191a3.16182,3.16182,0,0,0-2.32324-.95019,3.1039,3.1039,0,0,0-2.30176.98193,3.24958,3.24958,0,0,0-.9502,2.35449,3.16155,3.16155,0,0,0,1.05567,2.397,3.0428,3.0428,0,0,0,2.42871.89795v1.499a4.55082,4.55082,0,0,1-3.52637-1.34082,4.90776,4.90776,0,0,1-.07422-6.94775,4.74109,4.74109,0,0,1,6.74707-.03174l4.96289,5.00488v-6.54687h1.47852v10.11572Z"/><path class="cls-4" d="M210.71875,109.00586a3.95564,3.95564,0,0,1-3.13574,1.3833,3.8567,3.8567,0,0,1-2.05957-.62305,4.69208,4.69208,0,0,1-1.63672-1.78418,4.017,4.017,0,0,1-3.083,1.71045,3.4765,3.4765,0,0,1-2.70312-1.17236,4.48614,4.48614,0,0,1,0-5.68066,3.49085,3.49085,0,0,1,2.71484-1.17188,4.00849,4.00849,0,0,1,3.07129,1.71045,4.69367,4.69367,0,0,1,1.63672-1.78467,3.81142,3.81142,0,0,1,2.02734-.62305,4.25289,4.25289,0,0,1,1.81641.36963,4.02137,4.02137,0,0,1,1.35156,1.01368,5.30631,5.30631,0,0,1,0,6.65234Zm-11.499-1.57324a2.2522,2.2522,0,0,0,1.71093.73926,2.49227,2.49227,0,0,0,0-4.98389,2.25046,2.25046,0,0,0-1.71093.73926,2.61075,2.61075,0,0,0,0,3.50537Zm6.01855.41162a2.8311,2.8311,0,0,0,2.11231.87646,3.02577,3.02577,0,0,0,2.15429-.86572,3.05918,3.05918,0,0,0,0-4.35059,3.02581,3.02581,0,0,0-2.15429-.86572,2.83289,2.83289,0,0,0-2.11231.87647,3.14015,3.14015,0,0,0,0,4.3291Z"/><path class="cls-4" d="M211.67969,85.77832l-12.81836-5.65967v6.71582h-1.47852V77.81689l14.29688,6.31446Z"/><path class="cls-4" d="M204.18262,68.92236a3.16182,3.16182,0,0,0-2.32324-.95019,3.1039,3.1039,0,0,0-2.30176.98193,3.2499,3.2499,0,0,0-.9502,2.355,3.16127,3.16127,0,0,0,1.05567,2.39649,3.0407,3.0407,0,0,0,2.42871.89746v1.49951a4.55082,4.55082,0,0,1-3.52637-1.34082,4.90778,4.90778,0,0,1-.07422-6.94776,4.7411,4.7411,0,0,1,6.74707-.03173l4.96289,5.00488V66.24072h1.47852V76.356Z"/><path class="cls-4" d="M204.18262,55.93018a3.16182,3.16182,0,0,0-2.32324-.9502,3.1039,3.1039,0,0,0-2.30176.98193,3.2499,3.2499,0,0,0-.9502,2.355,3.16127,3.16127,0,0,0,1.05567,2.39649,3.04067,3.04067,0,0,0,2.42871.89746v1.49951a4.55082,4.55082,0,0,1-3.52637-1.34082,4.90776,4.90776,0,0,1-.07422-6.94775,4.74111,4.74111,0,0,1,6.74707-.03174l4.96289,5.00488V53.24854h1.47852V63.36377Z"/><path class="cls-4" d="M208.99805,41.83984a4.94326,4.94326,0,0,1,1.5205,1.03467,4.65423,4.65423,0,0,1,1.39356,3.42139,4.7048,4.7048,0,0,1-1.4043,3.42139,4.77037,4.77037,0,0,1-6.40918.33789l-6.77929-5.61768V42.49463l5.27929,4.39258-.27441-.42237a5.40088,5.40088,0,0,1,1.33105-3.52685,4.41055,4.41055,0,0,1,3.4209-1.478A4.72981,4.72981,0,0,1,208.99805,41.83984ZM204.1084,47.563a3.63739,3.63739,0,0,0,.708,1.07715,3.06274,3.06274,0,0,0,2.30175.99218,3.14755,3.14755,0,0,0,2.334-.99218,3.27476,3.27476,0,0,0,.98144-2.36524,3.1839,3.1839,0,0,0-.95019-2.34424,3.14616,3.14616,0,0,0-2.30176-.97119,3.23977,3.23977,0,0,0-2.34473.96045,3.16018,3.16018,0,0,0-.99218,2.34424A3.24958,3.24958,0,0,0,204.1084,47.563Z"/><rect class="cls-5" x="151.14512" y="247.77952" width="5.68687" height="10.32658"/><path class="cls-5" d="M159.12223,258.08579a7.89928,7.89928,0,0,0,7.48182-7.86058v-2.44569h-7.48182Z"/><rect class="cls-5" x="143.16793" y="247.77952" width="5.68696" height="10.32658"/><path class="cls-5" d="M140.87769,247.77952H133.396v2.44569a7.89915,7.89915,0,0,0,7.48174,7.86058Z"/><path class="cls-5" d="M133.396,229.34357v16.14571h33.2081v-11.2876H142.37768v-12.739h-1.10084A7.904,7.904,0,0,0,133.396,229.34357Z"/><rect class="cls-5" x="144.66792" y="221.46268" width="5.68687" height="10.44876"/><path class="cls-5" d="M160.62214,231.91144h5.98191v-2.56787a7.90509,7.90509,0,0,0-5.98191-7.63832Z"/><rect class="cls-5" x="152.64503" y="221.46268" width="5.68696" height="10.44876"/><path class="cls-4" d="M109.03613,213.92773V224.334H91.0752V213.92773H94.667v6.44434H98.2334v-6.18066h3.5918v6.18066h3.61816v-6.44434Z"/><path class="cls-4" d="M109.03613,192.7207,96.64844,194.834l12.38769,3.5127v3.88281l-12.38769,3.5127,12.38769,2.11328v4.3584L91.0752,208.72754v-4.70215l12.59863-3.75L91.0752,196.55078v-4.70117l17.96093-3.48731Z"/><path class="cls-4" d="M109.03613,176.24512v10.40625H91.0752V176.24512H94.667v6.44433H98.2334v-6.18066h3.5918v6.18066h3.61816v-6.44433Z"/><path class="cls-4" d="M109.03613,169.11621v3.96192H91.0752v-6.73536a5.569,5.569,0,0,1,5.75781-5.49414,5.46176,5.46176,0,0,1,5.59961,4.09473l6.60351-5.15039v5.01855l-6.41894,4.27832v.02637Zm-14.84472,0H99.501v-2.11328a2.47772,2.47772,0,0,0-2.668-2.37695,2.50265,2.50265,0,0,0-2.6416,2.37695Z"/><path class="cls-4" d="M109.03613,146.29834l-3.61914,1.29492v6.84131l3.61914,1.29395v4.25293l-17.96093-7.29v-3.355l17.96093-7.29Zm-13.25976,4.729,6.39258,2.27149v-4.54346Z"/><path class="cls-4" d="M91.0752,140.3335v-3.96192h14.36816v-6.44482h3.59277V140.3335Z"/><path class="cls-4" d="M91.0752,122.08447a8.98062,8.98062,0,0,1,17.96093,0v5.33545H91.0752Zm14.31543.2378a5.3261,5.3261,0,0,0-10.64454,0v1.189h10.64454Z"/><path class="cls-4" d="M109.03613,96.78662v7.26318H91.0752V97.86914c0-3.06348,2.0332-5.01807,4.49023-5.01807a3.90492,3.90492,0,0,1,3.80371,2.13916,4.54352,4.54352,0,0,1,4.5166-3.645C106.97559,91.34521,109.03613,93.35254,109.03613,96.78662ZM94.19141,98.71436v1.37353h4.17382V98.71436a2.08691,2.08691,0,0,0-4.17382,0Zm7.42285-1.13575v2.50928h4.33105V97.57861a2.16568,2.16568,0,1,0-4.33105,0Z"/><path class="cls-4" d="M109.03613,77.27051,105.417,78.56494v6.84082l3.61914,1.29395v4.25293l-17.96093-7.29V80.30811l17.96093-7.29Zm-13.25976,4.728L102.169,84.27v-4.543Z"/><path class="cls-4" d="M109.03613,61.1626,97.83691,67.34326h11.19922v3.96192H91.0752V67.34326l11.19921-6.18066H91.0752V57.20068h17.96093Z"/><path class="cls-4" d="M109.03613,50.07324v3.96192H91.0752V50.07324h8.02929L91.0752,44.39453V39.32324l8.98046,6.89405,8.98047-7.15821v5.33545l-8.02929,5.67871Z"/><circle class="cls-6" cx="150" cy="150" r="108.89443"/><line class="cls-6" x1="74.58438" y1="224.78188" x2="224.78188" y2="74.58438"/></g></g></svg>