<svg xmlns="http://www.w3.org/2000/svg" viewBox="0 0 300 300"><defs><style>.cls-1{isolation:isolate;}.cls-2{opacity:0.15;mix-blend-mode:multiply;}.cls-3{fill:#0082ff;}.cls-4{fill:#fff;}.cls-5{fill:#ffb980;}.cls-6{fill:none;stroke:#ed594c;stroke-miterlimit:10;stroke-width:20px;}</style></defs><title>no-card</title><g class="cls-1"><g id="Card_Stack" data-name="Card Stack"><g class="cls-2"><rect x="68.39285" y="12.99999" width="171.2143" height="282.00002" rx="5.33333" ry="5.33333"/></g><rect class="cls-3" x="64.39285" y="8.99999" width="171.2143" height="282.00002" rx="5.33333" ry="5.33333"/><path class="cls-4" d="M217.21191,254.4873V256.168h-3.20019v8.8418l-12.457-8.24317v-2.25586l10.79883-.02344v-1.98046h1.6582v1.98046Zm-4.85839,7.668V256.168h-9.04883Z"/><path class="cls-4" d="M217.21191,249.58594l-13.97656-6.1709v7.32226H201.624v-9.832L217.21191,247.79Z"/><path class="cls-4" d="M203.18945,236.6709v2.25683h-1.40429l-.415-3.86816h15.84179v1.61133Z"/><path class="cls-4" d="M214.28809,222.71973a5.38437,5.38437,0,0,1,1.65722,1.12793,5.0707,5.0707,0,0,1,1.51953,3.73047,5.12913,5.12913,0,0,1-1.53125,3.73046,5.202,5.202,0,0,1-6.98828.36817l-7.39062-6.125v-2.11817l5.75586,4.78907-.29883-.46a5.89207,5.89207,0,0,1,1.45019-3.84571,4.81155,4.81155,0,0,1,3.73047-1.61133A5.15941,5.15941,0,0,1,214.28809,222.71973ZM208.957,228.96a3.95653,3.95653,0,0,0,.77149,1.17383,3.33892,3.33892,0,0,0,2.50976,1.082,3.43,3.43,0,0,0,2.54492-1.082,3.57235,3.57235,0,0,0,1.07032-2.5791,3.47536,3.47536,0,0,0-1.03614-2.55567,3.43,3.43,0,0,0-2.50976-1.05859,3.5299,3.5299,0,0,0-2.55567,1.04687,3.44325,3.44325,0,0,0-1.082,2.55665A3.54678,3.54678,0,0,0,208.957,228.96Z"/><path class="cls-4" d="M214.69043,204.10938a13.28409,13.28409,0,0,1-10.66016,0,4.56485,4.56485,0,0,1,0-8.3584,13.27342,13.27342,0,0,1,10.66016,0,4.56484,4.56484,0,0,1,0,8.3584Zm-11.66211-4.09864a2.573,2.573,0,0,0,.334,1.335,3.21046,3.21046,0,0,0,.88672.9668,4.97146,4.97146,0,0,0,1.24317.65625,9.14567,9.14567,0,0,0,1.39258.3916,11.5407,11.5407,0,0,0,2.1582.25391q.87012,0,1.53711-.05762a13.27462,13.27462,0,0,0,1.38183-.19629,8.08508,8.08508,0,0,0,1.39356-.40234,5.19519,5.19519,0,0,0,1.21973-.668,2.78486,2.78486,0,0,0,1.209-2.33691,2.62374,2.62374,0,0,0-1.21973-2.17579,8.16876,8.16876,0,0,0-3.99511-1.32421,11.13492,11.13492,0,0,0-1.13965-.06934,11.47147,11.47147,0,0,0-3.92578.668,3.95327,3.95327,0,0,0-2.12989,1.623A2.50586,2.50586,0,0,0,203.02832,200.01074Z"/><path class="cls-4" d="M216.16406,191.05664a4.31381,4.31381,0,0,1-3.41894,1.50781,4.20409,4.20409,0,0,1-2.24512-.67968,5.09515,5.09515,0,0,1-1.78418-1.94532,4.38094,4.38094,0,0,1-3.3623,1.86524,3.79038,3.79038,0,0,1-2.94727-1.27832,4.89336,4.89336,0,0,1,0-6.19336,3.80411,3.80411,0,0,1,2.96-1.27832,4.37226,4.37226,0,0,1,3.34961,1.86523A5.0881,5.0881,0,0,1,210.5,182.97461a4.15,4.15,0,0,1,2.21-.67969,4.63163,4.63163,0,0,1,1.98047.40332,4.375,4.375,0,0,1,1.47363,1.10449,5.78451,5.78451,0,0,1,0,7.25391ZM203.627,189.34082a2.4551,2.4551,0,0,0,1.86524.80566,2.71715,2.71715,0,0,0,0-5.43359,2.45513,2.45513,0,0,0-1.86524.80566,2.84555,2.84555,0,0,0,0,3.82227Zm6.5625.44922a3.08529,3.08529,0,0,0,2.30176.95508,3.29363,3.29363,0,0,0,2.34863-.94434,3.335,3.335,0,0,0,0-4.74316,3.29676,3.29676,0,0,0-2.34863-.94336,3.08529,3.08529,0,0,0-2.30176.95508,3.422,3.422,0,0,0,0,4.7207Z"/><path class="cls-4" d="M214.28809,170.624a5.38472,5.38472,0,0,1,1.65722,1.12793,5.07073,5.07073,0,0,1,1.51953,3.73047,5.12916,5.12916,0,0,1-1.53125,3.73047,5.20205,5.20205,0,0,1-6.98828.36816l-7.39062-6.125v-2.11816l5.75586,4.78906-.29883-.46a5.89207,5.89207,0,0,1,1.45019-3.8457,4.81155,4.81155,0,0,1,3.73047-1.61133A5.15958,5.15958,0,0,1,214.28809,170.624Zm-5.33106,6.24024a3.95653,3.95653,0,0,0,.77149,1.17383,3.33892,3.33892,0,0,0,2.50976,1.082,3.43,3.43,0,0,0,2.54492-1.082,3.57237,3.57237,0,0,0,1.07032-2.57911,3.47535,3.47535,0,0,0-1.03614-2.55566,3.43,3.43,0,0,0-2.50976-1.05859,3.5299,3.5299,0,0,0-2.55567,1.04687,3.44324,3.44324,0,0,0-1.082,2.55664A3.54679,3.54679,0,0,0,208.957,176.86426Z"/><path class="cls-4" d="M206.98828,163.2793a4.93643,4.93643,0,0,1,.40332-1.95508,5.40942,5.40942,0,0,1,1.09375-1.65723,4.88433,4.88433,0,0,1,3.66113-1.51953,5.175,5.175,0,0,1,3.76465,1.542,5.09911,5.09911,0,0,1,1.57715,3.77637,5.2843,5.2843,0,0,1-.95605,3.05078,5.04775,5.04775,0,0,1-2.49805,1.94629l-.50684-1.56641a3.491,3.491,0,0,0,1.68164-1.335,3.34722,3.34722,0,0,0,.64454-1.89941,3.73624,3.73624,0,0,0-1.05957-2.77539,3.36659,3.36659,0,0,0-2.53223-1.082,3.59184,3.59184,0,0,0-2.55567,1.05957,3.25112,3.25112,0,0,0-1.083,2.42773,3.88257,3.88257,0,0,0,.7373,2.38477l-.7832,1.75-7.02246-1.7959v-6.88477H203.166v5.66407l4.1914,1.05957A7.36546,7.36546,0,0,1,206.98828,163.2793Z"/><path class="cls-4" d="M217.21191,142.08105l-13.97656-6.17089v7.32177H201.624v-9.83154l15.58789,6.88428Z"/><path class="cls-4" d="M217.21191,130.73145,203.23535,124.561v7.32177H201.624v-9.83154l15.58789,6.88428Z"/><path class="cls-4" d="M209.03809,112.35938a3.44618,3.44618,0,0,0-2.53321-1.03614,3.38423,3.38423,0,0,0-2.50976,1.0708,3.54054,3.54054,0,0,0-1.03614,2.56739,3.44392,3.44392,0,0,0,1.15137,2.61328,3.3169,3.3169,0,0,0,2.64844.97851V120.188a4.96119,4.96119,0,0,1-3.8457-1.46192,5.35345,5.35345,0,0,1-.08106-7.57568,5.1708,5.1708,0,0,1,7.35742-.03418l5.41114,5.457v-7.13818h1.61132v11.0293Z"/><path class="cls-4" d="M216.16406,105.32861a4.31269,4.31269,0,0,1-3.41894,1.5083,4.20763,4.20763,0,0,1-2.24512-.6792,5.1001,5.1001,0,0,1-1.78418-1.9458,4.38094,4.38094,0,0,1-3.3623,1.86524,3.792,3.792,0,0,1-2.94727-1.27832,4.894,4.894,0,0,1,0-6.19385,3.80694,3.80694,0,0,1,2.96-1.27783,4.37079,4.37079,0,0,1,3.34961,1.86523A5.10018,5.10018,0,0,1,210.5,97.24658a4.15368,4.15368,0,0,1,2.21-.6792,4.63158,4.63158,0,0,1,1.98047.40283,4.37123,4.37123,0,0,1,1.47363,1.10547,5.78312,5.78312,0,0,1,0,7.25293ZM203.627,103.61328a2.45511,2.45511,0,0,0,1.86524.80567,2.71741,2.71741,0,0,0,0-5.43409,2.45555,2.45555,0,0,0-1.86524.80616,2.84554,2.84554,0,0,0,0,3.82226Zm6.5625.44873a3.0839,3.0839,0,0,0,2.30176.95557,3.29517,3.29517,0,0,0,2.34863-.94385,3.335,3.335,0,0,0,0-4.74316,3.29564,3.29564,0,0,0-2.34863-.94434,3.08572,3.08572,0,0,0-2.30176.95557,3.4214,3.4214,0,0,0,0,4.72021Z"/><path class="cls-4" d="M217.21191,80.01855l-13.97656-6.17089v7.32177H201.624V71.33789l15.58789,6.88428Z"/><path class="cls-4" d="M209.03809,61.646a3.44618,3.44618,0,0,0-2.53321-1.03614,3.38423,3.38423,0,0,0-2.50976,1.0708,3.54056,3.54056,0,0,0-1.03614,2.56739,3.44392,3.44392,0,0,0,1.15137,2.61328,3.3169,3.3169,0,0,0,2.64844.97851v1.63477a4.96122,4.96122,0,0,1-3.8457-1.46191A5.35346,5.35346,0,0,1,202.832,60.437a5.1708,5.1708,0,0,1,7.35742-.03418l5.41114,5.457V58.72168h1.61132V69.751Z"/><path class="cls-4" d="M209.03809,47.48877a3.44617,3.44617,0,0,0-2.53321-1.03613,3.38419,3.38419,0,0,0-2.50976,1.0708,3.54053,3.54053,0,0,0-1.03614,2.56738,3.4439,3.4439,0,0,0,1.15137,2.61328,3.31691,3.31691,0,0,0,2.64844.97852v1.63476a4.96118,4.96118,0,0,1-3.8457-1.46191,5.35345,5.35345,0,0,1-.08106-7.57568,5.1708,5.1708,0,0,1,7.35742-.03418l5.41114,5.457V44.56445h1.61132v11.0293Z"/><path class="cls-4" d="M214.28809,32.13428a5.37726,5.37726,0,0,1,1.65722,1.12842,5.06881,5.06881,0,0,1,1.51953,3.73,5.12727,5.12727,0,0,1-1.53125,3.73,5.2,5.2,0,0,1-6.98828.36865l-7.39062-6.125V32.84814l5.75586,4.78907-.29883-.46045a5.89276,5.89276,0,0,1,1.45019-3.84522,4.812,4.812,0,0,1,3.73047-1.61181A5.15956,5.15956,0,0,1,214.28809,32.13428ZM208.957,38.374a3.95251,3.95251,0,0,0,.77149,1.17432,3.33938,3.33938,0,0,0,2.50976,1.08252,3.43044,3.43044,0,0,0,2.54492-1.08252,3.57124,3.57124,0,0,0,1.07032-2.57861,3.473,3.473,0,0,0-1.03614-2.55567,3.42909,3.42909,0,0,0-2.50976-1.05957,3.53083,3.53083,0,0,0-2.55567,1.04785,3.44188,3.44188,0,0,0-1.082,2.55567A3.54506,3.54506,0,0,0,208.957,38.374Z"/><rect class="cls-5" x="151.24782" y="256.54891" width="6.1969" height="11.25273"/><path class="cls-5" d="M159.94036,267.77951a8.60773,8.60773,0,0,0,8.15283-8.56556v-2.665h-8.15283Z"/><rect class="cls-5" x="142.55519" y="256.54891" width="6.19699" height="11.25273"/><path class="cls-5" d="M140.05955,256.54891h-8.15274v2.665a8.60759,8.60759,0,0,0,8.15274,8.56556Z"/><path class="cls-5" d="M131.90681,236.45953v17.59374h36.18638V241.75334H141.69407v-13.8815H140.4945A8.61289,8.61289,0,0,0,131.90681,236.45953Z"/><rect class="cls-5" x="144.18971" y="227.87184" width="6.1969" height="11.38586"/><path class="cls-5" d="M161.57479,239.2577h6.5184v-2.79817a8.614,8.614,0,0,0-6.5184-8.32336Z"/><rect class="cls-5" x="152.88225" y="227.87184" width="6.19699" height="11.38586"/><path class="cls-4" d="M105.3623,219.66211V231.001H85.793V219.66211H89.707v7.02246H93.5918V219.9502h3.91406v6.73437h3.94238v-7.02246Z"/><path class="cls-4" d="M105.3623,196.55566l-13.49707,2.30176,13.49707,3.82813V206.915l-13.49707,3.82812,13.49707,2.30176v4.749L85.793,213.99512v-5.123l13.72754-4.08594L85.793,200.72852v-5.12305l19.56933-3.79883Z"/><path class="cls-4" d="M105.3623,178.59961v11.33887H85.793V178.59961H89.707v7.02246H93.5918V178.8877h3.91406v6.73437h3.94238v-7.02246Z"/><path class="cls-4" d="M105.3623,170.832v4.31641H85.793v-7.33887a6.0676,6.0676,0,0,1,6.27344-5.98535,5.95012,5.95012,0,0,1,6.10156,4.46094l7.19433-5.61231v5.46778l-6.99316,4.6621v.0293Zm-16.17285,0h5.78418V168.5293a2.90972,2.90972,0,0,0-5.78418,0Z"/><path class="cls-4" d="M105.3623,145.96875l-3.94238,1.41016V154.832l3.94238,1.41016V160.876L85.793,152.93262v-3.6543l19.56933-7.94287ZM90.916,151.12012l6.96386,2.47461V148.645Z"/><path class="cls-4" d="M85.793,139.4668v-4.3169h15.65527v-7.022h3.91406V139.4668Z"/><path class="cls-4" d="M85.793,119.58252a9.78484,9.78484,0,0,1,19.56933,0V125.396H85.793Zm15.59766.25928a5.803,5.803,0,0,0-11.59766,0v1.29492h11.59766Z"/><path class="cls-4" d="M105.3623,92.01563v7.91406H85.793V93.19531c0-3.33789,2.21582-5.46777,4.89258-5.46777a4.25315,4.25315,0,0,1,4.14355,2.331A4.95223,4.95223,0,0,1,99.751,86.0874C103.11719,86.0874,105.3623,88.27441,105.3623,92.01563ZM89.18945,94.11621v1.49658h4.54688V94.11621a2.27344,2.27344,0,0,0-4.54688,0Zm8.08594-1.2373v2.73388h4.71973V92.87891a2.36,2.36,0,1,0-4.71973,0Z"/><path class="cls-4" d="M105.3623,70.75049l-3.94238,1.41015v7.45313l3.94238,1.41016v4.6333L85.793,77.71484V74.05957l19.56933-7.94238ZM90.916,75.90137l6.96386,2.47509v-4.9497Z"/><path class="cls-4" d="M105.3623,53.19775,93.16016,59.93164H105.3623v4.3169H85.793v-4.3169l12.20215-6.73389H85.793V48.88086H105.3623Z"/><path class="cls-4" d="M105.3623,41.1123v4.3169H85.793V41.1123h8.749l-8.749-6.187V29.3999l9.78516,7.51074,9.78417-7.79882v5.81347l-8.749,6.187Z"/><circle class="cls-6" cx="150" cy="150" r="118.66067"/><line class="cls-6" x1="67.82069" y1="231.48872" x2="231.48872" y2="67.82069"/></g></g></svg>