<?xml version="1.0" encoding="utf-8"?>
<!-- Generator: Adobe Illustrator 22.0.1, SVG Export Plug-In . SVG Version: 6.00 Build 0)  -->
<svg version="1.1" xmlns="http://www.w3.org/2000/svg" xmlns:xlink="http://www.w3.org/1999/xlink" x="0px" y="0px"
	 viewBox="0 0 300 300" style="enable-background:new 0 0 300 300;" xml:space="preserve">
<style type="text/css">
	.st0{display:none;}
	.st1{display:inline;}
	.st2{fill:#F57E25;}
	.st3{fill:#FFFFFF;}
	.st4{fill:#3A3A49;}
	.st5{fill:#4A4A5E;}
	.st6{fill:#DFD7D5;}
	.st7{fill:#964F38;}
</style>
<g id="Alt" class="st0">
	<g class="st1">
		<path class="st2" d="M-50,106c0,45.2-67,147.7-91.3,183.4c-4.2,6.1-13.2,6.1-17.4,0C-183,253.7-250,151.2-250,106
			c0-55.2,44.8-100,100-100S-50,50.8-50,106z"/>
		<circle class="st3" cx="-150" cy="106" r="75"/>
	</g>
	<g class="st1">
		<rect x="-187.7" y="62.9" class="st4" width="75.5" height="14.1"/>
		<polygon class="st5" points="-119.4,62.9 -180.6,62.9 -178.1,51.2 -121.9,51.2 		"/>
		<path class="st6" d="M-117.1,77l-8.6,75.7c-0.3,2.4-2.4,4.2-4.9,4.2h-39c-2.4,0-4.5-1.8-4.9-4.2l-8.4-75.7H-117.1z"/>
		<path class="st7" d="M-122.1,128.7h-56.2c-1.2,0-2.1-0.9-2.3-2.1l-2.8-25.9c-0.1-1.4,0.9-2.6,2.3-2.6h61.7c1.4,0,2.4,1.2,2.3,2.6
			l-2.8,25.9C-120,127.8-121,128.7-122.1,128.7z"/>
		<circle class="st3" cx="-148.8" cy="113.4" r="10.6"/>
		<rect x="-190" y="72.3" class="st4" width="79.9" height="4.7"/>
		<rect x="-138.2" y="49" class="st5" width="9.4" height="3.5"/>
	</g>
</g>
<g id="Final">
	<g>
		<path class="st3" d="M250,106c0,45.2-67,147.7-91.3,183.4c-4.2,6.1-13.2,6.1-17.4,0C117,253.7,50,151.2,50,106
			C50,50.8,94.8,6,150,6S250,50.8,250,106z"/>
		<circle class="st2" cx="150" cy="106" r="75"/>
	</g>
	<g>
		<rect x="112.3" y="62.9" class="st4" width="75.5" height="14.1"/>
		<polygon class="st5" points="180.6,62.9 119.4,62.9 121.9,51.2 178.1,51.2 		"/>
		<path class="st6" d="M182.9,77l-8.6,75.7c-0.3,2.4-2.4,4.2-4.9,4.2h-39c-2.4,0-4.5-1.8-4.9-4.2L117.1,77H182.9z"/>
		<path class="st7" d="M177.9,128.7h-56.2c-1.2,0-2.1-0.9-2.3-2.1l-2.8-25.9c-0.1-1.4,0.9-2.6,2.3-2.6h61.7c1.4,0,2.4,1.2,2.3,2.6
			l-2.8,25.9C180,127.8,179,128.7,177.9,128.7z"/>
		<circle class="st3" cx="151.2" cy="113.4" r="10.6"/>
		<rect x="110" y="72.3" class="st4" width="79.9" height="4.7"/>
		<rect x="161.8" y="49" class="st5" width="9.4" height="3.5"/>
	</g>
</g>
</svg>
