<svg id="Final" xmlns="http://www.w3.org/2000/svg" viewBox="0 0 1000 138"><defs><style>.cls-1{fill:#fff;}.cls-2{fill:#37bf86;}</style></defs><title>3Artboard 1</title><g id="Item"><circle id="Inner" class="cls-1" cx="967" cy="38" r="14"/><path id="Ring" class="cls-2" d="M967,22a16,16,0,1,0,16,16A16,16,0,0,0,967,22Zm0,27a11,11,0,1,1,11-11A11,11,0,0,1,967,49Z"/></g><g id="Item-2" data-name="Item"><circle id="Inner-2" data-name="Inner" class="cls-1" cx="32" cy="38" r="14"/><path id="Ring-2" data-name="Ring" class="cls-2" d="M32,22A16,16,0,1,0,48,38,16,16,0,0,0,32,22Zm0,27A11,11,0,1,1,43,38,11,11,0,0,1,32,49Z"/></g><g id="Item-3" data-name="Item"><circle id="Inner-3" data-name="Inner" class="cls-1" cx="117" cy="38" r="14"/><path id="Ring-3" data-name="Ring" class="cls-2" d="M117,22a16,16,0,1,0,16,16A16,16,0,0,0,117,22Zm0,27a11,11,0,1,1,11-11A11,11,0,0,1,117,49Z"/></g><g id="Item-4" data-name="Item"><circle id="Inner-4" data-name="Inner" class="cls-1" cx="202" cy="38" r="14"/><path id="Ring-4" data-name="Ring" class="cls-2" d="M202,22a16,16,0,1,0,16,16A16,16,0,0,0,202,22Zm0,27a11,11,0,1,1,11-11A11,11,0,0,1,202,49Z"/></g><g id="Item-5" data-name="Item"><circle id="Inner-5" data-name="Inner" class="cls-1" cx="287" cy="38" r="14"/><path id="Ring-5" data-name="Ring" class="cls-2" d="M287,22a16,16,0,1,0,16,16A16,16,0,0,0,287,22Zm0,27a11,11,0,1,1,11-11A11,11,0,0,1,287,49Z"/></g><g id="Item-6" data-name="Item"><circle id="Inner-6" data-name="Inner" class="cls-1" cx="372" cy="38" r="14"/><path id="Ring-6" data-name="Ring" class="cls-2" d="M372,22a16,16,0,1,0,16,16A16,16,0,0,0,372,22Zm0,27a11,11,0,1,1,11-11A11,11,0,0,1,372,49Z"/></g><g id="Item-7" data-name="Item"><circle id="Inner-7" data-name="Inner" class="cls-1" cx="457" cy="38" r="14"/><path id="Ring-7" data-name="Ring" class="cls-2" d="M457,22a16,16,0,1,0,16,16A16,16,0,0,0,457,22Zm0,27a11,11,0,1,1,11-11A11,11,0,0,1,457,49Z"/></g><g id="Item-8" data-name="Item"><circle id="Inner-8" data-name="Inner" class="cls-1" cx="542" cy="38" r="14"/><path id="Ring-8" data-name="Ring" class="cls-2" d="M542,22a16,16,0,1,0,16,16A16,16,0,0,0,542,22Zm0,27a11,11,0,1,1,11-11A11,11,0,0,1,542,49Z"/></g><g id="Item-9" data-name="Item"><circle id="Inner-9" data-name="Inner" class="cls-1" cx="627" cy="38" r="14"/><path id="Ring-9" data-name="Ring" class="cls-2" d="M627,22a16,16,0,1,0,16,16A16,16,0,0,0,627,22Zm0,27a11,11,0,1,1,11-11A11,11,0,0,1,627,49Z"/></g><g id="Item-10" data-name="Item"><circle id="Inner-10" data-name="Inner" class="cls-1" cx="712" cy="38" r="14"/><path id="Ring-10" data-name="Ring" class="cls-2" d="M712,22a16,16,0,1,0,16,16A16,16,0,0,0,712,22Zm0,27a11,11,0,1,1,11-11A11,11,0,0,1,712,49Z"/></g><g id="Item-11" data-name="Item"><circle id="Inner-11" data-name="Inner" class="cls-1" cx="797" cy="38" r="14"/><path id="Ring-11" data-name="Ring" class="cls-2" d="M797,22a16,16,0,1,0,16,16A16,16,0,0,0,797,22Zm0,27a11,11,0,1,1,11-11A11,11,0,0,1,797,49Z"/></g><g id="Item-12" data-name="Item"><circle id="Inner-12" data-name="Inner" class="cls-1" cx="882" cy="38" r="14"/><path id="Ring-12" data-name="Ring" class="cls-2" d="M882,22a16,16,0,1,0,16,16A16,16,0,0,0,882,22Zm0,27a11,11,0,1,1,11-11A11,11,0,0,1,882,49Z"/></g><rect id="Connector" class="cls-2" x="54" y="35" width="40" height="6" rx="1.16667" ry="1.16667"/><rect id="Connector-2" data-name="Connector" class="cls-2" x="140" y="35" width="40" height="6" rx="1.16667" ry="1.16667"/><rect id="Connector-3" data-name="Connector" class="cls-2" x="225" y="35" width="40" height="6" rx="1.16667" ry="1.16667"/><rect id="Connector-4" data-name="Connector" class="cls-2" x="310" y="35" width="40" height="6" rx="1.16667" ry="1.16667"/><rect id="Connector-5" data-name="Connector" class="cls-2" x="395" y="35" width="40" height="6" rx="1.16667" ry="1.16667"/><rect id="Connector-6" data-name="Connector" class="cls-2" x="480" y="35" width="40" height="6" rx="1.16667" ry="1.16667"/><rect id="Connector-7" data-name="Connector" class="cls-2" x="565" y="35" width="40" height="6" rx="1.16667" ry="1.16667"/><rect id="Connector-8" data-name="Connector" class="cls-2" x="650" y="35" width="40" height="6" rx="1.16667" ry="1.16667"/><rect id="Connector-9" data-name="Connector" class="cls-2" x="735" y="35" width="40" height="6" rx="1.16667" ry="1.16667"/><rect id="Connector-10" data-name="Connector" class="cls-2" x="820" y="35" width="40" height="6" rx="1.16667" ry="1.16667"/><rect id="Connector-11" data-name="Connector" class="cls-2" x="907" y="35" width="40" height="6" rx="1.16667" ry="1.16667"/></svg>